<mxfile host="app.diagrams.net" agent="Mozilla/5.0 (Windows NT 10.0; Win64; x64) AppleWebKit/537.36 (KHTML, like Gecko) Chrome/131.0.0.0 Safari/537.36 Edg/131.0.0.0" version="24.8.6">
  <diagram name="第 1 页" id="_9JBiUCbkiiEd5R2nNBG">
    <mxGraphModel dx="2074" dy="1171" grid="1" gridSize="10" guides="1" tooltips="1" connect="1" arrows="1" fold="1" page="1" pageScale="1" pageWidth="827" pageHeight="1169" math="0" shadow="0">
      <root>
        <mxCell id="0" />
        <mxCell id="1" parent="0" />
        <mxCell id="ix9Jyrw6C9A1fynfYH4--176" style="edgeStyle=orthogonalEdgeStyle;rounded=0;orthogonalLoop=1;jettySize=auto;html=1;exitX=1;exitY=0.5;exitDx=0;exitDy=0;entryX=1;entryY=0.5;entryDx=0;entryDy=0;" edge="1" parent="1" source="ix9Jyrw6C9A1fynfYH4--47" target="ix9Jyrw6C9A1fynfYH4--3">
          <mxGeometry relative="1" as="geometry" />
        </mxCell>
        <mxCell id="ix9Jyrw6C9A1fynfYH4--47" value="" style="rounded=1;whiteSpace=wrap;html=1;fillColor=none;movable=1;resizable=1;rotatable=1;deletable=1;editable=1;locked=0;connectable=1;strokeColor=#b85450;dashed=1;dashPattern=8 8;" vertex="1" parent="1">
          <mxGeometry x="370" y="326.26" width="108.34" height="57.51" as="geometry" />
        </mxCell>
        <mxCell id="ix9Jyrw6C9A1fynfYH4--121" style="edgeStyle=orthogonalEdgeStyle;rounded=0;orthogonalLoop=1;jettySize=auto;html=1;exitX=0;exitY=0.5;exitDx=0;exitDy=0;entryX=1;entryY=0.5;entryDx=0;entryDy=0;" edge="1" parent="1" source="ix9Jyrw6C9A1fynfYH4--62" target="ix9Jyrw6C9A1fynfYH4--100">
          <mxGeometry relative="1" as="geometry" />
        </mxCell>
        <mxCell id="ix9Jyrw6C9A1fynfYH4--62" value="" style="rounded=1;whiteSpace=wrap;html=1;fillColor=none;strokeColor=#666666;dashed=1;container=0;" vertex="1" parent="1">
          <mxGeometry x="1160" y="255.01" width="150" height="200" as="geometry" />
        </mxCell>
        <mxCell id="ix9Jyrw6C9A1fynfYH4--127" style="edgeStyle=orthogonalEdgeStyle;rounded=0;orthogonalLoop=1;jettySize=auto;html=1;exitX=0;exitY=0.5;exitDx=0;exitDy=0;entryX=0;entryY=0.5;entryDx=0;entryDy=0;" edge="1" parent="1" source="ix9Jyrw6C9A1fynfYH4--3" target="ix9Jyrw6C9A1fynfYH4--16">
          <mxGeometry relative="1" as="geometry" />
        </mxCell>
        <mxCell id="ix9Jyrw6C9A1fynfYH4--3" value="Multi-head&amp;nbsp;&lt;div style=&quot;font-size: 15px;&quot;&gt;attention&lt;/div&gt;&lt;div style=&quot;font-size: 15px;&quot;&gt;&amp;nbsp;fusion&lt;/div&gt;" style="rounded=1;whiteSpace=wrap;html=1;direction=west;textDirection=vertical-rl;fontSize=15;strokeColor=#7EA6E0;strokeWidth=3;" vertex="1" parent="1">
          <mxGeometry x="520" y="300.01" width="60" height="110" as="geometry" />
        </mxCell>
        <mxCell id="ix9Jyrw6C9A1fynfYH4--128" style="edgeStyle=orthogonalEdgeStyle;rounded=0;orthogonalLoop=1;jettySize=auto;html=1;exitX=1;exitY=0.5;exitDx=0;exitDy=0;entryX=1;entryY=0.5;entryDx=0;entryDy=0;" edge="1" parent="1" source="ix9Jyrw6C9A1fynfYH4--13" target="ix9Jyrw6C9A1fynfYH4--16">
          <mxGeometry relative="1" as="geometry" />
        </mxCell>
        <mxCell id="ix9Jyrw6C9A1fynfYH4--13" value="Multi-head&amp;nbsp;&lt;div style=&quot;font-size: 15px;&quot;&gt;attention&lt;/div&gt;&lt;div style=&quot;font-size: 15px;&quot;&gt;&amp;nbsp;fusion&lt;/div&gt;" style="rounded=1;whiteSpace=wrap;html=1;direction=east;textDirection=vertical-rl;fontSize=15;strokeColor=#E1D5E7;flipV=1;flipH=1;rotation=-180;strokeWidth=3;" vertex="1" parent="1">
          <mxGeometry x="750" y="300.01" width="60" height="110" as="geometry" />
        </mxCell>
        <mxCell id="ix9Jyrw6C9A1fynfYH4--16" value="sdm" style="rounded=1;whiteSpace=wrap;html=1;fillColor=#f5f5f5;fontColor=#333333;strokeColor=#666666;strokeWidth=1;align=center;verticalAlign=middle;fontFamily=Helvetica;fontSize=18;" vertex="1" parent="1">
          <mxGeometry x="630" y="330" width="70" height="50" as="geometry" />
        </mxCell>
        <mxCell id="ix9Jyrw6C9A1fynfYH4--88" value="" style="group" vertex="1" connectable="0" parent="1">
          <mxGeometry x="49.7" y="295.01" width="110.3" height="120" as="geometry" />
        </mxCell>
        <mxCell id="ix9Jyrw6C9A1fynfYH4--20" value="" style="shape=image;verticalLabelPosition=bottom;labelBackgroundColor=default;verticalAlign=top;aspect=fixed;imageAspect=0;image=data:image/jpeg,/9j/4AAQSkZJRgABAQAAAQABAAD/2wBDAAIBAQEBAQIBAQECAgICAgQDAgICAgUEBAMEBgUGBgYFBgYGBwkIBgcJBwYGCAsICQoKCgoKBggLDAsKDAkKCgr/2wBDAQICAgICAgUDAwUKBwYHCgoKCgoKCgoKCgoKCgoKCgoKCgoKCgoKCgoKCgoKCgoKCgoKCgoKCgoKCgoKCgoKCgr/wAARCAG+ALEDAREAAhEBAxEB/8QAHwAAAQUBAQEBAQEAAAAAAAAAAAECAwQFBgcICQoL/8QAtRAAAgEDAwIEAwUFBAQAAAF9AQIDAAQRBRIhMUEGE1FhByJxFDKBkaEII0KxwRVS0fAkM2JyggkKFhcYGRolJicoKSo0NTY3ODk6Q0RFRkdISUpTVFVWV1hZWmNkZWZnaGlqc3R1dnd4eXqDhIWGh4iJipKTlJWWl5iZmqKjpKWmp6ipqrKztLW2t7i5usLDxMXGx8jJytLT1NXW19jZ2uHi4+Tl5ufo6erx8vP09fb3+Pn6/8QAHwEAAwEBAQEBAQEBAQAAAAAAAAECAwQFBgcICQoL/8QAtREAAgECBAQDBAcFBAQAAQJ3AAECAxEEBSExBhJBUQdhcRMiMoEIFEKRobHBCSMzUvAVYnLRChYkNOEl8RcYGRomJygpKjU2Nzg5OkNERUZHSElKU1RVVldYWVpjZGVmZ2hpanN0dXZ3eHl6goOEhYaHiImKkpOUlZaXmJmaoqOkpaanqKmqsrO0tba3uLm6wsPExcbHyMnK0tPU1dbX2Nna4uPk5ebn6Onq8vP09fb3+Pn6/9oADAMBAAIRAxEAPwAD5kLPKF57tivOTuj5pPQgnJnuNsdyCPYZFM0VNyFXT99yGWXdnlxjpXPObUrEyo2Y66gljYTOvXtmo9ozNqweUZkLKvPcVSd9TaPwoiMK3CGJF+YUzKRmzWFzHcASzFc9FxWM3JSHTpKSuSXELRqG6+9TzSOmFBGdeySqjLkA5HfrVKLauEvddiKS8eNN6nOAMgcgU+Rk8xEsgvgx2bHH3XDDBqJVHDQl6lW8nWxnS3Lq28ZbmueddgV0v/NlcR4z3UnGPzrop1OancCS3kvoZQ1u5w7YO7kUmuYC1Nb3MalWmRY3P8AwV9aIU7SJauVZFiG9zNKA+ByemBj+ldc5WiHKQ3NrFbRfa7K480n1PT864JVm52NY6IcLSBrb7Q5JyQCfetoUVUGUltUkZikgx7irVCMJkyA2mIVMbBmD5A9q6VGM1Y55Gbe3V9JMIhEf3jHaB35xXHUi4TsiY8rVggkNpOltPKyFjwtZOrKJoqSkaX2Zv+e5/wC+hU/WGV9Xiel39m8kYUMhGORnmvWVraExpzbKn9gsqmeJgE/66Gk2kd1PljuWLC1uoWPlzg47Z/xqWothUnS2uWVeSFjLeHO/oOtHs0ziqRctgGEi82Nsls5FQ4tMuEJKCTI0mEEgkC/Mx5XFKzM5QkP1GWGYRkoobHNC9m3ZvUUJOOhTnuIIVMEkQJ7sTTkqUd2dMJuxxPxL+J3gn4d6bLe69rKwrFEW2nnPf6ms/aUnsZzvKZ8v65/wUx8A2+p3Gm2dtNcLkgSxoygEdM5HP4VrGPNsNUKktkcDq3/BS7xjLdM9n4etIlLYWRWbdgcAkYx0rOeHnJ6I2WFrW2L3h3/gp1qp1ezsPE+iQTWSZ+0SbCrtkk9fbOPwrCWDqPoP6rW7H0F8Gv2rfh18X4WstMvoLW4+0YjgeRdxXGTyan2FWmtUZSpyjKzPW7C6hm+ZiCCpZDjr6fpWsLMThJDrqSS6crAucAZ7Y4rVOKlYaasRy/ubXzQVJXqrDIFFVSmvdFzwXUro080e4QREs2AFGBXNGg0/eF7SA3V5ZobciGEbmXOxemRxXVB8oe0iZwZnEZk+SSQcp6Gs6zk3dEucS2jR2kLiaIkr0IGc5+lZUqkoy94xbuVb1YAEkjVgyjKjIHWutzoyVzlaq8+mxnXJWS5jmeLOT97cDXDVUG9DqpylHcseSf7x/MVhyo39sj1JRe7eY1IA6mvQ52pWGnYegklgIBxnoOldlOKluPmFiDB8ZwExz61NSKjIyk7sszlLiIM3GBWLqWNYlVp1Vdu7pU89zsilykM8U8irJFL+FHOZSjEjlaXexlQtjGGB68Vi/juZ8kbGB408WaV4P0C98T67cLHb2tuzsJDgDH8/wrRx9oiJRfQ/Mn9rz46aj8WPH8tzZ6jLFZBQIII5vkI2gdj36/jXRRwfuo78PheempM8IvSlu/mI2Wz8xBr0adBRR6VPDxihsuoyOoWIkgU5QsxyhZlW4uHuDiWfgfwEGp5SeUueGPFes+ENXg1zw/dNDPCxGInIyCPvUToKcDGVBSbZ+kX7D/7Wlj8Z/BD+E9eCLrOmxxq0zN80yAdcdsdPwrx6tKVKR5+LhKK0PoeC9tLi3RoG5cfwjNcspScrnDC7ghIxHFM8EnzDHOBmqjVkjORBtmMYkWIr+8zj2HFKVVtnRRo81NMWItJbyNIw3bvkUj3pe0ka+wRn6sypdLIbYkgDkCt4u8Uw9gijdG/klTy3eIP/AKwZz9KykHsEV7tnuHFuiuyqPxreKj7MylSsygkTKoRcqq5IBPI5rhrNrYXsmTfbV/57/rXLeYeyPbJPNhiDxMCD2BzX0CpXVzKo1B6jbeNb5XaVvLWP+LpQ58hFOpGo7RGtNFBbMgIbnggdamdeFrs3dOaK8t+rQ7UY7iOmDXn1K8G9GWospJ9onQmQEAHBNbUqc5wujRxqvbYl8uaziJyWB7+lVKnKO5zzVZdCrM95EhjVuD93IrNyXKRGU+azPi3/AIKgfHa60fT7P4W6VfOs1x++uwjEfJ0x/wDWrrwlpPU9WhCMtz4aubhHbzHYkrnaM17OkdD1YcsIpIoXTGRsgEDPrUuT6A5yIgvJK9COKtaq7GmmtSMxDPzDmnZDvHuN27JM9u1ReXN5GTb5zrfg78TNQ+FHjuz8YWM8oW2Ia5it32+dFuwUb1qK1KM1oZ1qSqKx+tHws8X6d4z8J6d4g0uJEgvbNJUCuDjKhivsR0/CvNnQUFqeLWh7OfKdGZLYEC3jcORk4Nccqab0OdwkxzXtrbR77iXlv7wqlSSWptTk4QsyASLMXkXAyPkxT9nEv2hXhWGSItOzb8nKg9OabSSsL2qKskLCYMsvyDoW61zyYe2QWdqPtXmJIrD+KovUvpsbwalG5HqOm6e90S5G6RDgDvW8aXNuV7pQ/saz/wCeUn/fo/4Vf1eIe6eyzyxCMNCqlccADArr5rOx5taDnEpqpuZydpVT98Fhj8q2jTjLcwoQ9nK5J5cTDYQox2UcVz4ihHod8p3ZBcra27BhKFI6nGa86NBXJ5imlyxl/wCPgMh6ttNaxm6c+Ur2zSsDalNbhiYi4c/LxXZJqcdTNzlIj1bVlt9Pe8kjVfs6l/mIHGP8a4pR96yHCLcj8f8A9q/4oXnxW+OGveI7uTPk3JtoFEgIAQhDj/vmvRw1PlR61CGh5zKZGJKnPPBrvep22sRPnZtbr6UAMBCjBNWtgEcjOfWmBHIjEjAoAVhlPKK7tzgsAccelAH6F/8ABMP4iL4r+EVx4PnmJuPD+ps5md8s0bfOFx1wN4X8K4cSeXiKd6rZ9TS20a3iwzTFGYkfKehzyM9OtebH4jlacWV5UVQ1nI25Yz8ryDJOee1avcyluMt0uIZkXaTjqAOKQh1zFKshMcBVm6HsaTjfUh7lFBcGd0Zt7H7wU5x+VYyiIksofs0jEqWJ6ZOKlKyN4VLRsRy3KXM4aSAAxn92R1rpgX7Uk+1XH/Py9aB7Q9JZBM2EusA9sUp7mcZRUbMabUQPtJLHuwNZSqVVsRKN9hk8xV2ijGFXHP4U3Vk4We5PLJblaZon+SRWJ7kg1zJzuFmULozK/lxPtVOgq7JvmZpGK6j1mFxEDI75Hp0qK2IUVodEVTW55d+198Ro/hl+z/4m8TQ30qXQsTDbKAOXkGwAH260YVupK7LjDmn7p+SM32qeRricq7scySOPnZv4ifxzX0MIpR0PTpR5FqNDKowT060LY2bT1RDJIjOSrcUxDGIJyKtbAI3OMdqYAaAEQEy8UAfU3/BKrxUulfHLV/CTphtU0HzEOeN0Mm/9Q2PwrixK0MKySV2foRfRLNB5cLHOc7/6/j1/GvMTtI8uo03ZD5rd4rc5iJIAyce1W5Js52mhfPcoFGAcdxVKLexlKrCO4yOVy3mLPuzkHd91a1UdLAmpq6Me/shb3ZvLeICZz+9kDHDenH0rnqOMFqOzHTud0bq+Nw7Zrm9rBvRmclK4RusQ8oWxdhnnPWuqDTJtMb9t/wCnMf8AfQ/xrazHaZ6c628c7m4BU9h+Fc9R2mavcrXEszfu0lIHbFRzGsSu5ugrRs+/n5cdql6hLcey3e1GmmB3j5QB6cUElLUYJIG+0BflJ5Gayk5XsWthxA+6AA5XOM1PsubcZ8Xf8FW/irNB4O0v4Z6dNKq3Ooia9dF42qoKjJ68114aKjOx2YY+FLmaSZjKxJLHJzjr3r3ofAj0pbFYNuLKetSKn8JAIzHIWY856UFjmbc27GKtbAJTAKAE+ZX3LQB7D+wh4ik0L9p/w+/neW16k9ohz94sgbHt071yYhe4zDEfAfqbp1wbmMnzAM/dGO3avIfxnkP4x+pXM0Km4Mx2oQuAepI9KopqLWpnGS8SbLZK+pNaKpyo46lGMgimHlmJo8hm+dd33qqNTmkOEVCNixfNuX92wIUDt7VliI8yLK5tY5As8z4A68Vx06XUh7jokigLeZ0xycdM1201yiKn2O0/5+B+Rre7A9ImmkuohIyYz3JrhrSXtGaOnJ6jrciK2kYBWOeMkVC1KWm4jtAI8xlWIHOCM1Sdger0Ksd3vDvtPH3cqRj86d0KzIGvrNpltTiTePWtoqm43LSdilqrhIGuIGOQjZHpispqXQD85/8AgpdqzXXjrT7R7suPs5kng2njnAOenpW+Fp1HK9jqw8kj5jYERAE9q9yMWo6np351oMRY8E55xzxU2Y4xcVZlaT75osyhKpbAGR60wCgAoA6/4Cawvh/40eF9ZP3YtXRSo6szkJ/UVyYh+60c9d3jY/W3RblWtEng+55W4fSvIfxnkSkoy1Jn1i2aHbLCceYGaQ1rZ8pyznJyvHYhkuzcuZx9xjwenHSuWbkgUpjFurZiyMOR0PrRSmk7srmSWpBNdI1sVbzBt5yG6iuidWnJbidWCHf2sxMVvbwn5x8zMw4ohOnyhdS1RYlmdI2iJDljywrS19i4U5z2E/stf+e360+SRr9Vrdjt7acTSJZhguR8o3f41xVI3qFw1pli4s1FqYkJYk/eFaRiZz3ITElogjEJ6cyY5NTKOoLYTYqRFoy7DuW5FLlGVHt1FyHiijEmPlIFF7aC57OxR8SStZaf5skoTJxK+3hQfajmKUbn5c/tyeJLnU/jZqWnyXSzQ2kIiimA4JOGx+teng9YnbRpXimeMPuEBdznHUivWex6FNcqHQWztF5u3gjqazWxbd2U5wBKwFMQ1tuwY60AReW7cscH60AG2VeF5H1oAcrYGH60AaXhK6+w+K9H1ASbfI1SF8/SRD/IGuevH3WzCrG5+s/w28RS6n4V03UCN32iFQdvIxXiSdpHkV4nSyRLfLJCybMH5feq57o5lHQqm1YKQ8pCQn5lweKza5h8o64jidA6qUwOB1rGSs7G8aSlC5D9rCxuJLXIEfX8aRlKii5DplpexJdbdpCDIB6cV20oJ07nPNOGiIVhls0b5SVLcE1Mm47GuHquLLOD/fH51HtpHofWJHfW8NvbbXWY7kGB8g/rWig5+8tjGkn7OxIbm3G5ZJmz2xW0YMJUpyeiEhaKaErJcjjOEbrUSS5iXFx0ZVkleGExIV5bCjIrNyiuoiG4uyrKjhNyjBKn5s1zzTlK6MXGXPoc14+1BdP8P3d5ekiCG2Mkpc84yfz/AAqeWXY7KWm5+SHxq1//AITL4k6zrMDFbd76ZYk+8eGK9uucZ/GvZwUJKmmz16PKqSZydnbuJlEisEbg7hjB989K9NyVi003oOu7oTM1vECqx9GA61Ca2B6OzKDnc5INNtIV0JQmmhhTAKAGEFnwBQBJH5iJtU7WDq6H1IPT2qKzj7OwSheNz9JP2PviKviv4aabvk2rEoiUeYOGXO4V83XvzHjYhqL1PbYdUEcKzq2UbJ3GsFUUXZnNFxaJW1GK6iKQgEMfmNdEa9LuaKN9i3a2oS3MsqjGOMms5yjKV0XaUdCkL2NZAn2cne2G+XoPWlZmEudkbai9ssjW0eTu6j07VvTlJKxapxdPXcfHqNzeOsM0XsWx37VvGKktTOFKzJ/Km/un86v2cDflidql5ZRN9nZmLDrnJ/WtVDkVjjhXdgkuUEuxYM5HFM6Y12Mg1NWkaP7MoUdyKwnHUcpczuJLLaMC0q7Crgqw78elc8okmO1/qk+pmNraLy2b5HyNxFSlZFKNzB+M2geL/EngzUPDPhWWOO51C0aCOa4TcFDjacY6Y60zohA+d/hP/wAEUr3xhrgPijxbcSrGoPlRsAsh7nIORk5PPrXfSq2hY0lUcI2OJ/be/wCCbcH7LOiSavptin2Q2m5ne53PuJwDya19sVQrvmPNLf8A4J9/FXXPhInxQ8OYuY2RHjthEWbbt5zt46g0vrUY7ndrLU8C8TeGtY8Ka5caDrdoYrm3b94mwgDIBHX2Irpo1Y1dA5TPByM10yXK7FLQCCBuPSkAAg8igBFBD7j0oAk3oiliu8k/d9Kt0oyp3He6se4fsg/FbUND8Rt4SgupEWYrLbxs+RnOGwO3FfNZhTlSjzIxlhY1HqfeHhHxbeahpcUF1ZHyJVYmbbjADEZwee1fJVMXJVmiJYCK2Ojsb/T7YCEkHP3D616FCqpGEsPKOx0GlaXea8xayZiu35UUfn+tdHt1GVkYTpyMbV9M1Oz1wQSRzRMfvBvunj0rpp1FJHHNyiySawulhVrf5CuQBjrW6lZmLqSI7PTrmGJobmdy7yBmkHAArojIPaSLXH/Py3/fdac6D2sjqdLneeECWEqwXqR1rpd76iiop2LNtDfCRnlwBn5PmHNQ2kdUIxsXVsoUjMrEc9TRo0DVmUtUtlit2nkcKqjI561hNWER+FbUaldLqMkaeWcjkehx/SsJaam1Oz0O3sfDgv0WQRLheU496z9pFs7YwaOj8Fazf+FtdEm4xA4BO3g0OsohKlzrQ8N/4KX2kfxq0uH4f+f8t9pdwCUUkqUXeOR71lLG0o7sqlhpxd7Fz/gnpfadq37PNt4Q1SKKOSzs1txv4bK5HzA+vX8a8rFY68rxeh6MabUT43/4K7/s5aL4fFr8YfC9rDA8cjW+pwQAYk5AD/livTybG+0na4NWPhCVTG5U/wAJ2n8OK+vb5tTJ7jSQ0eAaQhFBAwaAFoAAQTtHWiMpp+QGh4S8Q3vhPxLa+IrF8S2cyyKq8Fv9nNcWNoqtFxXUlymtj9Dv2af2kdK+IvhSBGt3N2wxJAFBCDcQa/Psdga9Ku5NaHXSk3HU950zw/BrtpFfxRAfMNoaPB4OOn4Vx060k7I3UaT3PX/Afh/TPD2nrfTWULu0XID4NdMZzctTGtRpJXPO/itqVjqN+JrKNo3SToG/rXtYbmaPFr04N2RirfzWsIcnMZA5btXeqNV620OCVOKlZlTUNZuod0Hlh4W7Kfv8VoozW5PJAofbLn/nxb/v4P8AGq94OSBa+GnxFtPiX4FtPEuj3hxcxDMIlG5FJOSfxz716UyJ07SO6TU444I4kQsFUAEsMnHeueZSdi7BfPPaShoyqpjtmkpWjYq9yC7vo0hjEsp8sIWYsoAxk+tYykBj/Df4qaB4o8fp4G0jEkpR5JSsZACqeTnGPyrCrNcpvQjeR7ra6XOtr9lHybzjOOmK4Iy949dQ90vy+H0SMNcuflTjI4oqyLhHQ8k+J/hxtV1YXu2NFhGFlxyAOSPxHFeRiJnRGBw/7IvhbUtKg1nU/PZmOsTmONgRlTK5UfgMCvNqzbVjZ6I80/4KqaabX4Aa3PdQAtIu2JT0BYryP1r28kTjVVznnuflbMkjk/LySfxr7+k3KmmYvcjClPlYc1oIQsAcE0AKCDyKABFJkyBTewEjKzqY1X5s1hID2T9kL4lT/D/4kWVtJPiC+mSCdWyQAxxu9q+ZzilJwckb03ofqxoGkXdvoEd+swkJRSmwZDjHH6V+f+0lCsdlOndGR4r/AGj9N8N2VlazwSxC/lkgt5lXKxuhwy/Xv+NdcMRJ1RYily0zM1MpqgNzNdfvCNzKSM/XAr6/LrTSufPVJJSK8tvss41cl1YEsO45r0atTklZHDUd53M+WcQxbYIWZVPzZH3a5J12QN+0H+8PzqfrAHwz+w5+09qngDxXF4Z1ucvps6hGR2OR2FfQ1KckrnZWoT5j9CPBN++tk3sV5E9s4DQhvvYIzjNcrTk7I8+rGUToE1K6sDI4T5VOAjdTWU4yi7MUJpR1PNf2nfiePB/glbgXixC6mEKsTghj2x1/GuaakaxfPscj+wRq2lap+1Va6HP9qa4fQrlyQ2UboT/Oueo3y2O7DwcXqfobHo6K++RerEqSOSM157lyy1PXik46FLW9LXUbmK2SPno2HP8ASlKopuyHFxjozg/jb4NkttANtZWrgtCXZ42wU59+a4K9Cq9bHTCUTkvhHpmm+CfCzXV7cSYkkMkkjnk8k9OtcMVFTtLcJtHwH/wU/wD2j9R+IXiH/hWOi6vH/Zli3mXKhuZWzuC/ka+qyynDRo5ptXPiicnz3Yrt3OSB6AnIr62krQSM2rkEqNvLY4q3JIVmNEasMkUJp7EtpOxL5SCAMKppoa12GxRSbh8vXOPw5o3Wg7MsWsJlcMozkZHNZSi0S2kbngjULXT/ABJHcXEhWJY33AKc7gMqRj3rgzClCWFt1NKc1c/Zn9lXXIfF37N/h7xBLMjyzaYqs5bOCq4OfwxX5Zi4KNZntYflaPDPj38IPFWo/D7xRoNnqVw9zo2rR63pUigBdr/u5I1I5PK5x71dGEb8xWKhzRfKZ/wE+KmqeKtIGh6vYrFq+nIsFxbzSqNxCglsk5IxznpzX0ODxEYaI+RxlGpCTbR6Rb391cWZjuXhSTn5Is/hyfbFe2pKpDmZ59mzN0y9luxcxpcnCPhwynP51lOMQsy3ssP7jfrWfLELM/I+xu57O4jubORo3iIZZFPUg19XUd1Y9upG6P0E/Yb/AGmbb4n+FG8A6vqSrf6eq+REwwzDrnPfrXHy8rueTXhqfSumm7kuY/td0nkuMALknOO5P9aicot6nBNWZ8+ftBeHz8aviEdBmM39i6ChkJRSPPlwD1PXBJH4VyycTfDbnqP7F/wVh8MfFnRPHdnZSW80iSWxaV8kq4AUHHTofyrlqKJ60D73igRv3kibQCQOvrXn1YxuelTKVlaRvqhefIUHgr1rgcuSZo6d3cXxN4Rj16AiPLoVKkSEZxTlW5lYtKx80ft5yXPwj+COpeJdGBR7W1O3acA54zXBCk6mJFI/GTx1qt9qusPrF9eefPey75XcklQe1fdZdQjCCuc09zBngmlbe8eCTgBe4HFexzwTsC2I5oMNsxye1WlGQxptTGBvXGfcUXjGRk43kdL8M/hh4i+KOvQeG/DtnI7yTKrsEyFBNc+JxcILc2jE9j/bA/Y2v/2dfAPh7xFcT7zczBbllXABcHAx17Y/CvPoY9VKvKinHQ+eIG8uRUclAnAxzXrOScLmMom54Dsmu/FVrIUUBJkd1k+66ltpH5CvLx1SPsLFUoWP16/4J+6VqFt8HrvwndQqIre4lNuMcKkmGXH1zX55iqanVZ61GVjv/GngdLy0vLDZH5t3p88cZGflY5CscccHtXK7wlynQ5OR8XPrNl8MfF1rrfijR57W+t5Wsr2QLtE8eNu/nrnrntmvdwFNSZ4eYU+ZHuGkzwNpkd7bXRkRlR0ZymdhUYGc84HH4V9HGmox0PmanNGVgfULWyuJFjgGx8M7YxWU4kc0h/8Aath/fWs+QOaR+QweNRtz+lfStNzv0PpXZxsdn8DfjN4q+DHju38XeF1SVohtaG4n2IRnk9KmtByWhwVaEpbI+5/Ff7RfxA0f4bW/jy6XRHh1K0G1oLh2IJGeOM8dOleHXdWNRo8yrhqvNaxhfDbW9U+OVloX/CP6fJayyXpj1Hy3k2MpkODkjByMH8a5JOsaUKNSD1R96+C/COmfD2y0RseXFBfQK5TJDctk569TXLUruOjPTpwk9j3uMLJbjDlzt64rgq4h3PSpxkVlVYQ4ZBvz8nvXNOTktDuioqFmasMHnQKG+UMOTmsoRq31M5xvsfPn/BSb4VTeOv2Y/E2gWJkZjZCaNo1yd687fy59Oa9DDSpxramLTsfjr8C/2X/F3xi8WtZW1rI8UU/lMxUYVhwR+le7Ux0KVPRmEoSbO0+Lv7GHi7wF8R9H8H2+mtL9rgdzOEGEwec8+prClm1N7y1KjSnY8Z8TfCfW9F13UreeymX7LdNEMRkgsvBxjrzmvWo5lRa3H7KfY7P4YfsdfFX4ta1Y2Fv4eureylKu8z2xQlT7tjNZYjNaEJP3gVOVz9Jf2Yf2J/CvwO8OCZfD1q93LGN88q/vQf8AP6V8zjs1hP4GbxpSOH/4K0fC3WvFX7NC3uh2jyTafqEEpCDcfLUncfwzWeVYpwxClU2KlTlY/Mi8+Ffjiw0yPxFdeHrxLSUZWd4CFOOvNfbwxuHnSspGUqMnsfTv/BOP9kq9+K+r33jDxf4XluNKt4UWBGUDzZN2RjJr5zMsWuZwTNIUpKOx+oHwD+G48MaTcQfZBE/mgeWAANoGAPwAA/CvnFCtKd7GnwljU9GSPVplaRyEc4Geueaqapxd5bm1OSsfNX7dvwdtPiD8MtbvLfy4NZs7TdZXKjG0DnPHWu3BYmlGS1MMTT5loed/s63/AIz8S/BnTp4ZLa7mth5DSfanAJj+ViQBgdK+qozjOkmfOV6K9o7nc3Y8bxu9xqdtYkxpt2pfMM+nG3PSonKJyyVKO7KP2nxJ/wA+Fn/4MT/hWd4Ee0w/c/J/5v4utfRnuiSFGURlMnDE56YxQB7j8NvEHin4p+FNK+HkVzKEGLSGONMjc3cfn1rzsTSXM5HPNXkfpt8Iv2evB3wo+H/hHRjPMLuExG4liAG9urZ9cE4/CvNcot2J5T3L4lSQ2nhWOMFQBeROu0Yxhs/y5rkrYdN3OikrHrnhu7juLKB44gRPEpUZ9q8utSjFnoUxmpQLFJ50WSQ3I9KxUI8tzYsafOl/GoMu0p2rkqVHHYBPEulW/iTRJ9KvwhjYE4K5DDGNrDvVUJ3lzEON2eFfCz9lPwZ8OvE+q32j6fBbfb7kzKkUYCqx5OB25yfxrsrVOeFhchZ+KnwX0Ca+t/EU6QvNbRsiIyAtyRnn865qcHa5aVkeS237Hfwz1rxHqWu6hocUlvc3ckoil6Bj0IHbJrqhV5Bnrfg/4OeH9C022ighI+zwqsarwFAHSscRPn1J+0b1/YutmpC5yccH0OK8r2blI3hsZvibwHo/jvSl8PanDvikYCaN1yGFaqjVjrEHuV7n9kP4Z3fhFvCk/h61ktCG/cXEIIGf7uOlaxrYmnsxHQ/Dz4K+FfhX4VTRvDWlxWsUaD5IYwMn8Kr2s5u8ty1sa+iXKCRrCGHDeZkkjBOea2jIwmc74ws20zX1mCErPExPs2cCuLFXcmVTPL/j/wCH7y78B309usO97VlAZMnaRzn8c1vl0E56l1tj48/YE1C9u/AXiPQpro28th4mu4ZoQfuZbcAPXI549a+2pQiqasfLYyco1me+3EQuSJYJlGc7Qyg+YOx9vxqZROKNqrsVP7EH/PNf++V/xrLkNfqqPx6Y7mzivpbM9e6J9L06TVbs2Ma8MmXweozRZhdH1x+wJ4Ou9b+LuiaHp2htFBHC1wJ3T5Rsbkn8a8nH14K8E9SG1c/SjxBG914i0zS4lytmRO5A7rwR+dfNc9VVLsV0dr4rsLbxP4MkmabBWRWAA713Kop07dSozimdZ8P9bvLfR7OKb70YAUk9q8zE0a71SO+nOJt3OvQSu6+avD4OT3ry5SqxfKzoTuFtqawL5iyqBnnmocHLcC7HrtlDbFnlG9hwcE5rRR5Y2RSascb4k8VS6VriyjkSL1Cn04oXN1HdHJXuqaxfymbUI32M5Kg+ma6Y1qUYWb1IbVy/pnnvCrR26rCeWdkPHNYTVSfwjSbOnQrbW6KQCSo5A4qfejHlluLlfMRiFHbzduQOi4p0qbuax0WpoaRBbTSi5MIB9MU6tWdOdktAe5uSXcYXBA49aUKk59BFKe6leTZGcqe2KmVKq57DUkijf2ZtL1L2JMbvvEVoqVWO6MpamR47tfPsob1H5SUdv4e9VUdFUrN6lU9NzgPiOiT+Cb/zjhVi+dyM4BJxxXJQrxpz0ZVT3lofn9+z7Z6x4B+OPjjwKLlVGpanHqdgHUjcu1Vb+Rr7TB4yhLDRuzwsbR0b6n0pLZRNdLDAQhwTuzxzzXR7SnLY+fg506mon2E/9BZPzoOz6yu5+N6qWZUUcuSF+oGfwr35OyPWe56l+zT8BPGvxm8Z2GleFbN08+5EVzetjy4o88nk81yVK6iI/TP9nL4IWfwx+K39j28sb/2Vo5im8mPHmswXBH1INeNiV7Wo5EPc9v8ABk8WseKb7Xo4S8cGY1UnkZFcM6TEa+k6jLd6Xfabn5hJuRDxxmoj7rsT9o9B8DWUM2gJayx/vG5DA9Kzr10onoUznfFl/eaQdn2cBjcc5POOlee4Kouc7IfCTWF/PfIY3Uru5GK4qqcXoUb+k6MJyGkuGxjgGuuhT56SbMJyakP1/wAFWWpIlzLI4MHPy9xW3sYk87E8Q+H9NTSRdLCFVFHzsMZ4zXHWpJSNYO55Z4n+J1rbyt4c0vcWb5TIhyoOenFcM8ROnsdMNjvPBsl5qWgwT6gv7wLtb8Dx+mK6KLdWHMyZSSZaCyG8FqZdoJrpT5SedG4wg062jggwW7yevOac4xlC5Sd0PfyXXM7kuRyQDXHGbhLQZNpoijBZU3A+o6V20m5O7Ie46/sllTG3jtXTU2EY+vWXn6JJBJGQVUlfpXFUpKULlrY8j8ercx+H7m33ko6gdPugHNefyRjIZ8KnxXBD+0bqdlrti0eoaZhbGXyyPPgfEhYccgbsZ7YxXuYSS9mkefjI3TPcZL9riAXbhlTG5ODkg8/1r14e6rny9aPvFX7TB/zzf9a09t5mXIz8ivuRs6HG1Szflj+Qr6Wo3sfRPc/Wn9iD4Q+Ffhh8OPDlzp+m7LnULeJroPjO9hnj868TE1GmQ5JHsfhiA6R8YvEOqLdBn+zwCNdhwgA+YdPf9azjUgqd2yHJNnoHgizh0rQL/VVtgplIZlA5HHWsvaUpOyY7XMvwtfRSzTtIrhpZsLu64rz601Gq0Kz5j1P4c6rbsGtDtQo/yFmHIrzcVzzXunbTkkVfi54YN7aPNaTfMcuZF9qwp1XTpqMjrjOKR5z8OfiJBeSra6hMxMUjI8jAqDhiO/0pe0oz6mikmeu6ddwT2sdxYuWQnBNdEKsEuVCcL6kHjzxPqHhvw+2rWCeZsba6D0rSVZQWpLUUef3PjPxJ4z8OyWlvbHMisMuxGGycD8sVn/GXMhKUUzG+Efweu7TW3vPEKhiGJxnIBzmuaeClPodEJxsewva29vYm3sUxhxxjHFbQpqjDlZlU5nLQzFVzegbThT96sJysRaZcj3yMElcjae9R7VuNkdEE+U0IHA+UjIHetaNJyd2VZl2CJiCyL8pPFdapuEzOWjJ32sNrelaT1WhDlFGdr6SQ6bO8RyHiIAx0Nc1RSVOxpGSaPCviSkn9hXlu9y8bNCzK+eMjrXh1faxnsWk2fN/7SX7NUvxQ+GGmfFLwlfywa7oE4ngubUYaeIHLQt6oeT+NepluIUXZnLiYNxsXfBl6+q+F7a/CyBpYF3xSj5kYcEfTIOPbFfR1KkVT3Pmq9OSlqaH2SWvP9ujCyPyBmTZFI8n/ADwbaPTqK+/nHqe09z9c/wBnbxrH4jt/C1/YXCXFnHpds3mxnCk+UvY8+34V4OKhqYSPXfCNy0njfXpZYwyyOgi75BRSf1zXA9rGcTt7vUoE8LT2kCyRNtGcdDURjyu50RM3TZIrTRFuJJAJUfdubuK6JSwyp80tzWNPm1PHfjz+1nf/AAu+KGg6fpOoOYX+a5jiHG0nr715FXGYa9kdEKR9CeG/jJaeJ9AhurgsxePc6k84IyOPpWFSrQlC5ooNHns9jp83iG5t4JCsdxLujVTyh/8A18/jXnLEYeMjohE7rwJ401PwpcJo2ruvks4KF3B+X1rqhUpSfMjbl909RhttK8R6e0UZWWGTkgVvL2dRWMZRJbTwpo2nwNHb2agbcgbe9RrT0RztWkWEsLCCMPDAq4GScd+9S8Q4msCle30DSGODBPcYrN1ubVmhQnR0lLghQe1ZSjcCVUlNv57tuXuBWajZm0PhJ9NlV8ADA9K64VOUo1Y5CqAIeK25+bUwqD1y/PejmOaYzULOWbTZgjAnbwv4VlUkyoSsj50+NN/HcafLpBG13aRHccY4xXl1oykzpjI5f4aTahpvwyFhdwRnyvOiJd8kqS3XHFXg4uNRXMqzucDoGmwaFFLDbnbGztsRjnBLEn9c19jRpwqQ1PAxW5f4/vrV/UqZwH47tpmpfKJ9PmChmDjyj84I4A9a+rc4ONj1pTimfcn/AATr1Hx/4T+G8s2tF1tIblRpyXHXyySWHthiw59K8jFRMXJH2l8O/ES3V9c3kSIwuQDIyEELhQPx6V4zX7xvoZKcU7HRal4gWS2Mc7MIypUYbAJzSr1aUFqzspxctjjPEHjky366TpwlwI/nQ5wMCvExdWM4aM9KjSkoanzt8a408SfG/S9CuYYW36ZK+4cMuBlf1BrxqcYc/vs6YxR9L/B+zlk+GEF5JIRcJp0ZVs8r8oz9a9pYSnUw94smTjzFS01qGwuIdUFyxDzGNd2SS/UivErYWMJas2gkzc0fWNR8Ua8Jr60Y2gTaFZSpLfjXDVrVKStHY20tY7rwL4/1Xw9PLDJdgxIwXbnp7Y60YbMWpWkyHTlLY9W0Txe2pWizLAJcjllNfVUJ06tBSvucdSlOM72Jb7Up5F8tYtmeoyOKwqwvsTFq9jOeRYZthj3N6561yX5ZWNR0xZ9qlMMf4a6Kc4gXIYitkYJBhj2pyi5O6NIySQlpH5MxXHHGKxlzRK5omlH8qAGtqcm4mU9dh8bNnIHHY1olJ9DCUZMlJkaPhflLYY/hXTTppx1MmnFny98fLWe28fzrE3+j+WWBB/iwO1KeHilqbRlYxtAuIoPhrdTzR72Mh2AHpya5PZr2nuiqTilY4KCdmDAtkKxII+pNevQdaCPDxLTegz+0m/vN/wB811+2qHCeCXH7N/wnu2ivLu0ka4Xa1u/RTwOwr3KlRxkznjipSVz0Hwxp+i6PpwsdGsFiWNh8ivwQOpwfeuWtVlURX1hna+FPEt74e1FZPMLW7jkKnT8BXI4NRNacud3J/FPxP1fVJzoeg2gWQSKSZOcqQOVr5vM5zitD3cLsW9I03yLY39y0xnkB+ZznjvXzssXKMbM9umrwPL/iK+maXe3fi3yvtV9DbmG3zFyM7u457iijVU5al8p618BdX1nT/gvpV5rC7JUhzOmSemfl9TxivYWOjSpciZjKleVznJdIv/E/hqSbUpbiKSDWnnto0lABjY5ByD79OteXiMSpsuKsey+B4Ley8NQ7pmSRUHG8tzj1PWvKrVtLG0VzFH4Z+MIb/wAd6p4Yu5WZ4IRIshUELuYhfrkg/SqwVKFSep0Rie5/DS5S1Elg4JAHG4d+p/Wvc9rKjLkWyObEQN/U4AMzB8CuylUc1qeco+8U3CCVd7c5rpVGE1dmz0NKazCBXZecc1Lo22ESo0L9D068UlGS0AgnikMu6KXAz0reNDm3At2d2ECxSnJHU4odOMJWA0FEZQMeM1tCMQKOsX9taWzDe24txtPtWqST0OeoveufLfxt1zd4lvSsLs2ON3XoK48VKaWhi6nKcPpWtXaaPNZ2schRmBYN0HHpUYSMpK7OWrWTlYxl1KC0DPcTxhskuOgAzx1r1m+WJw1HcP7a0/8A56Rf99CsvaI5+U5HT9Re80sTzRCPy0GEVQcD+dfUVVFnmuMaeho6X4ft2WTUXcl2jBKnj6cfTFc0HTi/eJU4PZmjcmG0REVGSXYCykjkYqaqjKTcdjtoSjexQ8L31rffEVY2t3jIsGaOUuMZHbrXh46jTktT6PCwlY1L/wAVTjUZLS3jmBMW0ZPy7q+Ix1JRqtRPeoL92i9Y/DW21ayh1C4bEmd0sjIduO4968r2k6bN1Bs1oNfTVXTw/p+IltpdnkIPvAqOfx/rUuvUnPQHFLRnR+IPDNvpOiwQRhd7KplAPQ4rW9S2pzzi3sbmlRzQpGzbTCsHyptPJxXPWjOSujWnZRSZzdlbyeFviCmrWcagXhjSUlDwAS38zWmClVhM648p754du5Xs7XUA43NGvmooIwcYNfTUvZzjeT1MK6udY90L6yeVYyMAfL6cVvpBaHm2UZalG3lNxIPqNuaUa1W+mwS1d0dIG32ygoC2K9KhUi17wrMgjCLKVk4J7YrrvQte4hsy7JCtS6kFsAkQPm5xXDU9rKo2tgLzkMm5X4px9qgMLxbciCx83cu1TksOtb06yi/eMaiPlT4vTWkvii5uLm1lk38LIJD1wPSu1PD1lozyq9RROXNvd2WnC7t7wDzDhkdsEfn1rSGCqJ3itDz51NbmXfaYuqPJKnkursBKCfvYAHX8Kuphq1tETGrCT3Iv+Eak/wCfe3/77H+Ncv1TE9jUz9BhAsUvdUs1IMWP3EZO459BX0FSUvaNHlV4mzpqWM06xQOVyMSeb1VcdRVwpqW5zU4+8eeak2u+HNbl0q41u6nXUL3Nq7LuMMfQ9PfP4VlipxoQPWwtFudzvtQ+HdxDp9jq9lK/2hFKq2QDICSa+Ix+YLmaR9VQp8sTovD+k2V0VkurcBoxySOpFeDVqOq7no0pWVjR8SXk76PJYWEQDEYRVYg/4Vw1KfMdUZFv4OeBrayP269tiLkybg7Nnbz+tOlSikRN3kb/AIxsTqGtpb2zY+TLZbH86yxEnGOhJainm0vELSb8oAuR7CvKl7eb0AydasrvWBIqF1ZF3Iy46+lXSpYqLOiB638INWTUdAisZ3LSRx4JYHJIJzX1OXybprm3IqdTvtKlSO1lt5ByRwD3r2nCMonm1dzJVkGoDa+AW4FEIRSsKHwnV2ykQKCe3rXTFRKIL1mD7VH41T3Ie4xX3DlsmkIehCtkmrWwExnXyiqmmBy3jW8SG1KshIdCGPoahwTdyZxvA+WfiDfwv4hubaV2/dy9M9OAa7sJTjc8PFQ1MHUVjvokMRL7FJiLnhD6e9e7GahGx50ldWEtrmAW32e4tkR8fKVU4Y96xnVRnGm4u4vmt/zwj/MVn7Q25jkvg3rn9ueAdKu2iJubnS4JjKGJXDID24717DhHms9zkxEoxlys6J7RbUkxKqykjajfxcZ61lVvRV2Y0YOT0OTttPu/EXxJLSApDbKNxUgjOBnH418lm2NvdJn0mCpWirnrt3JHpunWupOd8EDKAh9PWvh5yqVaup9BCHu6GV4t8QwpMsWgRZZiCyKOmef60pVYwqcjGk0zb8A6Re6ugvL1cJ23EdjitoQ9psaxnY7a00x7EqVUKOxB61z1IVYVWraGl76jJoXbxALu5t1ZfKwuexxUVIc61Ara9cyNOsuwcDB2jiuRc1KW2hapykroi025UfM8igt1U1c8dRSsjeMZI6vwDf3GnaorRzKEc8AGtsLiXKWhnUT1PV4pS5WQdWXmvo6dSXIebVTuZGpq9jeLM3BJzjPaolXtKwoJ8p1OmzPdWMc7EgsvSuiFZsqzGXcU5ZmWXArphWi1ruQ07kVncorhJELc/eA610RTnsKzLcoDSEomB2FaqnPYRE+9Q3HFOVOcdwOU8dSTmyfa2AuTyO2K55c7loVKUVA+XvE7QS61dX0yo+6Y5Y98cV2YX2sXqeLirNmZcFZgAsYjj/hI716LrrZnlKSU9So0N2LkuZt0KjiMDkVm3KWxtNwkvdIvt0P/AD4SfkaXLU7HPyyPNv2RfEkV58A/DN2mV3aQsBw2cOuVI4+lfXSglNyZz4qnzVmdH478SXWi6adRjlMxjiJiTofxzXm4+rFwsb4Sldmv+z54Y1LUdPuPFWp+Zm5YFUZDwK+FzNx1PpsLSaSOx8d38Gm6DPZQDfLMnlLGDyP9qvkXNqpoeulyxKfgzwpfam9rfyEoAgD7ud2OP6V0fXsHD3J/EZHqWh29pY2v2Y2xYfwRqMY9al4hT/hgXZEvpZQEtmCjHHpUOVRr3jaHwkWpzvHNGETLAfPWEpSKKUsq3W7cFwPVgKmdnS1OmnK0TKnmIvFRdoUnrjNef7FSkXznU+GLJRqUUkEvzZGSOlerhKKjZmc3c9cs5Jjaoc7mC8mvpcPFTjY86sUdQYzXPmyngJjn1rocKUHZoUPhOl8Nzi5tAQflVcCtFUoRKJb22aaLBbaRQ4wn7yIe5mi9ktbgRswAzxUut7PYRpfaHkO4sCT6GuqhX5tSHuDtmI5PJrtm+ZCOK+KAnGjTtFKyssZIBHBFca+Iip8J8y61F/pklxJFudWO5QMA5rupnj4jcyNRe4IWOCL5Qcthhx3rX2d9TyanxCSXlvDCAnmbiOWxj9KuKsawIPtB/wCez/lV3ZofPn/BOSa88TfA+C0R2CadqMiKh7Lkk8/jX0GKq8kbhVoTc2elfEO0uNU8T/2LHIphjQCSJerHjv0r4/GY5c1rnThqTg9T1jRL6Dw94UtFA2ny1Cx78EgDHavjswxnPVcUz6LDzpRirsgsPDUmva5HesrmNm3MC2QOa4qFKUpXZ0zqQktGekaN4btLGJZS7AgcBelFfK8LUquo3qZLY0Y2aOULEmBnhzzmiNKFH4RmrGkuP3tyzZHRRWylTa97c1i1ylHVLBzJuSM8DnLDNRKNNmlrmBKzJnESkknOa8nGSlTk10NEpJFNCz3vl/Z8IpGGHSuKjXUpD947LweYftsQZuc9xXsU6tkl1E3ZanqFtewW0HDZO3pg17uAlVvqcVVN7GTfySX1zu3bcHoK976vTnDmkTHSJ0/hFyLFgvaud4WnN6Mo0Jk8xS2/BI6Vm1Km/ZkPcxdQRbabe8e4nqfSolTk9WIlspBJIAshx2q6EZqRlKSTNFiqp5e7Jr2IqXKLmicH8aL8W+gzxqsjsYivy8bTUKhUlK6RnUnFRPmy+N5BbEXR372+XLDJ5rrjSnBanjV6sHIoXSXEsewosaKOMHLfpXbTSdNHnyjKUrozriGZJSokbO3coYckVE6cnsaRTRS/tW59f0rP2U+xZ5v/AMEuPBQ0D4BRalcS+bLqeozXEURIICn5UHtkLnn1rpzL2spNI7ZfEzb8XafqelfELUNTe9BY6h8ybSAinHHNfE4nC4iczWJ6ppOlvrltbTLMknyg7TXnVKMKUrT3O2nsjv8Aw7AmlQBZIkX5cHjpWbxVKmdUNjatJVnh3xvuXP3se9axlGsuY2WxbtrUyMDt4HStFh1IZe2sm3cpH4VEsLFFrYi1mOYwedAmQF+btUOlFG8TiZ5G81mdmALehrwcwjeo0jYbFPLHcI0Mm9GPC7cV5lGk4zuB1mmM0dzbsR5ZdgMZr38PCDSbMp7npdgEhs97NuyvJ9K9vDzUNjmkUbgiJiVbPPFdzxL5eUhbHQeC7hjbOjnGelTGvKLuM2vlX95uzntRGftKrkQ9zL8RHzEEige/NdUvhEVNJmxIAWGfrUUZWmYyjeRsFw3O4fnXrKa5SeQ4j4yTRjw5c73UAYAPviohiHGdjnrq0T5m1iGWSXEsuPnwK6Z1XKJ4FT4yEwpCrbrjDk9xmrpVHyFLYh1K3N0FkjkDMseNw4zWntJDM3+zpP8An3H6Ue1kB49/wS78XX3/AApaO0uFyq6k0cEjHgKrsPw4Fb5nKtTquy0OxyTkz2T4h+HJtc168SKWMfaGEyAIc7QACf0rwI15ylsbwTZtfDW/jSIQSRfPAnzt7djj6Vw4vASq1HUkdcJKO51lxqz3LRiNuvoDzXmywFBvc6ITjY39Fv3EBi2/SsHQnSnyQ2N1KNjXstSKziMjA4xXZHmpr3i1rsast2UC7iB+GaHUU1dGiTsGtQzf2eJTJtJGcY6159ecom8UziNXM6zSHaAPLOOP4q8OrP2lVmvWxWs5VYxM45UZJ96iUOVXHys2bTU1uNUtrcoT+9BBHpWEMTNVeVGVSLR6xaWrmxyoIRh8tfTYNVZR1OVu70Kl1AY5dynI969SFCfNdkfDozd8INvyMYPpV1YxtYLo3SjNHgDpTw1Kb2Je5j68w8sgJn8a7ZwlGOojLsvKSQBuGPbdXNBS57js2rmzHcR/ZQjJ0OM5r0FUVhXseS/tHazPZWYs7WbhpFMgDdOBWMJw9rqcWJi3Fs8YlDPGGlH/AC03An0r2IKDifO1XaepmazI8amR2wu77wOf5V1U6cXEFKNiqks6RqYG3+vOP51cqcY7j5okv22b+4PzrO9IOaJ5Z+yT4Dj+F/wut/DiKT9nneS5d/k3sxZsjOP72PwrvzGDnJolV1zHqOmeI7O+1+OWOYyRGLyzOjZUdiPwOR+FfOqhyTudtLEIq6bKmk+LrlY9QdlkXkA8dBisMTN8zib+1u7nW6R4ns5JxEhJYJ95lNeXKlO9zeFXQ6Dw1qrTuIhPuOSc9O/vUuDTudVOeh01qGkcBjg9qzqLnOqMjSJvEKRF+M8ZrGNOSRoqlmaXiW6uF0dTGm4KvJFcOLhKxvCqcPNLdXbGJxt+tefCjFLmZop3ZWkt/JYxNPkr/Dj8etZVVzKyN4yLfha3vJ9ctbi0UtGtyA2OcDv+uanDYLmnzGVeeh7bbTTeV5RkA444r6WlTlThoeepe8Ry25Zg0nT1q/bTTsVJ3kafhkxRXhQNwelbRTluSbVwzxqoUj5/eu6kuSIGRrOJQVjIJ9qKlVSAxirR3qF4jj1zWCUh81kW5ZZJIxHEcDcSTnpT5ZmMpnz78bdWudQ18Wpvl8sTbWx1BrSjSbqXZ5+JrNRscVqr/ZlEbXe9AOOcmvaguWJ85WlKUyuBbSxLGV++uST2rroS90qF+Up2MJgnmaaXKNwp/CrrT0KGfZo/+ev6Vw8wHE6VqskE8mnLK4LcxyBMjnkcH2r3sVODqs8z2j5zagn060t1tLWSSLPMspTaMnk9OK82rydDupSk0JI8Ntq6ajHcfu1AyzNnPFeVKMXXdztUmlqXm8QzvqUcthHuUoQ+zoK6Hh4TjoaQrxvueq/DXw9D4uszJaXeydcDA9a462BrOPuo9GlVjyo7ib4e+ItHMayyuW2bhkdRXnfU8RGXvI7IVETNZ65aBEayeRmON3GDXbDC2hdoJVPeLu28uLP7HPbNkKdy45rgxdCDNYzOE1/UZLSQwXFpLCFYhXaFhu/SvkcXSxMarUFodUJXRVdotSsWVYJvNz1Py5H44pYfD4i/vI6I1Ejvvg34UuRE0qS7YopAzB+frXtYfD1FLRaHPXrw2uejFI2nIjXA9K96lh+aJwqa5h0ls5IG3g9DkUSw9OG50KSaJ7C2EF/vL7QB61jyxv7o7otazfx2GnmRzlznbzWk3anbqF0Y9jcSXQDclT6muNN82onOKG6m6rOI+mB8pxXrUIwlTTM3NSehyviPxPPpOk3MKycySfK2enFaONMwndbngetXN5qHiWe4nkWSMzAgEZxgAH9aqEYKV0cNdxkjOv4oSzztESgBACjPf0rttzLQ8xwgpajnmaOKFo7aPbt6k1dOM4rUym4qWhVvFadgoUKeoC9DRWba0JuiPbJ/c/WuLkmF0cPAkk7g2tuyquRkjmvppwVT3jyrWkXIo53sTBmdmXJKhBjGT61zSoI6oT5S1a2Uk9pJbz242YGNwweRXLLCKU7nU6ydMu6Tok2iwPBHhGPKgnOQea6qeHUTOnV9419A8Taj4S1AajpGqOp8vY8Snoc5ziueveM2kdsa6TPdfh/+174MksrPSPiDcJBd5EReVlG4diM+2K4KkZSZ3Uq6PV7+Pw74qtbKfw1dhhI4ZVXGcEZGfw5qLWhY6VUvqMsrHR7S+ktNUgPmq+IzjBJrzq9PmN4yHeJvh9o+tJslClgASsig447YrlWCjN3Z0RqaGEvwf0K0Y3EccjAEEeYRzXRHAQH7Q2rWystKtCtvbrEpHO1etaqhGnoYTd5XH2f74iQjmjncSB93OsLFS2P7tZ1ZOSuzpp/CULa/a7vHjkm2iPHOevFc9P4iyj4jvJtRuI7S3n3KjDJB610uCkyZSsa1hCI4lVMZ28ZprDqRzTkZ/iLVBZhFwM4IcntWitT90IS1PLPHerMJmsXGV35DA9QRn+tWo3FXloecywtCZ1lnRY5WJB/iWtIqzPPk7o5nVGuprq1j0bU9qrNiYtz5i555/T8K7aZw1Cy8DKXhmuMKpOEzz616UYRdO5zPchFxJBMq+U3l9ia8+vFp6CJ/Nf8AuD/voVy2mBz76YlrIZbefKt0CkV9BFyUTgauXdNiuVjKDGWbADYzt71nNyJakbFlpA1CLEgUbTywI5x0ojOyszojTqyp6IfMHWQKtsrBRjcRT5pPYzjTqQephatrNtpCSzSaaGaWYAunXbgCp9nzu7NuWputjyj9obR73WfDthqel4EyanmTc2HCbeGzVOhGK1OqlNof8Cv24Piv8JNVhsfEOrjWNMspQv2a4fBRc9VZck4968TFVKca7ij0adRctmffvwq/aJ+E/wAdLCG80bXYvtRiDypKSrqx7HcB06fSub3ZbHdB32PRbVWIAguAxI+VlOc/lWcoVU7paFtyQ+4nuNPUC8XPfcehpe1lDcnnZmapqJuYn8uL5cjBFZOVScrrY0i+ZDLFjECxOAoGSTW0eT7RXKyDU7+1mXbg/wB0NgjJrKqk/hOiGisZuhxXZEr+UGTcQBtyetcsfcepTajuWbPQZJb0yzx+WVOduaUq16mhzzlzPQ0rhVVgVbDAfdHavQotsydOb2OJ8Yw3d7M1vLOQFbCgd+PUVlVbVZiUKkXqjjfEWn21pAJ72UKQCMMc13UIuSM60tDyL4t6R461vR5f+EF8Vpp0yqfLEsCssh9B/wDXoqLknqcjdo2MPwVoviLTbeG88X6zFe3UUeHWKPYpb27VrSr077nFUaNS7uLT7Ul0JVV1zwW4aup4mMOuhjySeqLGnXUV7Hv3rLliMDsfrW9KpQq9SWmiX7Kn/Pqf++xXT7GkTdHJyLeQqikq+4nJj7c1svgOS1jQtFELoTMxAHJbrWM9wNPSrmKO4BEudx5FJRbVztpStTSNLUhDJJttbtdoHzR9xxUt8omuY5bWIUhu+H3I/wDCR0qYVVzg3ywscZ4709dWdY7mVUjXlQGAywHAIrqm+ZGVOWp8++MkFprF15C228Er5cXTNcMqFGUry3OxN3uVNJ8S+MvDESahouv3NjdKwIa1lIJ9M1ahhonZTrOJ7n8Mv+Cgn7Rvw8s4ILuSHVoiMPvYhyM981w4hRc3y7HVGrzHvfgf/gq74WmtIl+JHgy5sZmuFRmRt4HHXAz9a86pRcjVRud9P/wUj/ZwlzNN4ikRY+rNCwJ/AL26fhW9PD2pmi92J2/g39ob4c+P9E/t3wzqqXltK2EckqSfTkConQZLrJGN8Rv2rfhV8OdHfUfFrTRQqAYljG4A9OwPetIYRuBksUvaWOGn/wCCpf7OPhaNJYL2Z2Iw0QByM9eMUnlzfQ6J1rxJrL/gqj+zjfRh7TU5TKwLOroykc+6isZZc4u5zqokzP8AFf8AwU2+EyQs+i6kqMyZX5SxPHsDiodKpTOiFU890/8AbnvvG+vWtjptlK7TXOIQBgOO/PQfjXO4TlUuKdXQ9NvNY1PxJbo0s8kWRuMZUEjPNehRcoo4atVGJrtrK0Yhkdsr3C9fyrWpHnOV1LnP32mM0qYldWP8BHFZRocjuZNcxHqlhA6G3uYkwwGSB04rp9kpRMZTcPdIrG3ksY1jsrchA+QB6VMISpO6MnzSL3mXP9xvyrb28yeSZzt5pSWsxWCEMhOVPm/4V7apy5DnlKKkQreWtuy2vkuzHoFbNYVIu4LXY2PD97ZAOGsHEi/eLdRQqtOMbN6msLl9klktzNBsPXccHcPrXLOXNsdcLGNfQ7j54Ytgda405Rq6mdaLk9DhPGdtc30MsqRYZHyMc5GK71iKfLuc8KVSLu0eHeMLO4ttTa4fTkKliXYjB/WnF0Kul9T1qTpKCTepz5vXuJfmtShVuM85/KnUwllc3UYy2NZrx76NJXk8vYOicHivPmoqTQK8WK8tvqETpcalsKsGjWdByQMdT1qo01I76U49WYus28203McsbkthlES9PXmtfaUYLlb1CpJPY+o/2QtSNj8HLNJ9QiSX7bPkMCDje+OB7YpNRnseTiK6p7lT9rJrZ/ArJflJWaJfnD5BOcjjr0xXpYegnTVzgp1nUq3Wx8S+IDc2l6xks48PISrBcnGeP0rrjCjHc9iPO4jIJr6C5WJbx1Dx/Kiy7f6VlOlCUroi0rmkNQ2RARAzs0e0mRuh+vU1i8HTluaRk0e1/sg+Hr288f6X9osYhBA7XErJC0hJxgDJNeTiKVGnWaCcmfbsc97axCWS7jkidRwiBWX2wDjjpUp0V1OGpzNlDUr9rOcGAEo2OHOSKqKi5XWxz8zi7MhvW0+6cTS7sgcsnStqig1odVNplGXSoXLSGYeoDOM/zrjjzxnrsRNR5ypbvG0zos5AHQA12N0nHUuPsVuS4m/56PWfLTNb4fuc2XaNkyc9sDmvflNJ2Pl+fXUrXaXNuWubeDEpPAxgj86xlG5tGRoaLcXNri8uX/eAfMrc5rnnRW4nVcZWNlPMltpZ1cqSpIKjgHtn1rhq3jsbQrs5DQbHxsdYvJvGzae+nk/6H9jLLLjH8QPHXNZKDmrnRGfMrlDxHGZIikaPGjNtRyRz+VP2LK5jxz42aZd22m/braVXUNiRiQMduprSjBwqXLhI8vjZ5mRZZ2iA54Oc/lXdUrLksd9KWhpwQGcZhnLbOue9cXIpalSl7xK5Mg8i4t43yPlWQZx9CKwlNx2NYyMPxBdXOlKGjti6Oex+YAcVcKPtfeZbnqfS37LVlJc/De31MCdVFzIERo+pJNdtKlGKPKxseZHM/tV6tcW0KRMGO1AGDsB/CO1enS0gjkwqtI+Wb+eY6hKJ7lXG7Kp6cVnM9+HwIiWOOeZZCDvHQA0RkkrCNW1Q6dGGkgXGcqWGafOgPe/2Sb+G58Usxd0lFvlVhcgYzjnFeViacZ1WzKcrM+srIzpGY7sKMAYCNx096x9jE5pyHalGJEM0kg2AD5AckcUmlHQwcbu5RW7aKN7eEbS397vSNIysVLy3aKSN1jkOfvc1D3Jk7u4Qi0j3SQxEMOrUhEf9qD/nqfyP+FAHPjU7e6lMSh1ZerhSP516/Pd3PCnCTn7pYLz/AGN5N7OOzMMmt4VILcuMJofavJJbGWVTnvxUVFOTvHY09mdBYXDvapHEwKFfm9RzXLOC+0bwpoy/EH2d8wP8r9QwPWo56UFY05Wjm9RRLePzbktIiqSFPTd9KqM6cnoFmecfFK0tPEHh68gbT90Uab5YVIXHHXJxSkleyBSs7Hhc9l5RCK2MfdXd0Hb9K5pqaO+lJFm2MkFvgMdzVmnPoatScroluQFUs/m+Zxjb0NWop7m8Kc2Yev211PJlSNirxljuB/CtlVhBWuRK8J6n1R+yW8cXwkSe7DvHHfPtzLwuBzx+NHtr7HPWakjzf9sDWriPVEtXtEbzB8xXnAwBXpUK0FTV2c1KnKM7nzhNFPHOzNAmCcg0SqRZ7NNrlJYYpZwDHEBtPzEdqzchNWLyq5XZJKWAIwh6VLqJAe8fsXGxTxpdTzMq/wChhQvYEN/k1w1qj9o7HNUjJy0PrFbuC6kVWxsUEl1Oc+nSsvaSOWUZEME949wyIsXktnr94UlLmZrCPuAsVvHOVu2LYPyHHSrcXHcznTm9gvWmJSRJQ6dAMYrFu4lCSWpmXAvLgGSGIogbHA71LlFD5ZEflT/3T+VL2kQ5JGHcfao1WMR4VDtOepNestjhdGwsN/cvKBanan/LUEUyGrE73huJVhhu0jRvvKxxiuynrTSHFxNDTpobVlAuwxJ+ZhkhqwqU+Y6IOJrXNjZ3sKPBZ8hxl8j7uOT+dcVWi0a2ja5yOt2Lw3giuFO1mbHGeM8VnSXLI5qja2OA8eaS8sM8UjbIZU2kDv2rqteZMIt6s+fPENk2m6w9upZdshXYfbiprx0O+lEVbySOXy44t5GMjHSuWKsjrUbE08ryRqsxbb6CqNFU5TO1K7gtsQwRu28jGUP8646krVGRP3nc+kP2Vg2o/DyXR7bOIbqR7uMHltwG3/D8KuMjmnA84/ai1IXHiR7JIyrwFlkBGfcfpivQo600THQ8KuZjPOfKgIUHoa1O+lsWrdIordmnmEYboMZ/lVfZLluMEtqsmILkSEdeCKwnuSfRf7ECx382pwyou75SCIslV6dfrXDVklMh7n0tatHbtIijIxgYX047Vnzo5pkWnzx/bXgIJI5yePet6bilcqHwkt+RcWryW8u3n5ARj2NaynGSsUVxZG4Ebfa2xG2Ww2BXO1ZkPcYuoLAxbzztWQ4Geo9a5piK+6P/AJ/pP++TWYGBrOl6hDFHbT2xaR5C24uRkZr6FQkjllXw+1yjpsV/bXElui7UyduT/jT5ZHFUlGWw9LmYXYW4I2xgk4QHiumndRszhk6qnoaenavA1y0aWp2HGw49q0917lqdVG9pNzcQYkjlHyHCxscZzXNXlT2NoVp3sJ4itJjdLGkYZnTII9x61510pHfBRt7x5tr2hrczXCXUPnPxsBcjbg/lXXSnFhKVNS02Pnj4gafa6f4iuZL6JhiZmBV8jBPHv0q6i51odlGpTfUw4xC8wlieUA849q43CSdjdzgX3FvjdHIzDH8QNLlkZSUnsUrljcSrFCGJPQDoPxrhrUKrqNpHRSi/Z6nvH7GepRx2Gs29vc/vTJGDnkn8O1XDD1uxnUXLucf8erG7vvGt/eSwsF884OzOSAB/SvSo05xppM5faQ5jxjUYJIbhjJb7SW4GKt6bnfRaaKb26zgSsjE9xRzxtY0luQzW0McizRAqScE//WrGTTZJ9JfsU6dHCdQumadZmgG1o2wr4Y9c+1ebXUvaOxlKSTPpkzyB8nyxvAK7BweKytMxactipdxW5cNMrlnb5jGfu4oqOpGndFRTSsT3ckqxCRJVMZHyoynPFcUMS1LUZDuSSy3GPaWBztPvXfHEU3pch7lUWtt9mWOC0LuGO59wGefeplJMRZ8mD/nmKzugK+qTmTcUBcxNtDEZOa+kVS6ueROi1I5rWDdlftEcgCx53r0xT5zJrlM6Oe5mQvHDyWweR92rU9DaEIyjcNO1TWbGdlSzyOcfMDgU+cr2cTe8O65BqeYLpCJC2M89a5KzvIunQjzXNrUZm0+PzUdnCrhU3DiuSR1ThFROF1SaeY3RMBQAfKSwzyM1VNtROGe586fGS0jstc80SlhMh3cdK6oykb4bc5KylEMgAZyCBnBxilLc7X8RozeX5a/ZnZxjnceKRtDYgmEsw2wMq7RjIGB+tQ9zohsey/sVSiz1fV9OQRO5iR956k5reBhiNhP2htJuG1q4SEEM8jMXEnX8K2+yeRzWnY8M1XQr+xuPPkk3gHJJasJ7np0J6GY5u133IUbc1nytnU9SjcyM048xNrEg59qORgfUX7G4totAudTaVmLXqQj5CVI2g15eI5lVaMpwu7n0DeLNczAxR4UDA2jAx2rC8jJyUSsC1kWEkijP3S7CtdZU7E85HiZ2Vbi9GC2AQK4pYdp3DnLFxai2T9zOJM/eAPStqVFOWoXuQQFo+QDg9Dg16EqEeUCX97/dP5Vj7BAWbuzFrbSmzYSM43bT2P4130qnubmdWmjl9UlnjIt2tkORmQt2Na81zzKsJXMBtStv7QFhc3EcY6qoPUVan0Ob23J7rL0M8ayK9iAydOBkZ+tOU+Valqq2Lpsr2uqmcptDSgsf4RwB16Vm056o6qVRpGvqUbXM0kkdxuXg8HjpWLo1H0LqynJe6c7r8SJbSrvxkdfwrroULU9TGMJuOp8+fGSwSTUUZZjt8s4JQ11KFNHZh6U0zhY4lOEaTnpkA1xVpRU2dbhLmNW305LOICeTDEdDzXP7elfc3hCVitqsUKRqUmKt3BPFVdPU2gmtD1r9j1bmfxXfwxvEpWyDnA7bjzW1OSZhiVZHR/G+Sxg1iVppV3yIcMAcV2eynyXPCkpe1PCfFgkSFk3Bm65Fc0ots9KgnY5KK5e2ZRcjCEnOee9OMeh6EU7EV/KLy6BhtdwK7QwI61bptLUV7H1Z+xnpd3ZeAje+XuJvyVgOOoGK86tTjKo2S6lO1rnuFxqQVfK8qRW2gkAdCRms/ZROOo77GekqyTFdQkfbn92NgOKhU5Kd+hCU7FlJoLBvOuYzMHkGcjGBjFaTjG2g7TJLq6023UPFFtLEnk571yKE1M0V0tSOa4t7g5hkYnrheK6vfaGR7pP7sv5VHJU7AbNzan7K+5lACbty9cVrFWQTdzi9XSSGeW0ggkk89d3mNxgY9TXRE4Ku5zGpaHPbqx3DMg2q2FJU/nXRCKcjzKlO8myxYyXlraRWMVwMhvnO3r611Sw6lE5pOcXoTCfYjoLcFA2cB+SfXniuGSdOXKjelUly6mhZa3JNbHzZg7dCxAXjsPy4qeaR1RqSK/iIW91DE0UP3VPmuDWEsTOM+UpVHzHgnx0kkLxRllVUVgAPc5rrpVHI7qVRnn+jXURheL7N+87E1dWkpxudsJ3Ra8yeVds7ZbtzXBGgrnRGRn3okaZkmhJ2YyQfau1UoqnYpT949j/Yzi2+KtVZ4wG+wqFHmDlc/Wqo00mc2JnobHx4it01WaWSNx8h2gqeK7a0nCFkePe9Q8F8QXF0FMKR7tp+Y7h35615LqS5j08PsZIit5lZZoTyOp6VtTneR6C2KBt5LGc+VKNu3KfXNb1Z+6ZSPsH9mYWY8C2UdqXM/wA0kwQ8Z5A+teHXrNVWjmcbs9eN2HhRnAEmwBg3UEDFY+3YuQgme3kUvIihl6vkfyrCWKmp2QWsIjRXUflS/Pg+mP5110qjmtQH30dg0ahfMXA5UbeKxqVZRqtAVpbRJVSezkZQOrMOf0rto1YtagSec3/QQH/fB/wrq9pADotTspvsg+whDvYZUjotc8ZKTsieljm/F+iTSWTyxuySpHhQpG010qLSuzir+7ucdFLcxw+TeQoX3DOR7VVPnc7rY5lZq5ja2b6GUWsTBfNYkFf4ea9OM24k82GXxMt6QLmQeXKpbjGQM5rmnKlze9uPkpvWOxPdaVcC3dViYJJIAzg9KSdFmkFA1tW0gDRjDA+wxxZY9Swriq+w9o9TTkimfP3xx03UJUha3CLHkld45NJTgtjspqCPOdOtH81pJmAc8HbVyxUIws2W7c2g+S8itZnglQlh0PrXNCrzS0NoXZVMtzPcqCuyNz+8z3ronWsrBzpSseqfst6pHp3xEnsNKg+eWwILS8gkHJx+FKliFF6nPiJXWhufHW/uJ9TmidpGaWMkkkDcMcY/CvchT9vh1OJ5sWnOx4jqzxW1uIURgpPCMOffmvPnh+SWp61BNIy764tmiRLYkEjo3Sudrln5HapKxSZN06vL+8iGPlVSMc05zjYzbufZH7OUVnZ+CLKSELCXjIEePmHzHvXkVXF1HchOx6SyBnIeJnbudwojRcth3RUuI7WQllyjZ9etN4XqzKW5LITOhbdtCAAkVk3GmSDyWnkIZ5Pm5z781m6lKWtyXJIfva6U/ZZxCAOQe9ZuVT7Ic0Sr5U3qv/fYqebE9g5ondfaozEsS8lVAPFe7RhFasV/eM3XlS7t2CR4JH3q7LxkrGWIp80TzXXovsV4zyXuVLcKEP8AhVRXLoeVLmg+Uzrie0ldsxhpOMDPsK6YbE+yUtyaCBbWBZ7e7MTnO9Ca6oxw3JeW45NwhZC3OsRRWyJcysiGXO7Of5Vy1auHhsY06kuY0Le/maxldWJB4DHnK14tflnVco7HpQbcTwr9oG6uWuLcSXIRSSUJGAwzThA6oHmdvdkSbDHlz05xmun6tGcLs1W4s13d7D/okYCH5icE0UaNOLOiGxWu57mdliWIDI4YcCssRFKq7Gbjeodr+zrfx6X8VtLiuJX/AHqyIRn72RxWPKZ1oux3HxsbT5dUa8u4pUESFNo/hI47delezh8S6eGUTzYQ/eniWvypc3Q8yKQKP4gRXLWxDkevF8sTHu44rO4TbGWXsSeayT5o3NYu6uULyaRrpT5IVHkAX5j2x6VjIZ9j/BaJrTwlp7CLhrUMuG4zk+teVXaVVkPc9NtbpZSlxE+1mX94pHesliZREQ3ZDSmN4QqA9jz+dbwxMpLUh7htsAixxSyYI+cFxxWipqoIjNvbSDq2P4Se9ZSw1pEON2PRFitvKk4HOR3pqFhchB9n03/a/wC+qvlDkO+uIlAJiBJ3HOB713VYVYQvYIpudzL1eKaYCKOQrgcDaawoVpuVjafLJHnnjWGWxPnTKd7noRXrw2uefVhTUtTmY9QtYZ2uXA3Ajcd3t6VtGpFLU4aja2LceqLdGRpSjAqPKB7cVz1HzS0ZpGm50rlC0nubucpeyRNGpOFrJ0YS3YoYdpl6w1R4Ztt25SF1O1FbgY4rGVNRlZHTa2h418e7qWfVoXABtgCiCXnB9sdK0jZbnRA4G3t4op1laMhQOd7jNVOc+S0TRNJl5Wt57KWKCLBzw571wOdeLN4SVjM1Zbb7IB5rksOZF7YreNRSV29Sk485qfCPUYIfG+lTtbTOYboKH3AYz9atWYqyTR3fxt1NptflthLIYS2SOnUA11Rg3A4IxtK55LrFzsutiTnGeImHI/GspRS3OpttWRm3+yScXDvtGOFpXWyNqUZKGpTjSe6uTDG2W5ZFA59Kwm1Hc0sz7N+GFuLbwnpemQLM0psot7tEwUHaM9q8Wu+es2iGnc9I+yPFZpJcAJgAEgcVvToc+4rMr3FkZDsa4ypGRg80p+ypz5WS4u5FbaXaIWlWRsDrniqjWitiHoTLaNJIsJYeWpyvPSu6nOnKBSSaJrvTYZ7tGGpRuYhjZuxu4z3rCrOER2RXxp3qn/fxf8a5/rFLuFkdTeeIbWPLJKwUtgbTXficQ3GxLSjoUL3WUkeLynYl88Z9DivLp1JRmI474g2sFygvprtwn9wdq96hiIypq5xVo3m2eeX4t4rgRxsil+7tk10qUGcc4FzS4BJo1z57guT8rg8fhUStcFNxVivZX1pb3ItpLY+ay5DBsgj14pD9pIffzwNA5dwuVyTu+7Vxgmrm0W2rnk/xQ1KC4hhWWMrtmwJCDzVciOqBykJER33CI+WPzE9ea0VOLgXy3ZYmWS4jMMcSRqo6hwOvPrXFVpxudEImXeR+S/kkbgvqPxrjaSkwUffLfhy5NldC6jPlhZlYNjoRW0TWpHQ6T4sa0dSaO6lkKt5abirDn5RXbGdo2OLk1PMLuZZrwzSSnAHU9elQ1zHRCJQnlmlbalxxngGpULM6I6It+Honm1aFSHYrKoJQckZzXNiY6DPtHwJqrNY2cMJAVLdAEkyGHA614c/dqEPc7yGe81B0tDGWiA428iuinXSQhJbZreZDFCwIJDZ7USgqsuYCRUUuRcfMDy4FaQoo55kdqUM7xiFiv8CDkj8uldEKtKm+VlQ+EjS5gEoDAIN5zlQcdqxxOJo2KIv7Ptv+eo/74FeZ9ZogaktpHa/N5BLM4PLdsV6cnHqZSmrleewuPLa5hK7yxCkisJumthc0TnNa0m+ewkF5N5hJPyjtWcalVP3djGVpS0OB1jwnDcytcB5FKsBjB9BXo0qlVrU55xaEbT205/ssOoOY8fNGVOAa9OnGco3MVKl1ZT/sXVTcSXsMygKmFUEcVfs5Fr2bINUi1K804acyqZH+86j5vzqG5Rdi7JbHl3xNuJ2MFuqFooZMSE8EY6/WlzTOiBzdnNBcFjECfmyATj+dX7SSjY6YLQ0J5TLb7/JXJ+5jn+VclSUmdMEU7+WeeMm9VQUUEuOM/h1rmu1uUovmuPtEmn09RINqj5hjvzW0JxlsaTSkjD8R38usag0qzyeWNqlQ/TCgdPwrotJanL7KVyhqsSQQL5G4jHOetdNK09Eaxg0Z8YVyX2Z9SDVSShOzG9DQ8Gl38Z6dLAAyrdqHTJ6e/pXJXtJaAfY3hC4jWaJ1tlUsBu2uCCO36V4dbCV5zcktDKUkmdtcaheWzIlh5kabeAO3rXLLDYiPQXNEZY6nemR/tMzuD0BOK6aUKqhZod1a5asZmZthyBnjcf611xjU7GE2RXzaja3Tn7SFjYjylg+8RjnJ6dc1fsaDd5uzKh8JVubOWVxOl3hcjIFcuIpYRqyZRN9guP8An9P5GuH6vhu4HV3lpfTBVuIRnuVIxXrOCauYON2RFREGj84bVTIHfP0rnnTiLkKl7DEbfJQOWGeR1qUknYlR944bxkkVwFt0iaMRyZZkPWu6lsKtDQ5g6hKJJYpYlK5wuSA3517FH+Gjxaj5ajRDbJcTQSW8MbjB+bdyR+PetTSMhpiVM2zS7UEZLOOCW9KxlG8jqg7xPJ/islm9uxiheHa3V+ST+FTyHXA4GyVrSYySHcX75rKaszeMrGtZQ2zQ4infeuTjOB+tc0jojIzrxZ7nUQssrEFMH3NZTjdG8XdFifULgxCxtyQygLt2+1KhDUoxZdPhuJZTazFn3AE4xzjnrXe1K1kS3Yhmyu61lYOcYLZp03Km7hzGebZdPkdTICO3Oa3uqi5mS9Td+FOn2V940tE1C1mZJJwdsLBckeuaxlGIH1x4IsBBdKhZCF+7uGDj8a5Kk1HQxlG8jvp7SO5hj8+4ERUcBWFcFWqrk8hQjsNszQOCW/vbhzXE8Q1Kxooe6WIrFPJ8qIurrnLHkda2jiW0ZSiCOqlLa4lV2jzlgCAc896HV5ncIqysOitoZJyGZVzyfmFaxpwnuMTz4v8An+H/AHwf8K0+r0wOm1C9uRIFBIjA4bFZyqO+gKDaM+5t5J0Ro3IlKN5cvbqeKxk6jH7NkM1zNbwBblMfLgt70RdnZ7iVKSdzh/E1nH5j5uJPmORivRoptGVdqxyF/FaxyhXLSHPy+1etSklHlZ4FejUdRyS0LH27U7Cz/wBHiyy8KAudwrZ6K5EVJaGdq9yFDSzyM5K5+VT8pxWfPA76btGx438TLz7VeGzinlMp+ZsnC47Yz7Uc0DsgrnLWIv8AO25KDHQsvNYVNXoU07l1Fud/mFdwA3EKccVyyTRtC5Ye+tXiEkVpsYL161DlG1jshJKOpl2epXJu/wDSSFy/3iK1oQbZXNEoWclzbarOscfnFpN5TcB8vrzXrUqcGrsmUJtc1tCtqs5lDSR2hU7jlc5NFenBrQyvrYzm88kZiKnPJY157jVS02NUmkdr8HNDGoeNLT7dKI1hkEhkLEDH4VxznNPUTaR9U6Jrfm6sq2qYjG0AqARjA5ya5akpPULo7TUY386G6SdSQvCNxn+lcNSE3sF0QwT+XdAyyLkgng1ytcsveNE48pIdTeMlYoHfb95lOBzzVRq0l1MpK4Tz288SS+SVY/e3VopxeqM3F3F+128SbraAMQQC7VLq1VsKzJt8P96L8qn2+ICzNW3vLi3i8p8nr+6Kk7fxr1atJRnZGlN3iRX17JGpiiJV1TeEI6L3NYN8pZCLj7ZFGlxkZGVYjhqzTvK4pSsrGV4s0Q3sHmxBUKj5yGBz+VejRnY46keZnm19ZwWl3JKYpSN4UegOK7adS8zjrQshy3Pkwny5ZFLcEEZ/lXpNc0TgjD3jJ1t5raw822n27s5Drya53CzN0rM8Y+LmoSC/hV41XCEAqMHPWlyHfTOXsr6SdAwlLnHLNwaHHQ2Ubu5p2N9tjKv64J9qwlE3jEI9RjgZnZPlYkJx1rllD3zZR0MfX5Jbi582NdiJ1IPtXTTaiPlGWkU8lgb7zRId2AqA7lX1NE5Vr3Wxbk+XlRWWWeG5PlBzI/8Aq5JVxtH40oTqTe5zqlK9ylqcs5ZYmA3Zy5BH5+1damlHlZ0qL5T034A6Zp+o+LFuL+5PkwRAMnUSE89un4152KcY6mE4H0vo2i2VxDCLW5SMg8Kvpmvna7rTqtwehFrHV6lAZYYIRIp8tcFyp5rNUsUwKv2G6NwhQpgxkDjvmrU405cs9y1sXokksrF5JNu7vxXbT+rzWoyPyVuYo7i9kMe59oTaevpWroQb93Yh7jNQih85baEbQeCB6il7BCIv7MuP75/On7BAdM6y3EsVyEYoP9aQ68eneumbXLdk03ywsyHWZora4SdQDvTbycnFcE05u0TTmiVYNTtrmf7LJDtKDC5binGnOK1RlLmb0LFvpryWzfbLcBQTyrA55p+0UAUX1OY8aeHmktZXtbdduMqvGc16GFcpWl0OWulex57dWn2O4Zrrz+gxGrcZwM179OUXE4VB3KGsxz3VkDHbMoXO1GcE/wA6JQ6hJWdzxf42S3dvc29xPYlQx2kgZ/lWaSZ1UqkWzibeVSfNVwoz8wz0q/ZysdsXFI0kkQukCyc9eO/euaorbm8akF1NBLi3VTGLUvgenSuWTjc2jUpy0TMfXLtIraUhQOM8ntULXY1cbK7PU/2SfBum+LtNvdR8Q2kDWpbyombGdueW/PIrlxeMdGHJ1QUlCU9T1Lxr8EfhlNp8stvaxqyqFi7YwMZBPXpmvnHmuIpTueoqEJx908U8b/BwaHbz3GlWpljdPm+TO/8Awx0/Cu3D5vCrP3nqc1XDzp7o2v2ZDbrq0umz25G1MumwZOPc+lb42rUqQvE8+Tjc+gfCpgdpJLm3bzQ2EbjkduB7V59CtOEbSRhLRnW3NukVsk0uAMDvzXfTxtOK1M3KKJLaSBojbIoPGSx7UTp4fEz9pfcuMk0NiaG+uClxFgDv2FaRwi+yVdEN7bSTyLGHLeWd6nsce1W4yp+6S9xrRo16rXIVT1wKl1GhFjNv/wA9V/Ol7QDTS0iSLyIEYLznccfzraUuZWMlqZM8SyXf2afMbsdqF+mfr0rOMeV3GZ+heGNWg1+a4m1FGjzlUPoOK2WJop2kWtjqUz824gb8bQOAcVtGeFluMjvLW31OA2fklWxjfis3XjCpaGxM6Scbnn3xA8DxWEMs7xByv8Yfrx7V62GrRa1PKrpxOCigm8qZfIK7B97dkVrWxUY6Izu3T1PO/jNotzeeEJLlZwJo5QQpTqPr0rGlVUpDo/EePQWjlkwqhTy2eea7va+7Y9VRujU0y3QXQZiCwHQDiuWo7j5CaXVLdEaOSKUNk8qDivPk/wB40aU48rucp4xvJF0+RVLqGITLA5ya6FHlVzsUuZWPZPgtNqHhDwCNDt5SokAcyA5Iz83b6189jpc1Zndh6KcE2dFN4l1aUBJJZpMHnzHyhH+yO1eFXp8zPXoxjE6Pw34stb9JdKurfKCPH7xhxke/WuSjTlGvcqtTU0U/Amgxab4uvGiQLGy5hIXBYY556dc19NTnGULM8Srh1CVz1XQJkt54Y1RsEZO7k1SqYeOjPLqq1RnUsyXeJXBZkGAnY1opYaRxzIZlaEgPLsXP3a55ySqe7sa0/hLKXyC2WKGLaP7x4zW9PENFkVlLPFJO5UsFT5DnrXow5KlPmYE11LHrEaBIxhVwxUYbNcVZJPQCl/wjMH965/77rkA6YNa6nCHZpH25AKN0wcc/lXXShUj8RjHWJSvoreV/s91C7RoMpMTkBvTiumpG60KIbQXcl6GeMKBFgFehrzqmHV+aTLWwyVrnUJ/KiudgBG7npiuZ2WzGXG1z7EnkTMpC4DtXdRiuRX3JlKWxBqWl2muQNb+YDEf4ie5Ga3Uqq+E55Uubc828UeGTpl3JBbPiMn5ieMUnKq9zjrR5NDhvF/h2DXtCutISc7pBkOegNduGjUT1M6L94+fvEWl3fhrUG0u7kCvH0OOCK9C029D2IVI8oyxupRJsIyJMEuD0qZS5PiNlrsX7mWRoWVAoCjjiuJXniHJbBJpK3U4jX7m8vdZtrWZwYkkG5cda7q1uTQdF2ep614Z1ZrKWK4tpQBsVWQ9DxivmMVTn7Vs9anVilodXNd27xCOBRyM8e/Nefy8zsdUakuhUaRQVaQsrLyCoNaezpRjrubKrJbnQeGvErLh2WSR0kEYIPAB5rCU5R2OLFT5l7p6b4b1q8KGFoA823K7SPu5qI0Z1Zcx4VSVp+8dnYao1hADLFksoPPau+GH5F7zOWTGyyQamvzTbXBztwc1anRvyp6m9NPlFMcyRokkEjY+6COBWkopK5dmSyLf7MSSKF9FGKlTr7R2K5JNDbeS2tZVnlneNSDuGeAa1Sm/iJcWhf7fsP+fx/wBavkQWZ0gtFRvMQqm/O1Lc4/PNdntIqOpxtyRVv7m5W3eKYKFj+YBRwRXLUrW0QryKNvrVhqKvE021lACorYJ4qJS54HTTvykN1GsZAtoHGV3c9cd65o0+aRY2NoBD5d1bu4bn7p5rRycJWIe4+xL3N15VnEyKFyuDnkeuOlawqSEQ+J9MinXF1sJK8goc5xXTG71OatTvqebeJdHXR5vkgwrZ4xXXCfKcUI2Z4j+0D4Ji1G1TxLpyv51u371MYUr6+9elRlzI7Iy1PM7e7uBtCxrn/ZPFTiKfNE76Uixd3t2qjD4Zhylc1KnZ2KkuaVzE1GJ5JlukIWQHMnvXRUg+U1hA6Tw14itzbLHOwQg4GT15ryq9HmR30Yqx6L4akS7hEaj95syD1GPrXj1KLpyuelSUTQktZo1KTuN4+9jnr06e1cVSd5k1PiHabd/2TdkI4BkGTnuR0/SklzGDp3Z6L8PPFllCyme0YzNcqQQ454HFdlKPLG55eIw79oz0wolzK8gkCMw3AMelbzlzI8+pT5SOO3vC6wyJnbz5iDlu9RHDq/MyoSSjYmut06rHucgdi5BroajaxfOhI7V3YoryhB6Nmqiko2JdVosQJbQgRTxeerfcUqcj61RzTrMk/syy/wCgcv5UEe3kSWeuPBdvpzoWefpJn7teZVrTjWaO6nTi43H3guLcsftBYmI5VuldlFc61L9lEz4rlGl8uYnOBhFjUBePXrWk1y6ENWZYUNHcRiWRiS20hTxg808PG7EaFgpubny7Zyske7aX5GATWlWmvash7lVr+0ubqJIIHt8bvtPlHG8gnkVUKcRFQTve308KSuQh+VpTk9K0sloXOK9kYHi/TnnsTNNICyg84qJNo8qStI8X8XxLqdhNp927FGZlIFerg23BDTtI8DkhSzvnWFjtMzKobsAxH9K9KcVY76T0E1Zntr0Qhs7QOfwzXJGK5zshqinID8srHO48j8a2qRXKdUUW7DS/tOrQElfLY5249K5ORMh1HCdkereEy0rtb22I0SHBA7142YQSjdHbSqyOjjtYYLEuikhgMZ7V8tOX7w3TcnczdXsctEyyEHFd1JKx104pl3wlqUmlahzl/LG8c967paUzmxEFdnt2lawdT0OLV2QqxtySM+hI/pWNKTcjw8THUu6BrkupmMmADKkcse3FdlV8tPQ4bss3LS29wxZsrnhAeleaq0uYLsc87m3W4hldA/8ACD05xXp03eBoopq5PY3ggs5ZZC7MpABzVmMoIX+1m/vSf99UGXLE/9k=;imageBorder=#7EA6E0;strokeWidth=2;container=0;" vertex="1" parent="ix9Jyrw6C9A1fynfYH4--88">
          <mxGeometry x="10.299999999999997" y="10" width="39.69" height="100" as="geometry" />
        </mxCell>
        <mxCell id="ix9Jyrw6C9A1fynfYH4--21" value="" style="shape=image;verticalLabelPosition=bottom;labelBackgroundColor=default;verticalAlign=top;imageAspect=0;image=data:image/jpeg,/9j/4AAQSkZJRgABAQAAAQABAAD/2wBDAAIBAQEBAQIBAQECAgICAgQDAgICAgUEBAMEBgUGBgYFBgYGBwkIBgcJBwYGCAsICQoKCgoKBggLDAsKDAkKCgr/2wBDAQICAgICAgUDAwUKBwYHCgoKCgoKCgoKCgoKCgoKCgoKCgoKCgoKCgoKCgoKCgoKCgoKCgoKCgoKCgoKCgoKCgr/wAARCAGlAUQDAREAAhEBAxEB/8QAHwAAAQUBAQEBAQEAAAAAAAAAAAECAwQFBgcICQoL/8QAtRAAAgEDAwIEAwUFBAQAAAF9AQIDAAQRBRIhMUEGE1FhByJxFDKBkaEII0KxwRVS0fAkM2JyggkKFhcYGRolJicoKSo0NTY3ODk6Q0RFRkdISUpTVFVWV1hZWmNkZWZnaGlqc3R1dnd4eXqDhIWGh4iJipKTlJWWl5iZmqKjpKWmp6ipqrKztLW2t7i5usLDxMXGx8jJytLT1NXW19jZ2uHi4+Tl5ufo6erx8vP09fb3+Pn6/8QAHwEAAwEBAQEBAQEBAQAAAAAAAAECAwQFBgcICQoL/8QAtREAAgECBAQDBAcFBAQAAQJ3AAECAxEEBSExBhJBUQdhcRMiMoEIFEKRobHBCSMzUvAVYnLRChYkNOEl8RcYGRomJygpKjU2Nzg5OkNERUZHSElKU1RVVldYWVpjZGVmZ2hpanN0dXZ3eHl6goOEhYaHiImKkpOUlZaXmJmaoqOkpaanqKmqsrO0tba3uLm6wsPExcbHyMnK0tPU1dbX2Nna4uPk5ebn6Onq8vP09fb3+Pn6/9oADAMBAAIRAxEAPwDyCy0yOa6eadt2/H3mxiv52hB33Pu+ZFi+0gmCKUKMhtrcdfcVu6MkrhzIfcWS2kSgxghhXNKaTsHMjMuLiKCbaLcNuGD6Vl7KU3dBzIY0jRlQluEj3ZyD3rqipUo3BO4SzzhXTCGNu57VE6k5bDJLee2SDyYJgcrjB7Giiqk56ibsQy28kbeXG6EbcnB706kbBzIlt1WGPzZyCAeADzmuVczkCdyK+m+0x7oFAb69q641Eo2GPtXE1usc4bA/u+tYOLnICzb6f5kqxxDhjgBqpUG+oF5dMZgYnyu1sNjuKp0XTVwM/VrF47WSCKVXOflUnke9EZJAU9B0mBpB9pkRODuaQ/MT6CtVPm0RlV+EitdMsLDUZJbmRm5O9jycewrrhX5VYxSbH3eqeH7KPzrS4TEnTzVPH4VEqzTuil7urOZ1rxlo0IaW3eOa5jO7mPaMe+PwrWmpVS+dGHb/ABB0ttVhS5uhIZHLZTJVGwRt557mnWwc1C6Jn7y0NW38f+HbOGHTzcKzKzHABBwT1Oaxhh6kdyYxsWT430uS7ChIpIguXO7OB61q6cki3NRRBF4u0fUZkglcACXOFB59Ovao9k5boammdHpSahNcFopPKjVdyKACGGQM+nej2KhqiizJDdLdMGkxJn7yrkHPbFTzxTswDTdH1HSL4XEAV1kfLiTjFaOPPH3RtWOgluG2lGcDIzhDmsKmGqpXuIpW0LJcGVAzZGGDdMVwNST1AmubGwug2+RV+XkZ5oSv1AxZNNsmcwxsdgOS1bQg07gOit10sbYWJDcgj0rSdWEY2aAjl1CKSTabrn+7XLQbqVWkBG80it+5usNj1pTXLPUCDTLy6nkkinAxn7x71veMoJIadi/dw2NvaiNCQxb5iB2war6tJq6K5kVoJfLJGHMZ6EjvWNvZy94E7kptVQfaEi3Z4IJq0lP4RipYm4GfsqjHJ5rRYeru2Bn30M4uCBGqoO+e9bRrRpaMBpJK7XUjHdaHUhPoBnPFMyLAzqArEksaxdainawFuF7SOMIQK1jKm1ogOytIFnlEbqdnRucVx0pPm1My9dIk0ZihG0JwpzXT7a+gFacusYM0hwBg5rP2fM7gZt3bq0y+WwKk5GTzTS5AEuG3R+U4+VT1x3onO6sVHcjtcPN9l3KUYfxdayKG3OnpBcMlqh+UZJFaU3ZilsOXT9QjQXBj4PBye1bJxluQSy2FyxKIoyoydx4qKqgo6FR3HWlhPNG0Zt8ELnNYFE9vp3loI51K7uhAqZNpaATS2y2Y8yObkDKntmnCUgKzXd3IPPaYnB521trJakydkZV5rQjvi0rkR7cbgO/oaXIRzDItQspp962rBv8AnoD156fWtaUPeGmnuUfGfimw0KVGeYkNEThCN+cd/aulUJT2IlKMTyDx58YtGl0s39res7RMQYt5AU88124PLalWrZoxlXhY8y1j46PDbiS4ugSTuCrJ254Ne9Rylx6HFWxSWxx7fHb7LdveWJwxbIV5jgH1rtllbnG1ji+uyuS3n7SN7fXZ3Tf8s8dRge9R/Y/kP67LuSab8fmhcAavJvz1BOBWlPJk3qhxxjb1NCw/aBuYb4p/aZu2zuZ5HK/LnG36cj8qyrZO47I3hij1T4dftHeVAYWlCJuGY2nLc+i5rzK2WVIxvY3WKuew+CPHUviV2ujalN+GjLMMjHrzXg4nDTpyOinW5jqI9f1S4t32eWrhSFLjI+tYxlKnudad0U9N1bVDLsvryFyDn92uOK2lPmiBsvcNNEHt51B/i55rzJ0XWlZAVLqWRoyvTPBcVccDPuBnzNPb2jCNSVHJetvYOgrsAt78TRBX3bgvGR1HtXPNxkAi2C3BMwg2j17msU1Td0Ai2UUzMvlOTt4zxzWcozqO4DotPFuECQ45+Yg1rTi07MC22nmcgs5UDrjrXSq1tAFZAg+zrMGQcgEc59axqrmVyo7irBbQBpGuXJ2/cxSpy5SiCPUEVSyQytzgqV/Wt5VXKNkBVv7tLdfPlsS2e3PFYJ3lqBXa5uZnMZsIwgGQ2412uEeTQCpKWEuDFGv+1uP5VwyheQDlgmYZAT8zXVCHugd3ci1s7dVjkdmzyVA61zTcYrYzE0SCdpXkkZip5G6soxlKVwG+IXUJsiiY5bGAK9ByVOmNK5SgtZ1kSd0bAGMd81nrU2Q+VlsWEhjaZsID6jml9WqJXYJWM6WIpMJftKsA3RaiUHEokQtcbg4ODyDUwkriauWIL+3n09cxNtBxgnnIpT5nsxcrHnUbKK4Li1Y7wMDNTRpVZT1YJWJReTT5S1twgK9c81rKDiUVLzVrqyZY3w5Py4HaoTV9QC4up5rPyptqjOQR61tDkYGY9zqcNtKLY/MV+Qj1zXQoxa0InFyWhQubKZrGN31Dy9zgzBgMg4P6Vldc1jJwkupg+MviPYeBtMntgUeVoT5cuMge9enhsvq1n7pnUbhG9z5h+NX7QEN1E0Nvq0jSkYLpIBhvzzjr2r6XBZTVVuY82vWaPD9c+LWtXTtGkzeSRjaHzk+p9/8AGvqMJl8KetjzKtab2Ocv/FmrXjBopSMDBz6V6EcNFGLlN7lC51e/ZMtLnnp71tToRuLQgi1W6A3MeTwTmtfq8AJhr93GnlpdOF9MY/Wh0I9BO/QYniC+hcMl1IR7tml9Xi9ylKSOg0P4h6ja3OVu5FG4EEn0/HrXNicHCVPRGntWj3H4NftENaX9tHPqUoQsEkLNzg47Zr4/Mcrlujvw+JR9c+BvF1j4o0qORGZAoC+Z3fPOBXx2NoSgrI9mjWjU0RtX1stiV8iMkMfxrnjB8u5u9C9YFUiLox3FcMp7CuasqlPWLEncVL64QGBYw6HqO4qYzxKV7jFs5kgu0E8KyR5y0cjYHQ1z4ivVnHlYFSWBCcfaAMSEsqjhR7H0rnhGowL8M0KQjyZQ6njI9a6KeHqS3E2kEjxp8kkRJ65HFelTpxjGzBNMIxbuNxiwO2SazqxUVdDeiK1xLM7EwxsgU4LZ6+1efKM3K4uZDreeRP3jxBvetl78bFRd2SC4aOY3hVeVxxyKl05IsfLfqV3/AGmJCR6dqdP91K8tgKusztJbBYNSUM42khevtRJ80vdAo3NiQD5l2wBUEk9a2hJx+IColjay/LDcOcHOHFS2m7gTR+Yi7Ft5Dg4yAP8AGto1IJagdhpsZnhZZDuZeTg05U4tamZct76S0jO1guB3HNcdVqnsBTu7+a7zIZQVB4AHOa56WKtP3io7lT7ZcHJdmAXkL3Jr0KeOpR6FEkl1ezwiIZ3SDAB9K1njoVo8qAypvtGkLNNLA7hFJKgZPXtWDfMBPpWrzX+ngtblN3KhuCPrWFWLhG6AdCsiGRMgKzDZk1z80gJDa3MkiTLIiqo53HrUyqzgtAHXuoTW8gjt5ASy4BU9a1pVJz3Aj+yyrtuJQzMT8xPQf/XrplDljcCUi1iZpkaSRimNpHH4U4AZs58uYPKkuQcoijv7+1dCvbQTdkUPHesjS/DNw9zoYKlN28NjafWnQoTnVOWpU5T42+N/x71CaabSEZSYm2r5UmBjB4Jr9BybANatHnYjE6Hzz4i8S3Gp3TXFxHHuJxhR+ua+so4VQPLqVlIx1nld/mbj0FdrpqEbo573Zo2tuXi8wjOe1QAy4sJSpbAxVRdmBUSPC4296vmAURg/wD8aadwGS7QMGMD3FUBDmRWBXFJxUhNXLejapcabdBxKVBbghsYrlxOGjOBrTkon1r+xt8cLq/1iHw9qOoBlYgKJpMgAY5+tfn2fZc6dLmiup6mDrr2h9eGVJ7iOe2YSQyrlWPbHavgsROpSlY9aM+YkvbNoZPtEUqopGHy3aueNWc3qapdRstkAii0eQFhkDAyw9ua9GnHmiMp3NkbaZZnsm3Z5LOc1lLD3YD7O6v1mbECspH3GFCo8oF3+2Z7CQN9jt1Uj7hJ/PpWkPdZE9h327+0Zi21FGzdgMB6VpzBEmsJbSUsi3sasoyVJzkdKNJ6M2tdFSd1kupbHYW2tnzIzkGsKqhEXIx8lvb29ozSPvyMbc8iuT2sU9BqLRRg+zXERtVLx4OdzH9K0U+YZMtnDMvkTQOARhHOOT1z16cGqklbUCnexFLKMxxgFyQpbtiqg4ARtqFxbQiKaSM4H3+SfpWzSa0Ar3Ml98ssKAqTk4FTygSQOQn7y9KknoKOUDrbI3VjehkttqMcHntWLqSloiGrEt9MyytCCCzNkDtis5UJ1OoinC8jyrtUAHkfhShgrSvIqO4t5ayz3C+YwX02nrWjwsChlkl4l07zscRjK4NQ6CpK6ASbUILhHy2+QnlMdq1pAVIomuYmWSFlP8Kjgj3rWok4AXRplu8MbR7wQPm781zOMUBLLEY4AijzATgq2RSUYVHYCUxQJGjw6dtdehY9/8K2hShHqBYa3ltUYNMnOC+DkfhTrTUYCbsZ12Llz5FtcKBjcTj8P60qMXIOZGDerdWMLLd62C4k3qACWC8+1ejRpe9qROSseD/tV/Gq70zQ59Ft9emDMnCquM8Hrz0r6TLMtc5qWh5mJlZHxT4o8Q3GqXsksrsWJ+ZvWv0HC0FSppI8CvNydkYjLvBOeepzXWk0c6TFt0+fLd+BTk3Y0judNotjuhG4AgjtWLqJFFi+tbaGFgwBJ4wKj20QMaK0V5GVUzwapVLjUWyOaykiIdlwHUkfnWlOWpbptK5Tv4TExjI5BHNb8yM3oVC6qcGh36CUkI5UpkYPpVN3QnI6X4X+Mrjwf4otNTtpGXypAzYPXmvHzLCKtRaZvhp8lS5+kvwF+Ir+OfCNnqUhh2Og8sZBIPHBFflua5e1UPocPeSueh39vc+cqNNBEB82QgIYen6/pXiPDXjodbmoqxXuDd22+GW/RyCDGVjxtPoCK1p1I0laQKaYy0lhlhaOPUBK5OZCRyD6Vuq1Pcsrf2ez3gX7fIrMeA4wBWU60OwEWpxtO4WaIyBRjcDwefWuaVaJMldGpLoLQaXFPDp4ZpBj1x/nFbQhKa0YJWMz+yL1dajkiCiPyyHj24OeKc4Spq9zVTUTTgkW1i8nYisWIbceTXlYirJuyLU0yG7tJoiZmG5WGMqcisKeHrSle4SdkRrYwRxfv5/L3DOVGc+1d1OlOO5HMinLqN7DLmKLeVG1XJ4ArWpTnUhaO4J3Ki3c/mGW5+eP7qheQGPNY+wrR6jLEcMN9G0TwjIG4VpCbpu8gGCyuUkUcrGBhiTwB61uq8H0AbcWrpIRDa7l7Me/vVe0iB28Mlj5ojMzs5GQpX9a53Hk1FLYgvIojdefHG7FeDgdqqEyBbS3idVbzGTbnkL19q0c9Co7izO9vcec9nlMYD9zUc6KKRtpL24Z3U7CeF3Yofv6AStYtbMIgseCOSByPfpSS5AJIIDEA8e11dTh889elWpc+gCyeWke15gjZ6BsE1E4gPsLexkm3TXEmduQC2eazjRlUlZEydkN1UKY2i3Fj12r6Vp9TqdyOYqy2PmRsYo5SXAKhmrWlg3f3g5rj00+TyTaXGlDcYztkLEYqKklSdkM5Dxbqo0vTLrbaozR27EPuxjBHet8PKpOasKSuj8/v2lfiJP4o8TXFvhl2MV+/kV+m5Fhp+zUmeDjKtpWPJppRISQDgkda+sUeVWPJlrqMGTnHpTILtjaxzFEP97rUT2Lgrs6zTLeK1tSyupIGCK5ZGvIZGo3ay3Dbd3TuKziryJlGwaIkdxdqpiL9cgUSlylQJ9Rs0gTa8W0hsDJ/GphW1NpfCYmsmKSYmLqSOv0rupT5jmkZUkBkbaTXVbQyBohGnB70gCEuJAUfbzyfalKCmrMunpI+mf2JvjdbeHNdTw3rN8Ps8hxEC5JByO3rXxGeYC6ckj2MPiOXQ+47G6s7vRYrmOKSX5slnzyD6V+eVoTpzZ6PNzIu6lqVpbpI6Wq4CqWaNlLY9gTXl1JS5jSAz7FdXFstzYWkbRAg5jOGY++a68L7z1OhbCTRQOnmzBC3TBJGD/jW84xAz2t1SUQvfybIvvRgcEk8YNcVeK5VYDqrOSe20wncxCpwGHat6TlGIGPvgmnFzcOy88Z/+tVQm5yaYpbFWd/Pu9jWJYF+HB4NTPDxepcNy5f21xZwbYFzuGApbpUJKLsi57DIrO5e2DzBQVHc9aoyKU1u06lGnwDwy8A4q4blR3KkOh2ujuTDdzOXOSrgEAfnSnsUEl3C0qpLNhd3cY/lXPJXQC3moW8MwhjAkRhhsk4I9KcIADXgX5Y7MsoHHXj2rZQA7ow6hO5mYIhThFAGdtZ1ruFidyFLlkDxS3AVmOMkdqxjdBysYJRYrua4WRd2cEVUpaAlYtST2V7EsIndWfphKydRIoy4rXSornzWeVjk9TWtCrGU2hN2EZJ1d4pZZCkgO1VXkCuiSvsHMi/pNhaWlgsK2hUopJkZuSfSopx5JXbDmRSurWCSU38sgUp90EHk/hTlVp33DmRPbq8chMUaMwG4k5xn24qfa+y95MifvLQksJf7SucTLGrJ97nHFXHFTlsZ8kixqH2G3XdJdxoC2I2Vs8+ldFKtNvUNYasrT6lE0QNzd7TtKqCDluO1c08POpUvctO6ufMv7SfxJi0bSrzTNP1cw3DKyiN+Cw54FfR5PhFKrZmM68YLU+E/E+o3Wo6nLNNLuJc7yTzmv1jLKVOnR2Pm8ZGU53Rm7R5e3IBznNby1qaHJf3bDVIyV3DpRyskv6ZOiTKpB61E4uxpTkoy1Okto38pmhlILDqB2rmnFm/tImNqkM8O/fKST0yOlZwVpEykpLQ0/htGJNYt4psEvJisq6sripq7O1+KvhP+x/KukthtlAIAHTivMhV5qlkdkqE1C55brcMkV2yNEFx3Fe5hoNq5yTpyRkythsCvRvpY52rDSxPU1IgQuGyj49aTuNS5Tc8E67d+HdZi1CCVV2yA784285z+lefj8N7Wk0bUXJyufo/8Bvi7oOs/C3Tr/Uy8vnw7c+d8xP4V+Z5jhOSbVj3qFRSjY7Z9Q8KvbpKIMS7CwB+97HOea+bq4d8x0xkkNi127S5t4YY43RwRJLJLtKHsQBkGq9m6cbmvtYo14tTkVIYJI4J/LU+ZNu5bJGMe9ZNTkUppkE82ppK9hBDbAFhunZvvD/ZqqdGcpalXRr3l7c2Nl5P2oSB1HHetXKnDQpK5SlaFU8ueZogCBIyqDkegzXPPR3Q5QdhjRyPeRtDLuiA+Vu/5VftfdsOKsyzfoksq5LtjkjNcjk6cuaQ5yVhsz28Q3tAzKB9wHnNaxqKZlzIzNQliMglSyKljgbj2rbmVNXZUXdlXUbpZHjihhKt/eFZSrRZZHbXJuFZJLWIhWwQx5+tc9SvGmrsCU2LI3m26x4Ix1ziuijUjNXSA0LSxnkgDPOAfoK29rFaWA6iWSyul+0xiRSQAQxrJ1o1lZImO4wDT44jJJbj5eSc81PIUNk1nTzFiO1xkcZUUezuBYhd72FJYXRAPbnpWU6QGbeaVqLX6eXLhNhG8Djdkf/XqacHGWgpbFw20giD3E+XU7TxwfpW/vkC8mLEpfb/sionSqVVZARDT96PLbs5G05UnBNcEsHX5twE062v5UjMloy7Th3Mmc/hXTHCVYxuwL8qWEMJimVIyWyXIzn2/z6VapyiBm3kVrbyeXC0cysueF+771NSdSCuhOPMZes6nLpVtLf6gI3SGFinOCOP51tgqk6lVJlSXLA+Af2qvH39r+JLhomVvMZgreZkr71+l5Ng9eY8TE1eU8AnkZ3Mkhyc4z6/WvucPaMbHmTqcyGlAy/N0NaW965zSRXkXDZjODnnNUSW7Bir5YgcVE9io7nV6FODb7icnGK5plFPXPn3EisY/ENFn4ZSxReJLWWckKkoNZYj4Wa0viPafjokN34ctZEdVYxAK34E/0rw6TtXPWn/BR4N4jtZpdl0GG117nuK+kws/dPPqnOzQv5pHFdildnDLciIwcVZIc44pMTVyW2diyxjBJPfoairqjWEuU97/AGavjDc6B4en0G9dnhhJaM7sbOQOPzr5bMcvVWbklud+Gr2Z6cnxsuIU2vqrSbxmPzJfmx6V85Vyp82x2fWDUsPjVDHtmuNWZl2YKq/3Tx71FTKJSp6ITxCNfRPjbHBdxk3ck8BO7ar8jt6+9ccspnHoaRxB3/h/4hWeuWccRjc+W2Ysvg7T6/pWE8DOnG9jpp1uZ2PXPB2ny67pi3dtaSS+XFnZj9a8LFU5RkdcJiX1lqCwH7bZoCAdwLcisIuXU25rkNv9mSMSR5ARclT1qgIZ7wvLvtmX7uSGPak0mtRNXIJb6KNjHLMC7J8u31qHpsLkZC88dzAGkmG8NtANK8paMai0U47u3FwyGZlcDghM0coyq97ZNMV8jLs+0sG60nRU9AG77iObZAnAOWDMelb0+WCsBtWwdoVYWzHI6g1ulB6gdalsCqnaQAeapwoxXukJ2GaiscWfLQkYxg1k5JdCuZEL2jlEdbUBSvJNTGrG+wcyJ7aWaFgIogVB7GqlOL6BzIlv/wC1J1EsCqoB5XPyj3p0VGUtSJzSRatLeG/jRWuVBH38c11ckDP2sSe40GBCWW+ZwVwFIGM0WUVoOM1JmfZ2SxXfkzyEA9mNcs3NO5Zau76ytkMMJIwcZHc1pTxENpAZkpWRw1xG7AtzuXtVudKeyJckjA1rV7PQbt2cN8y/JGxA49etZuipaDp1IuRw/wAV/GGoyeFryayssKLdsncOmOnBrpwuXzp1VJhXkuU/O/4s61PqOtyBsAq7ZB69a/Vcngo0U2fMYuXM7I4tA5Uhj3r21vocSuSEjbitugStYheJs5yKCCSHDME7npUyV0VHc6bw4oWAj04NctTQtRbDUo2klKAYwOSa51JKRfI0hmgyCz1FHBAVWy30zRUg6kdBwfKz0vxP4pl17woto06h0A8vn+HB615P1SpCpdne8RCcOVHm+rWzEbioAHQ7q9XD3irHLUkmczesqTEYPHpXfTTvc45b3KuC5yBj61sSGw+ooGh0QKNu9BxUuN2DizpPAOqvZ3wiDY3HOD0Jz0NZ1YQ5dUVTUoyOo1PULzT7n7ShLKWzuJ4Bx0FeVUp03LY35mZEfjLVIp3BkBR3yRuNdFKhTtqhObRo6V8QNcgk8uKUY3ZUgnIqauFpPoVGrY9T+Fvxq1tryKxnvUkHA8t+MHI5zXjY7BxVPQ6qGJjGWp+rH7EfgM+K/h/baxeRIwkgyy7c8cV8VmGE5NT06WIjLY4344aAnh/xjdWKShVkcmNFTGB7181Vqwg7WO6Mzg7t2hRQqZUH52XriojNSNU7lcWMVw7FVLb1+Q5wBTqwlyaMtKxHFp6pKWlbOxcBe2aiF18RRXSJTOxmQZByozWzlC2gpbDZXumRoyDvZuAqDGKnmiQQS6RYR4uoh++xzlu9PmS2AQywvKrNlZAMYx1rmlCrKV0Bs2+rtJCu4LGQMbQK3iqiWoHaqEQCKWVMnoQa0UpMzIFNswDynI3YOBmt4Ri9wJ7a2s5hIGn3jbwhzwK1nTppXQFeGGFJTHDbSog6uy9ay5Yga+nmzkha3FvI4KdGXHNDahqiJq6I0tBZArb6QOTk884pe1M+U0fs0n2VWXTUVTyfMbBFHtS4Rsyrd6VeFvNtbWIBh9/fkn2qW+Y0M64s3u5ktLe8jR0O5s461DhbUClqmq6jpoVZriOUudqJgda6qFPmMp7GZpXwL17xRdNql/czSNO+UUqCFHoK9alhtU2YKfJqdJ4i/ZPm0/4f6lqOq6c22OzkfcBzgKa7HywkkFSfNE/Hf4n+X/wl+pQRAYS9lVfXAYiv0HLUvqkWeFiVqcuqkAk16cTkFrUUthH6UEDraNjIrjoDSexUdzotJd4IDjgnoTXJVNoF6SF5LQyvtJJxxXJ1NZfCYzRSpMW8xQM+tdEfhMjfglWS0VH3n5PXiuWruXDcz9fC28S4TaPXNa0gnsc1chJXJUg5Nd9PY55bEEYRPlIrUgJSu3gd6Co7jVGcj2oKLui3LWl4jAD73OfSoqK8So7nXXF8t3ZfZ2ckEhgB64/+vXnyh75Rzl3GIbghsgHvXTGNoilsWtNUidTHPt9T61MyDovDNz5GtQbSXHnLu28Hr1rirxUo6mlP4j9v/wDgnf4s0zR/gRp4iKybrcb5HJ+TgcGviM2cIto9XDbnKftQ65p+q+MRNpTJLtUh/LHGfrXyToRnI9WOx5nA3nwNDPGqkjkn0rmq0+TY6IbkLeXagRW3CryS1cym3KxsQra3UkhfchU/NkE9PyqwK93p5uHEqK2xT1X1oFLYjlsPPX5bra54xQQJFpEC27NeDcVPBz3rahFTnYBlpYtNP56tlVB2hVHWumUIxAF86XMjSFcngFRWTcQPQTbQPKjgMcHocelaSgomYthbXaAxxW6ggkfNWTUugE9l9vjuiBAoOMHIrP8Aep6sC3dW2oScC4RM84wKOaQEdvdS2twkF7qCn5vuhcUWnPQDT07TraWaS/vL51A+6O2KmUJxCyI7qexkjl824eUdFUg8D14qYqUnYTaiUo4LAlSrThcfKFJOT+NdUINbk86M7U9D0izZ5re1mmlk5JZsBT+FXNXSGppnV/Bj4L/8J/r0N29g7xBxtVlLDtXqYOhJ6mU2j7H+F/7KllcRwzzad5aryitD6V7cKV1oclV6aF/9rf4X6N4D/Zz8Sa9dGKKOPR5udmCMIx/pXj15TniFFFKnJwP5d/iDcR3XinULmDBjlvJXRu5BY1+mZbdYaMX2R4+J00OcJwpOO9etE4wAyu8etailsIwyMUED4XaIAL1zSexUdzZ068MoEWea5KptA2EdVg8lmDHHQVxt2ZrL4SnJbbSWO35uBmtFVilYyLlrZs4BacBQuMCsKkk2XDci8XWvkWcbiN2ywGWHHQ10UVzbFTg7HJSyLuK7Mc9q9CEWkcbkr2Ksjc8cVYhFYk8mgadh6dfwoK5kSIQrbjnj0pPYcZK5oQaplBGjOGHU47VzOm27l8yHTYnw29jjk5rW3u2E3cvaTEqyKwxx/erGcWSb3hkvca3BDA4RpJwu4DPfP9K4691BlRkou5+sP7KPxCfSPgnZ6UWEL/ZQqxEYMh45r81zqcvaM9jCxctUReLNRN3rhcjBUfvAvqa8Ok5SPVgnaxUE+nu26FZGYDkFamtpubRdiO5+z3kRg2hO/PU1wSnBbI1U0xYbRVRQkgCqOVY8mnF8w+ZEcxnMpjhRQAPur0qnFpEykrDI08nEk8Ea4b7zGrhTlPYnmRCbaGdnlmmwGOMDoRXTCjKj7zBO5Fd2KW8aQ29yFG7cCvXoR/WsqspMZXtp7NIglzIC6kgnBritUA7kWKOQJ5ixVtwCmu2VW8rGZpaalvC4d3wxbgZqedAJPNG94d7EkHseKafNoAtzBbT4maxncIc8MP8AGq5QCKeC6uFFvpbM4HAK9Pc1UItMDbg1APtghsQZcYdXHy11Qpxe4DbyZ445ESzhiYrgkN1qqtKEYpoiexi3F9qFuqS21vEHIyrGTOeemMUUqXMZHafCb4W618SNTS0hbcxcGUKMj9O3Ndf1W4Xsfbn7Nn7N1l4atoJ57YZQ8oqd+OelelRp+zgZSkfSfhXw1Z28ccJgxgkfd4ranV95o5pSu0fMf/BazWbXwB+wZ411UTBc6W0YPf5gRx7/ANM15EffxiS7nav4Z/KrruGuHbdnGBkA4PUnrX6rhI/urngYrcylI2nI613xOMaoYDBPFailsLQQAGaT2KjuWNOdmuFBZgM9u9clU2gdbaxhFUSQkArw5HWuKRs1dFe6e1ZtsrEANxj1qBcpoaNG5uo0T7ves6jsjWlC8je8a+HXPhI328sWIZF2/dGDTo4jllY6Z0vcPKLuFoJsSL0GCfU17dOXNG55FSHLIqXAGMgd60MyNSAcmgByyqDkg0ASg5GamWxUdx0bbGzUlFy3JYZz2oA1NLlWNvmXPFZzA3/B5iXXLeeeP5FmDHa2DXDiPgY1a+p9/wD7Nnj611JIvDspIRYUEL7izDI9B3r4DN8PeTZ9BguXlPcr3w9BPpH2vahZQdzk/Mx9xXydRulsen7vQ52DzoH8mSTcuem3p+NRFue4Bf2aMFukOAG5HenUoR5NCo7jbQ293cgNuGRj6VlycpQ2cKWDxsygnHA5p25tBS2MvVLS8lm2eY7I3VT1+tdFNcpA+3tr1olhMBO3hfpWs5XjYqO4y4laS9jgQ7GU4bI61xz2KLHl7CQbZW564H+NYgdzLBcKDNBa7mB5qeVqVzMgtxf3k/8AqAHUZ5PGKtJsCKNtTSWRpfK49OT+taQ/du7E2kWk1HUUVdt8AG42iMDNbKafQnnRoaIbu3tJLi9mCuX+VcfMRW0Wo6sqLUmPt9TEE0stwuGRuN3f6VTlfYb0L/hbwxeePdREf2OUKSSGXPXpj9acIVZszk1LQ9V+Gf7MS6rGFuLPLqG/12T3HTivQoQcNzN6H05+zL+zjYeD41igsx5pYvLKI8HqOPpXpRnDsZTmkj6Y8PaBZ6PaxwRY3qfn4roaThoc8pXN6xihhVpDKASPlzXnOfspNszs7nwX/wAHFGseT+wBr9jBcIr3IRPmcgcbs5wK5cDJTx8X5r8zu5kqR/MVqjHDNuJ5xw+QSB1r9cw0f3HzPn8VNc1jMDZBGO9dEdDl5kIzBRkitE7ibuIkgk6Aj60yRw9PWjca3NnQ9OZ3SXYCM/jXHW0N4M6tbBZowyu3yrkq3SvPlUVzdOxlQ6cZroEoNshO3d2qOdGqSZq6NB9j1y3VmOCfm44AqKnvR0NqfLTldnqmpaTa6n8NrqS3i3NHGQGPQn2ryFWcK1j0OTnhofP/AIotHgmBkjCjHevrcLUTpI8PFx5WYE8bhhnoRkGunnRxJNkew+oojNSdhuLSFETE4BFWSTIpxjNTLYqO4kisFBHrUlFu2LgCmk2wNHTWPm4J6rWdRWA6rQYWSeB41DEPyPbB/riuGs/dJmpPY97+C3xK1bwVrdrqoj3qoRCFlK5I9OOfpXzWOwzrxfKelhasoKzPt34ZeKrLxLoUd9ceaZLmM/IFzhuuM18Bi6XLWcGerQrXlqVZoLr7XI32QvF5hC89D6GsFBrY7FNMmmJjtj/oyqcc5arjfqaJlCOVpbV3t9mQeCp6Gs6lrFcyIZ5ZQDJbzqrDoves6bSlqJu5HbyanOxnuJd3HatXNEhLNdwMGaXaCOoP6VLmNOwy2SOQPNM3zdQ2OtCpyqbFcyGXU2nGQZs3Y45O81awNV9Q5kdxHPGN6x6k2088dTXNa5ArSpHhZJH5Gdy9/arhACHy41RysTHdyDk1pN+zjdkT2Fm1KNLMQ2+mMJTgLIRwO/8ASs1i4x6GRr2mpS3irO9hviCgndwRgYNZ1sX7SNkXB2ZPo8T61exabZWMbSPKDlieOe/tiu7Bxc9xzmfS37O3gqLT/FVvYzWSxxzuu8sv54r6Klho8tzFT1PrT4c/BzT7fVXgtrIEkk+YfTIrphQiRKR6xpng+18NoQkYVx12+lbqhFI55SuLHIDMwYAZ6GuSvVUFZEEk0xSLcx4yOfxryJSlJth1R+Zn/BxN46c/sqajpLylIS+HXHLDJHH5ijLU3jYpd0dT/hH862r+QsziOL5Q5VW/Kv2DCXeGVz57E/GZ5UEYHrW5zDWTjmnHcBIo+Nq9asCQW0hwQR1pSdkXBXZ1Gjo9vDEiY3N1J6YrzsRM6IQOnWOFbQySSg/J/wAs68irJvY7KNNN2ZPpvhhmtILrYcHOM+9FOb6mk4KOxSuEm0/W4beV9hU84Gdwz0rpvFxsiKUZSnY9V0uS11Twybaw+VSnzjPfHevHq0/3tz1YaQseKfETRZTPI7QuME7cjrXv4GrG1jzMXR5tTjntZxEqvF0NepFxkebKnyogkVI22nB+hrXlS2MZMaSuOBQSNYMcbT35qZbFR3BwzSbgeKkou2W1sj0GaadgNGxiEkg2qTz2rCrIDtvDdqjzW8MQO4uNw46V5lebUWVFXZ7P4P8Ah1ql9pn2ExSF3cPE8RGU7Z5x615VOrGUmmd1KB9h/BP/AISfwN4DtNP1tg8Xl4R9oLA44Jz+P518jnNKEavMj0aUbMt2j3LXs11cXgCByMq+Q2ec/XivDOuBozQWjoPMu/MDjjnig6FsZtvYQaWsq2cb7GfcxbuaxnsBMrWjpm4tMuRwQKyjuA1HWOJo4rIH15PSrAklW28tI5LPAK5znvRa4Fe4gd4vIt0TJPUmtoS5QK0ljqqkKttG2B1BroVZAdhpSPGuZLNeW5z6VwwjdgXDZM0hfzUX0GegreMUgBriWD920it6YxWl6T+PYiewkVxPJIInnjUD5iMc46f1qZUKDV0jISCeFLpbKPUnYBSXQY9R71xunS57RQXsepfBbwVFKh1i3tvOlDfLk4969zBYWdrozlI9g8H+N59C8daVDdWJiczqHTIJQe+DxXswjOOlzD2lj7u8FNFcWtrqsTsBIikkcZ6Vop8pEp3OkvL1JbmSLH3RjOeTU1MQuWyIim2ZsmxX+dwDnhc815tRSnK9y+Vkeo3/AJFk6uAVA6k9KmqoqloCg2z8ef8Ag4p+I5m+CTWCXcatc3wgVT/dyzH/ANBqMkSq5hHyZvUfLTPw11lX89mWYsjyMwGOB0r9cwvu4dJnz2Id5lAMG6Vuc4MCRgU47gOt0w5LdhVNpDSbNfQ9IOq3UcODgtwPU+lYVaqUTelTfMehWHwn1mOBZWgG1um5ug/KvFxGKpo9WngqjV0W4fA2rws8KwsqhevXPIrkp1qbk2w9nOMrHomkfDS/g0+JRaOxMQLNGpYgHHauLE5hRps7aWDq1EVPFHwI1mwWXVJYX2pjbJKB1Izn6VjhMzpzqNM3WElS1ZT8J2t1bP8A2YPnBBMwzgY6ZH513TnGeqJcJJmX428Mw3atKloCkQILg/40UsR7OZlVhzxseYeK7Kzs7YyQBQM7SSPrXsYau5nl4ik4nGSxqg3IcgnrXrwu1qeXJNMjqyQpNXGnYbJnHHrU8rK5kS27uqlwego5GxrU6bwtYvdXQh3YIXORXDXfKD0PZfgV4Ffxh8RtJ8OJbqxkuBu+XPAryMRXiou5rQ96dj9B/En7J0XhnRtN1fS9OKiMRvIqx4LAqf04r5qeI9nUbPUp03FXPRfF/wAIbl/hMurWFv5ciWoZvKjB2jvn0PSvJxkalf3rnTTkpSsjyXwyiT20tiLNt6/feRAMkemCa8CrWjSlZnZCLNeykeOBAbIFR69R701WjJXN1F2GXU1wInaJQFJ+8MY+lJtT2Hysgn+2SwJJ9rjQZ6nrSUGg5WRvMyRhZb7jPJAqW7BysrWl/asWBuXkYPgccYpKog5WFxIWl6kjvtNVz3DlZPFPGEAibA/2mpe8HKzpGmt7ZgPtXmAjpzWT5o6kiSBbhv3CMSeByaXtJAS2lvZouby1MpQ5wHpOcmRPYdpU4Fy0s9sChbCoQDx+PevQw8nJWZkdD8K/h7d/ELxi9rp2mtsDbXYKBgZHXBNehHBxeqLgk3qfdfwR/Zp0LRvATzS2TNKI+G25G7iu2k/ZKwTjEraT+z5qV74xTU3tFieWQeZLsOeDwBxXR7Y5akVbQ+n/AAnps+j6LFps0uXiQKjHpWU6pjyiat4qh0zViXk52gEGuStVbWhUY6kUviGO9u1nU9VzxXN7WRXKV/HOpR23hqaVgSxT5Occ0+eUotFRVmfh1/wcH+Nftmg6L4YkZN0l40nl9wQH5Ptz+tejw7SaxnN2JrfAfkpqrAOy9AG4A9//ANVfqtLSCR8/X+IoKNvXvWpgEucYBpx3AbG5jJZ2HTiiRcTpfAGoxHW7SG4G5POGdp5HvXn4ttQ0O/C259T7f+EvgrQtd8OBLzTxJEyhfNkGcZ9PevisxxMqbZ9pgsPGpTLupfB21i1RrGyw0MRBwIBnFeTTzGV2rm6y2LqXsfRHw7+Aei3nhOxa7sEZngw+0bG7HqM56dK8vF42UpHqUcvjGOwnxZ+BWm3Hgi+kXRRughPloq/M5CnAz9M1z0cXOErozq4OLPiw+HLTQbK/nuLVY5kfKmRyDHnOBx9K+ty6vOrFXPIxNGMDhvEfijToNLk8+YNKQcyjoR6V79KhzM8PE1YwR4540161nQrHHuLNgL/D35r1sNQ5WePWrcxyhJkIA4wOletFWR58ndibD6iqJAqQMmgCOfOzigB1hJztek3ZDTszv/hnbi7knm2E7JABxXlYqZtGPMfYP/BMr4ef8Jr+1v4f0Se2JjO9pFI7DBr53Fy9066FLlnc/Zr4w/BCxsvCUcMNuA8cKqnyZ6L/APXFfN15e8etGHuFTwR8JLbVvhbc6FPaAtNbMpYoB29axlO8CKMbVGfDHi7wufAfji80m7fyys7xqueoz1/Svn8XSvK56ETHuHzOtubjKqfmwetYR0VjdbCam+nwW7KhOMfdB71rAChE67F3QsVxxzWz2Acboupiit1bI6NXPPYCK5dbNlgjtERmXJ9c1EI8zAh+2TNE2IhkccGrkuUBkMc8yb+VyejZ/pWLqWA7+4srgvv8tVQnKnH6V2VXTcbIhK443MlttRihGe1c9oj5WRMs7SNIpwH4BBrSnyX1InFtFQXr2Ukk7XIAUAAFc5JIHSuqjTcpaGLVj6j/AGPPAU+la3pt9qblU1SbKAoFyRjr7V9DQSpx94zc+U/Q3wX4d0i38NrAkQQHsPWsalJzldGUqjZrDQdPMAaONAynggUShKENWQpO+pm+IFntZA0Tn7n4ZrnkpMvmieWfF/V5bOSO+jmO8EBwv41HspPcalFGj4Z1CZ9PgkkclmUflWMpRi7WKUos0PibetH4JnYk7hFlSO2KVSShC/c0UebY/n6/4Lo+OP7d+Mlh4fEoIit5JAWPI5xg/nX0nD1GUZ85zV5KMbH536i26ZjuByR3r9DpNPVHg1ldlSUHA2+tbGPKxjFt249MU07BysZK+Y9wXoe9D1HHQuaHqctjMl5BArNGwIBOO4rCdB1YtG9OqoSR96/sGeO08dWTaTqW2Bw4Rkfpj1Ffn+e0XTbP0LJZe0po+s7f4U+H4bfzYjJM7g/My8Zz7V8TGuo1GfTU6D5j0vwN4Zmi8PxwfZ8Sp9z5jjGKxqPnZ0u0Y2Mz4u3kafDu+d4ZFZrZwrL1zgjj3rWhGMpWOKqran5sfE7V7eztNYN6H3RrsX+8zc19rlSjpY+XzKTS0PmfxD4u1CQSWDoeW+UMenWvssNStqz4rF1ZdTkJprm6lYsT8vUdq9OnFI4btjooZYyGcjBHFdGlibXZKyFV3EikPlYx+n40CasNIBBBoEJGuwfL1zUyTaA9Q+DUatol/IEIYEYfFeJjHyo7KOm594/8EY7S7X9qzRtWflVjfc8nXDAAAV8vja8YxPSpWbP27+KFnHfQx2xwWeAN7YIH+FfP1qik9DuUko2MTRbD7BpAt02jaDlT9KwdVJExtz3PgP8Ab/tdO8M/FiyvbO2iRZ+HKjqxNc1W01odUGjyqadJYQ6wKH5JHfA4/rXk1pex1aN07iRQZCz+QrluoJ6CilXjLoMyLnUJYbuRVj2rnAyeK6nNcoETT3eC8CHLDGfT3rGTuBDJBfSSLJPIX2/eIPNXRVpagR3Ajhl3Pv55VSe9XUpuWwE6ahehAI52AxwAo4rkeFqN7gemXlmNPO1GZ1HXnNOLbepMdyK7tbKeEO2ckZBJ7/hVlFKJ4g5tHgfPVWB4pxdmKWxJY6db67ruleH4LRonv9QihLkcn5s/0r3sHRurnPPY+1PjLNH+zvdfDmxittn2rUIbYy5GW3qemcdwK9RQcvdRyz2PrfwnrN3a6YrrKXjdFYBzzz/+qplTnEyOisPEoltymQDtrFqT3Aqa1qUlzaMyIcgYyanlA808ReHbvxHfhHUFdwyGzTUAO20zwfFaaWrrH91Rj8q5atC2pcTzv9onxiuh+Cb6OK4VSluSST0ABrhqvmtE6qfU/nR/4Kqa8fE3xvl1ye4LEgrF/u85/XFfbZDFqFjhxR8h3MkTZdCc7ulfcU42ieLU3IWYEYFaGQikc7vSgBrBPKK4oAsaTaPdf6LEpy5AJA6DNKUuSLZdOPNNI+9/+CZfg6E/aLy7sWdlkARzjkcV+eZ/PmbP0vIaXuI/QTw1oqR6XKpCI+0gBh7jpX5/JfvGfXez5Vc9P+DXhWO50mZ5oIzIAyhpSck4J4wPagynseQfGyz/AOLfaxCCyyIZEG1c7evIrpwrSqamHJz6HxN4i/Z/uPFFm/m2Zfeh86eRSFJzkHgE5/CvqcBioQZ5GMwLqHy78Yv2d7jQNVvZYLKTapwhweeD046V9jgMwpzdmz5bHZS1G9jyG58LLbwE79pwSwPUYr2oV4T2PmcRQ9k7GZc26RBdjMeMc10J2OXltqI6kxjjvRzAQSHtTTuKWw2qIDOGAyACcHNJ7DW56j8Fp2l027s4Iy4Y5VR1z07/AFrwsfsddI/RT/gkpp8tv8W7OZLYpLbooPHfKj+tfG5h8J6VD4j9kNaupJ7CzluQTKIFQkc9BXiSOozNavIdI8Oz6ndKBsQ5JOABg1nBJz1C9j8sP2//AIpXvjD4waT4A8OeW+rSXgn8oyglIFDbicEkcle3evUWEjKnc1hMzPDN8txZPDqcZL785A5Xj7px3rxcRh4SlY6acrsktnhd5oIgQQDtJyK4ZUYQ2NihZaUJI3lvipBYsrFziojq7AVX1FonkhjtQFUfK2TzV8oFZZZnIQY3Mc8McAe9XCNmBakvbSOSNJ4FV1PDMeprQCK+t43uC8N4AGGSAT1/KgD02W/lBMU0Qf1Ge1cs1GJCdipb3s9vMymBVjP3Wzn8KlalcyJ5o2uB50d2QyDcAoFErxsTKSsdX+zf8P8AXPHn7SfhfRzOzwWVyl1cOg+XA6D9a+owdSNOkuZGMlc9S/4Ky+LfF/iT9r79n/4S+BImkjfxTBcaku7BjgRZAS2M45K/mK9vLqcK1Ryb6aHPVi4xufpHY+D5LTQbSRYhtESpw2T3NdNehFHG6sU7Fe88NzLH59tuGDyO+K8upS7Gikmrk+j2bXETQOSSFPDCsXTsHMhw8MRJIGMWGDZ4FTomJySNS6s47bSWkd2VQOlFVJ0zWn72x8afta+KWuLTXdHjul/cR4YA9QeP614PK3WsdlOLR+B//BSi6I+MUNoyKDHZbiq9CGY4/H5T+dffZEkoHl4uok7Hy/dEMxKoAM19pH4DyJu5CORkUGYoBJwKAEkUqhJoA0vB0zrq0JRThmwwA5x/nFYYi/szqwcHOtY/ST/gnr4cey0RJbeBlMkZYyq3Gdy8H8K/Ns7qLmZ+qZHT5YI+0dOvz9jG4gsUwR36jmvjpx1ufT1LONket/CDxLBoOmTpcBXb7yGT1xj+tQcsqUmec+Op9O1zVNTsQqKHYs8eOGJ//XVRbT0ClRkpanK6T8N9NFptNnGrmMgqo4OSPWuqlUqR6mlSlF7nzF+1J8KLKzkv3iVmALEfKMBgD09ua9XB4mrGrueVj6MHRPgHx34dh0+5ntljy29i2PrX3GXValk2fmuaUG6jscTqGkLDGJGUY7E19DHFwqLlS1PKnRkoGd5SksMHAFaJtnM4NGfdr5RMmOM4wK1gmmQ1cjXDY5xkZGa1FysfHGwcN5e4ZpSdkK1j034OsLa0d3tsksNnOMHcK8THRbVzsops/T3/AIJEaZHJ8QsOTkOHdm9tpwK+Kx7urHp0INM/VzT7hNRvI4llLpgED+79a8WZ1crOJ/aJ8VLoXhm6h8+PaI9wjPO49Mf59KzgnKpZEyi2j8YfHdt4w8If8FKPDvjHxupk0/xLevDbsScRqRwg9Omfwr6ekk8DJdVZ/Lb8P1JjdSse+eJtBm8BfFG+0CQ+XDdESwjJxzz1x718djpyp1LnoUoSjqwuFkMjutsXUqc5P/1q5FzTVzdJswRbTW0+2UskOw7gOT1FTCUYy1KlBxVyXUWRrZdk0ZXou4YOP8a3UoMgh/s2O4tFmVlQupA5wa1jFS2Ym7GTJYXGUuZyGfdtRSeAv+NEo8ocyL0Zh2ATQoGxzzWfMg5kejSx6eJluXuH+VuQB1rjlK7sQCWxvTJMYnK/wBBx/wDrqoACQQWZCXMEhLKSMdOnTrXRGKlJXM6jsj6O/wCCfvg+GIar8W723eEwp5cDv0CqNx/9Br6KUFGgrGXOi5+zh4Sm/aa/bLuvixqUP2qLR777Ppcr5O2MsCfYcqO9dODqzpK5lVknE/UGLSBY6fHC1uF2DaOOMYr041ufc8yXxEUmkRT2bNHgHFKso8t0dK+AxYLY2rnMIGG+8K4pgaEFib0iViBgdqw6ilsZPjeQadYnnK55Htg1yV61lY6KOx+eXx41qHWfir4o0h5SqSQuq7uhOMD9cflXlp2qXO+B+Fv7f+uPrf7Q2uhpMpZz/Z4wf7qjH881+iZHH90eHjPiZ8/yzKyng/e719XGXQ8yWwwKVTn1qyBVIByaAEnYFMCgDW8HokkqzxNgxsCT6ciubFO1I78v/jn6m/sHafIPhxpd5ZsSswy7d84r8vzyfvs/Vcm+BH00qvHFHKihSudwPUivlXK59Ha7Ov8AC98X0bzpJMSY2n06jFIOUxNX0mZfFr3EoAVlBLDoelF7By2LwkjSaVWC/uk9fxrWEyJnzv8AtE20l74VllgRPPuJ5ANzHkHOP5V6ODleqedi481Nn5kfFnUJ7fxJeW9wjRkTvG2R3Br9DyyPNTR+cZsuWbOO1i5FtZJFBIkpYgkHPHBr2KdNxnc8JzvGxjBGlVnxg45HauyG5zz2KFzAxRgVzz2rojuYFV1TcAT90dKsB6TMMKvABzUT2EzvfhLc3A1GGFpRsLAkN6A5/pXk434GdlA/UP8A4Jd+K7DTNautTinC71zC56A7ehr4TMZcv3nrUT9R/go76v4fh1KW6DM0O9mU/wCfWvHb5jc8++M/l+LdYXQrd9/z5kGzOQD0q6ULTuNK58bf8FUv2fbjw98L9H+NfhzT0jvvC2oRXnmpHyYwSWXgema9aFS8bHM5csjG+I3ivR/ib4P8IfG3w+iJbahYoJ5QQRuIHX3BBB+teNj8M5I7adW6K93mOzluZ7tQmcqhHPFeVJcisdUJnP3nnCZNSglHkheVYcn2rmlSlVehpJ3RnJfafdX5u5bbn7oQdPrirhg6q6kEfiHXLWzhENrHuli4YHhQD34/wrSVGrRVxS2Kdtd2t8rXUsLMAu5PLyR9KqHPLcgt2M/2uAS/YouuPncg10KmmB6fI0asN1shVxjPpXlSTg7sC1Z3EVuv2UYAPPFa0nzAVW3bpZr1xsRTtJ+ld9DD1K9SMYmNb4T6l1XVoP2ev+Ca958SryVrV7yxcwSKucs+VHpzzX0royhKNGW7ORtI+gv+CTnwTXwh8D9K8R6zZg3F3ELiSU/ed2Ctn1xhv513V8N9WgovczlNWPr69WFoNqqdwyTzWMYy6HK4tu5m+a8UZCcc85q580I3kbJ6WKF+qyQO6jG3n3rH4xk/h7/SbZ1T7ynBqXTcFcUtjl/jM0ll4auLvaSI0OdvXoa8HFX5joo7H5leMPEtrcfFnWNWnkDRwpKZwx5GOc/pXPFOUkl3O1SUVdn4T/tQ+KF8T/HLxPrULloZtcuPJbjDKGx61+qZPS9jhY3PCxc1zM83mQPwnHPevbgm3zHnPYQqduK1JEKEDJNTKXKAsId8lEB45Bq0ronmV7HafCHRbDWdQGnXS7ROSh2j6f4Vw42S9lY9XLaUpVrn6bfsCQ/Y/hx/YkczD7E+2In1yP6Zr8qzyf7xn6jlHuxVz6W+0C9CsItu5MDPX3r5uOrPpE9bm34ZkaAeXIAUHUGr5WXzI2tf0aS500XlsMyrGSxPTFJxbQm7nGz6mq3WZC2JEOcD0GKcYtGcotnkXx08PXN94dAsw26PdJHt/vDPX8M124SfLVOWtRlKDPyt+PgubT4kX8ksxCvdOzqR0yf51+m5NOMqSPzHPVyVGjgb69AJMcxYE8AjpX0LhfY+Z5uVXZDHPIUO/GMVUVZmcppk1hbPcpmNM545raMlchK5lXduBMSqkEZzmrTTE9CO3QvKAO3XmoqOyIclc9B+GlvIdXgMURKgHcMj6V5ONa5Gd+HVz71/YO1LWdFvRHHZjyvMVGCnIHbP61+f5nJS0Xc9mjTkfsH8ErldN+HsMzRlQ1muwDqTjnH515cXbc1cGjN8K+G57jVptV1RN58xjGjL05reNWKCLszmP2n/AAhp/jL4Uaz4YvdOadJbNvNhKghgeD19iacMXDmtY5KsJN3R+aP7KKzaj8PfiF+y9qkjLdeDdVmudOiLHd5DSBlC98YzXoYpKVFT7mlDmT1PREmn1Dw3aslujSeXmUOccdB+NfOYjDzbujsjKxi6lez/AGEwh44hG2W9x0wPzrlSnDRbm8ZXMd7OVpTOl6qKMbiR/wDWrWEqwOSRHd2mlyNJcG/aRnwDtXjHvXVBv/l5sZyqoWRrRNM2WV80QTl9kfb8aznXop2SGmpGDd6jPaTmKG6Mi9dy1avJXRoqbZ7g9jlFid3yP515HJKejIJhogMayuzNg5xnFbwhygNW0aST7BLaMUmkVDs5IyQK9XAS5cREyrfCfR//AAWVS3+F/wDwSk8JeHkaTy7jxDo9lKASuQ91GG/D5h+tfT8jrZlBLs39yv8AocM9D9Dv2QNHg0n9n/w4sIGJNLhfGwZUbBgA+mMflXq5pTvKJhLc9EkfdLkg46dK8tLlJKeoQkqXiwB6Gsq0uaNio7mYhLkxNk5OCK5+blKE8L3DWusXtlIwyDuA7Y4rWnNT0YpbGF8cZWfwRqLbgMQEj64NeXiox5joo7H40ftFfEiP4feC/iX4tv8AZG8NldRwMzYJYjaMe+T+QNZ4aip1opG9V2gfiZrlzLdXomuc+Y4LEE85YksT9TjFfrGHpctCyPnsTPUpng4NdUFaByqVwqhjJgxjJXtyaTVwL3hqwbVblbeFTknp3NRUqezgb0KPtJnqfwu8I3fhnxXa3VxbSoryAEFQcgkV8/isXzJo+ry/B8krn3/+yNc/2TrVxpcUDrFcyKYn4wDjvz/jXwWax55Nn3GXw5Yo+oNPG6OKaQcjI+vPavnIq0z24s6fRoIXgwAcseK0LOlSdZNJe1OQfLKk/hQB5xGj3GYIowNspBZhzjPSgDg/jFY3lnZXM0M7lACUjK9PlNbUP4iIqfAz8l/2o1ks/iHeGSAnfcMScd+a/TMjX7s/KuIP4zPKZA8sgACjccAZ5r6huyPlZfATNaThNq4z3GannMTq/h/oa6pEykfdVjn6Cs6lblVzSmrs5vxRpH9nXjqCT8uc9sGrp1uYc4mNAg8xTIhwTxzXTL3omPJqez/AvwFqPirXLHTdK0+UyXDhVKjOeRxXzOZ1+RNHp4WB+p37IH7N994QSC113R3QTKpaVYuM5HGa+ExVTnke7SVkfoJ4f0iW38P2thp0uI4IQqjPeuQJ7GxoWnXwnDTRY4xnsa1pJNmKOa+I9q1zdXGnyxYSW3ZCSeOeKIRj7UzkfmZ8S/Dcn7N//BR/w94hgUR6P4/0uaw1GQr8rTKy7B06lQ1fQypQng/NNf8AB/QzjLlZ0OueFJfDXi7WfDDTyCO1kL2+7Iyh5wPzr5rFy9m7HXSfMclqiJBavNKrKrfxYyetcEGnK51qNlcrS6bdXe2fS9QfYXG4lflxtJrphyGciFxYXNp9oERLEFSqkgnHWrnbl0MbXZz2reJLS0tHtYo1SMNneZs7/bFKnhXN3GpcpyGteNTZ37IbmOMMAyrz0/Ku+OGsi1WPrPUb4XEMM0Vk4O3nCj/GvHjCLV0NySI4dUuE+V7JznjDDFZTqRi7WFzo2PCXnXXi7SrUWQAm1GCNsMejOB/MiurANyrprpqZ1JJxsetf8HM3jSy8FfsB6H4RgkAuTrVi1ujPkeYsiMCPfK19XgJrF5lFx0Sv+TOSpFqNz9F/2KtebU/2Z/CN0zbmm8P2kgJ7bogcH9K97MakWlI5XJOVj0uOdpSxYjAP614c6iAZcSx7CD261z83Myo7mM8vkasgByr5HFZzi2UU7hzp3iGC8LfLKCr478j/AArGF4SuFrlH4rBbzwtf2mzcZIWwPQYNefjeaDuzel7p/PL/AMFZPFWqeEvDeseGklkEeq6rKjrIcHALH+lduRQnVxSl0RWJmlSPzFvJHlvpZXOSdoOe2Biv1jDyiqCij5rEzTkMblsirTVrGVMQkAZNBqG8E7cdeKatcDpfhxZwDxLbi5DbdwK7fXI/+vXBjm1B2PVy5xc0j691X4Qwv4dsfEVvFhvIUqyEnng46V8PWxP71o/QsHheammj2r9mW11B7sJctNGMqVZh6YGK8XGVIyR7+Gp8isfXWhW5m0eOTHCDCluuK+flG07nfGLWp0HhqaLzcSHAA4z60Fm1cXMUNvIokBJ5AFAm0jnrCxgj1O6Roz8kgZSB1zQNanIfHDQxf+H7t41Ibysjb6dP61tQaUyKukGfkn+2L4OvdJ8dy3bIzIzsGYg4yDX6HkmJpqNj80z7CVJzckeK2ejNqF/5UIJ2EHcAcZ9P1r6yck6fMfH+xnJ8iO3sfgj4t1jwxd69p2izyLbjMkijjFedPH0oS5WbrLa7V7nVfA/wqj2syX9uNkUDiRo+TuIxj9f0rPEYiEqSaYqeEqQlqc/8dPANhoejWN4jFBKuGY+vNVgcRGrKyJqw5Nzy6K0Ux/uSW2YPP1A/rXsurGmrM5IyUpWPvv8A4JF/BNPih8XLRtStzJBZyB40OR8wxz06YJr4nOJ+0loz2MLT0uftp4W+D8GkaXHHb2gAVQxXbn6Yr5SdKSd7nqRnFKx2XhrwREtizvGyHPBzz9KjkZMpJk0mmyWZ2CU7Vbp3pqMkZt8pzHjrSFkeKcIWLyAEY7YNRGnUU73M5an5v/8ABa/wZe+E/hhoPxr0iSaG98IeJrS+hKjjZ5h3Akdipb8cV9Hl1eFWfsX1Vvn0/GxhOLsbHxWvNN8Xab4V+MmjqWt/Enh6GWaUPkCXuMdO479jXzua0JxfMdeH93c8q1+7lSFkeUgLIwPloTkDtz+FeO2400z0k1ONkcr4i8XQ2FnDb2V9JFN5nKJGcvweK6KNOrNaGM4tHGeIfHE8tzG9rezRogO9CfLwehz+fSuuGGrSdmYJrmOS8QeL9PtLQmK6jkFuC0ZJyxJ6g819Dg8K2rETPNdS+KFzJePI1/Kcno0Q+X2HPSvSWXVH2OZqXc/TBrR1XzAwKqPlCmvhMPNW1PQqRsgltHkjEjMoY9MGonGMpGJ0Hwe0a5vvil4ctZDkNrVucDvhwcfpXqYCkk212JkUP+DmXxVZ+MPiD8MfgCqPK2pa3ama3UAkKzgAgZ6jPNfQZRRcazkvP8dCKnwH64/sr+Fn8IfADwpoiQMi2+hQRjd14UDn34r0cfLSx5v2zsY5pIZXRznJyMV5EyyO8unWFjk8jFYp2kVHczo5TLPHLuzsPJqZzKI/ECPJYrcJ96I5ya5Zzs0VHc57xjrH2zwxNOs2HWAhiTxXJj3zRRrE/nU/4Lm64kHxRi8OiQiQXckyrjjkPya97hin+8bfYWIV6Z+fmvaHc6TbWU11CUkuoPNbI7HpX6Fh6kE7Hz9eHvGa6lOvP0rtko8t0ZxjZDdrSKCo6tisyiW1sZpH3FQAD1NROXKi4R5mbnh25jttTikHJjYcDuc1xYx81JnoYBctVH6J/snato/xF8BQaTeojukQVPM/vcV+d5g/ZVLn6Zlsrwse2/Db4aJoGuzTTMFwcooPy4/xrwq1bmPdpHtfheZZNM+zN95MjPY1wN3Z2r4TW0UBScEjB5wKBG9Ho17qloLu2y6FScEc8UEyM+ONV1SJMgiZSMg9SCKBxMrx7pEWrKbfZlGXG3OMkGpk2tgrfAfEX7af7LOoa7p8/iC0tX2ecxSJFz1B/wAK+kyrF+zaufMY/COqmfJ/gf8AZv8AE0PitYruzlCvKMBUyuPevr6mbU1QSueFQye9Zto+/f2af2YNIv8A4N63dXthtkSFjsZMhsDpzXzeJx7lO6Nq2EjSVj530n4FHS5dWvdPtvKjE8gdYUAGc9KyWYVJRszyK1FLU8v/AGoPh5dp4DtpzprgQxk+YCCSeeMV6mSYz97qeZWoOR4ro/w4u5LC0Wa0djIQdqpyfSvo8Xj4JbnFHCuMrn64/wDBFj4ZW/hSLTNX1GJDKxbzVZcHnGPxr4rMcXKUtD1aMHGJ+tmh6Taz2IdLTbuUDd64ryKM5znqKTszWsvDdrHAckeu2ukXMc74q0m3s7gkJgEZyelAc1zjPEsUMoBU5xjAH1oEfMv/AAVS+Dw+IP7KPjXw9DYmdpNCeVVRAzYQb+PfIH511YObp11JbozqvQ+MP2JPFg+N/wDwTNsG1NTNqXgfUZ9PkRX2uqRtwTj2Ix9a7M+w6jfl23Xo9SqE9Ec9d67YyQSmEuVQM2HfuR/Ovj+Xmjyno06ljx7xn4/gRVa5uZVeMthhj5T2I/DNe/gcNzRMatW55p4q+JkFxbIlvdzKsZPmM6gmRvpmvao4F8x59Su4rQ818VeOIppyEcxueSE+Ukf5xXs4bCcpySxUjiL3xFfvcu3nPgnjEh6V60aNkY/WpH7J6fJYpEIPLlb1zX4m26UT6qr70SWK+0uzlxephWbCZz19KzjUk5GHIz0n9nG3XVPjh4VsrK1XL6xFgknpmvocul8TfRETi0jzv/gonoknx8/4Lo/Dj4aSxSSRaLaPezDAI+XAQYBPcg/hX1mTOFWhKquhzVaiSsftt4A05LHwva6UEAMMCp9MKvH6mscTWVWTktjgWsxl3ZTLdO+RgcVxS1NCEwiVTG6khhisZRZUdyk+nGybYo4zms5U5MonuLeGfT3RxwV5rlrUZpIa3PJvGszWdhqdmXKoICy5PTkD+tcuL2RvTi2fzkf8FY9Sm+Jn7b03hqOYkR3yWKdxvZwMcV9NkP7rDyl/XU0q0m4niv7c3gGXwD8TE8K+Usf9n2FvCYcYKtsyT9DXv5Xi1jarjFeR4mJoy5jwry5FQpLGc54NfRObpv2ctzltd2Et7aeSRYlByTxiteX3bkpXlY7v4ffD7UNb0ue8+yM6IcZx3rzMTi6cLJnrYXLa9R3RZ8P/AA81BNb8s2Tq6uSoI+924/OuatiqcqVz0cPlVeNS+h92fsM/DPxFoFjpd3cxkRySlpiBkdRxX57nVaElaPc+5yvD1I6PsfX17ocAuZXjgwxAKuP61825NnvQg4mjpEVxZKilDtI5NQ3y6m/Mkje0sOJlZRkFvmA9KakmLnR6D4B+2LpEnkRqRDIQQ3XkGqInNWON1FUstREW1h9ndgoPcMaBwqIj1a3Mt9FAyZ/d8kHjJq6cVJ6l1HzqyOc+KXw+tPEOkw2hgkZDGd4Bzk1tzOD0OaVNW1PI7L4O6PpGsO0WmL1yrMORipliqtrXFTpU7ux9IfsweCrbWvBfiPw+pSPzIRt+UHAOP1ralWUtz53M6Uk7o4b4n/sv6f4L8I3ci2cbqUYvti6sf4q6lOmlqfNylzOx8rfGP9n648Y+GIdI07TJJJTKF2KmM5z09aeFxUcPPmM5RQaB/wAE7fGXh7W9KOp2TFQEk8oLkAY6dOtdUsfKvPQ55qKPtj9jv4fL8NfMVtKeJoXyDj3HaueSc5XY/aR5bH3X8LPFdte6TEZrQB9uGcnNW/ZqOhzyV2ddc6xp/lyTD5Qq+nektRcrOM8Wa/bX67IGD496rlYJWOQvoxdsruNqg8461L0KMT41+EoPEfgWWx3KxurF4iZOgyOp68DvWuGknWSM6sXKOh+QP/BJ65fwv+0f8c/2PNYZhFeXM1xZRy4BBV9rFR6bfL/Ovpc0oOpgYSXa33GMJezlY5rxT4xu9I8W6r4IaOziOk6pNBJHISHZV79PcYr4mGFmpnbCfMtD55+J/i0z3N7c298iRoGHyDPO4cc19VlsFFWsY1WeVa7rt7bo4gmUsUAZifXnj8q+ppUUlc82q7bnG6jql3cEiebcQfvd67aaijmbTM9r64JyCPxrpTVjNxP23066nlUIzIB6gV+DOEprU+1lsSmCC/lImmRvJG8LjnI//XXKtKliD239hXw8/iL9obSWkIkSwBnYL/DgZB/LP519bldNezm32M6vwnnPwF8Pp8U/+Di/x5q8s7zjw94et44NxyELtg/qtfSZPFRyyTXeX5I8ytuftB4dUJalgMZJZs9egH9K8inKTbT7nND4hZUjmkdVHJOa0NCjqKrp0QmcjhhnFRUdkVHcZfwtLGJMDBAOax5iirbxNLG0fGSDjPrUTfMkNbnjnxltZ10rU51i8x/sshSJOrlQWwPyrysfLlOqifzmfFXT9Y1j9vebX/GGhyQT23i4z3ltMAMBW+UEHpwc/hXuZXio08K03uv6/I6Z6xML9tDw1e/Fj45a3r2nWEstsjjZJGuQ/Awc+3I/GvQynEwwtdy8zz61LmPnLx/4Om8N3kUD2jwsV5Eo6/lX1McXGtV5keVXpShG6KngXw7c+IfEsemRW5Y5IBUcZx/hmt8RjFTpDwVFzqq59xfsQ/s13Pin4e391f6ZuQ3JVMpkvj0zgfrXw2Y5paWjP0rLcBFwud1H+x28Xj21uJNJR4NpIRVAKcjhvevNnnEnC1z0VgUpbH1B8H/g/a+E9AiisrPauCdjMMq2a+exOKdZ6nq0KSpo6650edkdGTYAOp9a5eY6B2nW5NsUlcNtXgj1pp8wpbF7TPKYrCXw7NgCtYQIOq8PardaXJMtux+f5SjdfrWso2RE9jL8RJDcaxBeOhCOfm471mOG5DchIZke7Xeq8nae3atKXxGrdkSa3dwWtrAbZF2lcHceeauRhOZ534sv7RrtlCruIPTjFctR2Ipzs2d3+zj4itdGudQ82doBJCoD54JGOP8APpV0pnkZi+ZEnxS+Lcet6be6al6ksRjZfmfAGPpn0rerN8isfLSjadzA/Zuj8M+PvEMVtfaaCbeVSpYhh144zTou+5jI+qvFXgrT9PubO5TTreZHQAOF6e1ehTjFbHNUKY8O6JFrgtYbNIt6jfjucj0rQxOxsPFuh+CYhpKQytMU+UKcCplsBz3jz47z6fayw28gjPlnO6Qn8KcQPI4v2jri4kKy6oUj3HDKQSTnp1roirgdBpX7QFrNbraSXxJY8OcY/nUziB2msePrK68FRX8lzvQRFWK+jcH9Ca523Tmmu4PY/FPwj47tfhX/AMFyp/EsV262+r6pJbXGOFYyRk7R0yP3a/rX3N3VyhJ9H+Fv82cEv4pk/txXuo6F+3p420PSbJxFPHFfQBE+Qh48kk/hz9RXj08LT5FN92vyOuMuWJ80+O/EEcu4oqjzJP3yg9Cc/wCFe/hMJHlujmq1TzrWNSlWdj5zEHjGeK9SMbaHBOfMZUk7EEt3reEDMhBcd/1rflA/bbTo2nARiy4Ppya/EYTpTTSPsm7lqzsGjv8A7OxbMmcbep9q4Vhakq10ZuSR9X/8E1NDgi1TxJ4xaLa+m2EyhnHIIjP6V9NRk8Ph2n10MalROJ4h/wAEVtYi+L3/AAVR/aB+LziKZobuLT4JUOSfJlkDn/dJIx9DwK+oyfDVKWAcZPe7+/8A4Y86rJNn7G28ohtFKg5dAcjp3rzZ0vZtx6nNBpzCByX5BNZOLRsZ3i9Wl0xwowRgjNYVVdWGtxvh/UI9S0jax5XA+auZpoq4lqgS7CEjGSePpUxfMwT1PIvjlNNZ27/ZrkQGSVU884/d7mA3c/X9a8vMYuex3UI3Pxp/bz+Al1pv7e3j7VIo4rye8ubZ7K4jUFWDRgHA4weOtZ4WvePs1ujulSfKeg6V+w1YaL8KrbVtX0SV3u4N0zFst8wz09a6pYmUXoYOi2fmf+218Ov+EQ+Ms/hqC3ciPiJG6nPOB+VfV5JiXUi79Dnr4ZOJ3n/BPT9ky98e+MLjVNY06RoIAGPzYK7sAY49zXRmWOiqbQsJhXGpc/Rf9nr4G2/wx8KXPhWyTMcF6TFMz7sbsnocHNfnmKqTqVGz9Dyt8qszqr/wjYDUWuI4gCpH8A59T1rgnznpODk9Da0uCKCIpHbkJuBVsAdunWs27bmqvBaiXOmPchkXgMecHnFNahzopx6CttJ5e9wo5HPet6MG5Cc0yK6lk0u8RmReeAw6iuyKSIc0jbhuYfJTZcfMwyWY/pVTjzLQhzUtEVvEd1Fb2lsj3I81ZOQT2wa5W0nY1pptmhHYXNzZxypGrbxnJPGK2pK7Lqpxjcz/ABVNFp+gia4Qbt3y7fTBpzdjik7ni/i7VrpppZYrd2+baoUck9f6Vw15rlM07MzdR8a+J/Cnhq41fSJZ0dl27doODg8Hn2rGliI81jgxcHJXPCvFX7W2o+G7pND1FQ0txnznkOBk+nNe7h8PLEbHzmI91noH7If7T+iaZ8U31G41BobRmRdrEY3Dr0NdE8DUpq5xN8x+kWhfGnw/42+HF1q9pJzYxrKZAPl24Pv1rLD8zquLMp020c34Q+MWj+IPGNslvqse9gpG4jBBr0PYStuckpcrsei/EA26qPEjBZQkOcI2Me9Zyg72Kj72x8a/tVfH7+ytUlt9Fd0EkTqQWJJbaeAKqFJ9weh8baT+1D8R9P8AAMniJmnCQ6nKpMkZLEqT8uBnjv8AhXRCDiS5JGz4Q/4KBwahYka4vlzxkD5W2/1rX2EpK6JdWKPaJP299P0z4Gy6hNNlLR1LPHNvboegz/Oud4acppeZMq0Ej4J8H+P/AAt8X/8Ago7o3xAuLx50n1JJI5Qm1t2McDOOAT3r6u1RZfyrRHG5xlUPrL9vjTNGuPEmq6z4c0OCbUJdGEX9oAfOQAABn8a+dU5uryLc7HGU6eh+XvjLV7trxoZQEKMUbB+8ynBP619zlsGoHl1uZaM5mSZ2YmR8nPavR9neRyq6dxrMCMCtVGxfMhtaaBzI/cO3uHBEyQpkLkKOtfzuqjT0PsTX8L6PrfifxBb2VlZq8zglQp6AV7GCi5O7Mp7H0F/wTc8SXPh/RPiR4b8SlorsSzRRRzYBbcjAD6c17laKdKKXc52rnhH/AAQs8Ca7+zD+2b8YrTxp5kEfiO4W8sDKfvBppWYjOP7yfka+hw2MbpKL6KxyVYH7N6BdSalpMEinIaNSpPfOa5K8by5jmhG0i0PMikwB0ODXLI1M/wAQ3Qe3eByMkdq4cS2o6FwV2c3o19PZStbgnBPGPrWMG3uacptwSMuJGYZPA5qqkUoaCcTyf9paxkudHVY7fcDtLKR1wwNeRiYykdNCXKfGPxE+Dp+KX7X6+KbvSRBbxQRZIhyHZdoGfzNceHpyhVbO51eaNj6c+IXwi09vh/BFDBGDHCEcKmM8cYrs9jNu5PMflb+2F+xxF4n/AGttO1u60ANYWMZmumKZEjYwMcc/e74rtweInhpu3UPjPon9jn4J+ENE1lYbfQ4YlcgsI4QOQRz71tXxXtVqaUFyzOr+I+nxaL8R7+xsFCCQ5QKu3H4CvHxMYqN0fU4GrYxNViSGJZmBJYfNnpXmyPWjVILLV7W3QWj4UdQc9/SueRrKpdWLq3sKqJj909yaqJnzA91bSkNGByexrog2tioTV9Sh4miintUuUyBjIz1rrpRlIJzgYfirVbjQ9GiuFlAZyB15Awa6vYz5TNThzHG6/wCLbi8tU2XrFkmXcx69DWH1WcpmqrwR7F4G1GS68HxTC5DP5PTPPSvTw2Bla7RjicXFwtc43xvrkselskrliM/Kfr2rkxlD2Zyxrcx5/bQ3Gp3EzEMFJHX+H3r56tI1TuL4zsYU8OSQXAwiRliVxhuO/vzWGHjzVTDEfAfnx+0ffQJ8RWtYgp2yYXJ+vpX3uWUND5PHy5UVfAmoarpt62o6bIxUOC/lvjbx1rvxFF8hx0nzH6nf8Eu/Eeq/Ef4HeP7DxJK0gtNMCxB3zgbetfOVb0al0dE6donJfCu/1Gy8WNNHvzbPtDZ4xmuunVlKJ5dWPvH3F4BsLPxJ8IbnXtVuSfItmLAnr3xWM5Si7mkI2ifIPxxv/h3da/BeDSYW3FipZQcYOD368041JESPDNFj8IyeAfF2gxaJbyxR3skyBYxuXIPSuqlVfNqc9RNrQ/P74waxZ6Lcz21vZeUGuWPmhu+T8v8An0r6bBUo1o2OKrKUTm7H4631h4Y1Hwg7sFuY9qvvJB9q9OOWRcr2OGpVmc/8CPEV14a+MXh7xALoqllq0eHc8hWbBP61ri4KFFq2peGm3NH7aWH7O3hPxl4Zi8Zqwv1urEmHcNysdmTn+lfDXlTxTbPoly+y0PxQ/aa8HL4G+L3iPw6YQiQa3MYlCY2qxJx9OK++yqrz00eJifiPNJwucRk5969m3vHJ0GoWU5Y9qoQ7ePQ0Aft7GIjNHvJbOB8h9TX8602vaWZ9m3Y91/Yb8F2nir41x2cqFhFp0kmC3TPQ/pzX0uFilC5jOSsYPhfx9feGP+ClHiD4P6dbPHp13b2Ny8jRsEO4lWUnGM9a7MO3Wm12MoyVyn+2/wCMNY/Zv/4KB/D/AE/wFo7S2niDRJIdTmQfdInjIP5V2YKp7apyIxqNM/XP4R3MV94L0y8aN8Np8DDcOeVya9evTcY8r3OSXus6K5gjV8qvVq4nTkyedGLrulRyHzEUkn2rCpQbWppSqR5jGOgPGDcIo4689q5KlJxOpSizG1fxVZac4VrrBRufyNczn7N3lsVy8y0OX+JOuaLr+hR3FzOpHlkEE9PelenU6Cs4nD+H/h3mCHXAymQvneV4I7YOKSoRTuXCd2d/qmmx6joy2s+WHljI967lThGnctVE3Y+Yf2hfhnYp4xe9MYO23xIy8k8jjmvFxNelCVjroxe5yfwqJ8OajJfbUj8p9qAHqDz/AErkdZS2OiNKXNcyPiPqFvqHjRtWQkyNw30rGrJ8up6+EbUrHO+JDPc2scUGN27n9a5ZanqwkzOl0kpCsrAbgOcmsKnuq5um2Z2o311ZQszTDaOxNFOSk7ITlYPCni/T9TR4luVLISDjsa9jC4OdRmVSrZHTRW8OqaYkSsGZDyBXuUcBKKuzhnitbHJ/ErTLh9IKv8hVgFJ6d663TglaxPtmle5w1/4eke3Lxl5CNuQi960oYWMpHPUxfKj0zwZqk1hoMVgUClI/mI+nSvZp4WPJZHIsZzux5/8AFnUddu2SC0twqJJlmHU8GvBzXL6vK2jroYqN7FLwhqVvp2my3usTo5lHyKCeAPX3r87xSlTnZo9qk1JXOG+Mvxg0qz0a4trCWNl2lc7uhweK3y+jOdRMnFQtTvc/Pv4x+KX1zx/NMkiIrN88qnJAz0HvX6Pl9Fwhdnw+Y14yfKiDR/FH2G6UQXIUQEZwxxIPQ/pXZiKb5LnLh68U9T9cv+CQFtLY/sy/EXxnqcQi/tC1C27EnAULz1r5DGRvOx6sqkXTIvg3Z2+trqd5AhI+1bVYDrjOaujKMVZnm1LN3Psf4K6PLJ8IL7SLyOXy5rZhyPaqrSg0EWpKx8vfFL9nXTb2+ik0+9kBWRt4kz0J7VEORkunJmR8L/2ZPCunX2rDVHMgumyIj0bjvV1YtxXKKNPl3Phj/gpz+zN4e0LW5LrwTpE1qFhZpBDHkbvX6e9e/lONjTajI5MTSXLdHwHDpN3Dq8kd31ibl2/ir7mnWhKmmjxJuMXqXI7e4j1Fbi0kJZDuUAYAIGQfzxWGJp80Gx0ou+h+/H/BIqaf4v8A7Jfh/Vdau1kmhsjFKpbOCo5/+tXwOZctJq3c9mhKTVmfjr/wVb0Kx8P/ALZvjGw04bYVvAQnuc19Vkk70kefifiPmQqUUByCTzkV9OcnQSgQUAfuRFvtwWjtchMdfXINfgMqMV7yPs5bHuP/AATu8VCw+PWopdOgePwxO8XH8SY/+Kz+Br2MK7wsc89i54bsrD4g+P8AXv2gdLjWVbTVxai+3/L+6ZB2HT5m71s74Z83fQxR3+mfD/wr+1j8RtP+IE1tFdTaPP5CSnkxghWI4z3x+RruwtOdD94ZyP0C8FrY6PoFnpMIIFvaxxhcf3RiuqWLc3dnPNXNwXELsHbIHvU/WCORkV29tyRz+FHtuZDjFpmH4nvbTTdMlM92iBkOMHr7VzVZnRE+dPHPxU8MaXcTW0l3ucORg4ODg+9cek3ZnTDY4C1+NVn4r1228I2dvIxdthJUYPI6c110qUSJH1B4e8MW48IWls8AXEIxx0PvXVKimlYwlLkVxkmhmBVi2g7mCce5xRVhy0gpT5pHyt+0x4v06y8Y32h+ehnYYSAthl5Iyfbj9a+IzOfK9O59JgqanueP24eyjmuvMfLckK2RXmQxEj1o0IkJtEuplmkVizDP4V0wqynozeNJQdyC5sRPL8isu098VZ0RI20kTHbKzbfaonHmR0w2OR+I3h+b+zpV08b5CPkDNjBweazprlmRI8Y8I6xrvh7WZLF0cfvv3gI4znsa+my2a5zjxF+TQ988C6kJLSOacAbscE19ZRjGUTwK1SUZGj4xt9O1G28kxDBIPXrTnQi2R9Yk0YNzp9tZxlbO1A3qNm8d66KMIxMKk5SEtyYpyMqpkA3AsOtdrklFWOdc0XczNc0rTZbxlvLzK7CSFINRiKUatLUdOvKMzxj4s+JtE8E6fe2TagY9inbLjIGef6V8LmGW05Suke9hcXKx8e/Gb4wajdWlxfW1yoiiU4Tp5h6bh71rl2XxjNaBi8bLksfNPifxLcLqElxIxPmuCxPRSea+7w+EiqaPjcRUbqNsf4P8WCbxNbWtxHuWe6RSv95c/wD6qrFUEqLM6MvfP3O+DXiTTfhf+wfNFZQJA95piJ5cWBuZ8AHnFfBYyK9q7Htc16Y39hvwyPEPhNFkk/fS3Rd1c9Rk1jCBzz2Pv/wV4OisPAZtUBTfCR8oGelFam3DQyg7M+fNa8IXNzf3ILPJtnYKMdOa5kpRNedFOz+GV3NqJn3vADyWwee2Olb0XKbsyZSufOf7Znwm0/Uri7tbudpPNsXiOEByTjGK6qFRQqk1I80T8bfjP8OdU8AfEnUvDuo2ZjeC5O05PzqeRjivt8DifaQSPDrUPeMu00KYIJjbsoK8k45Fdtat7lghDlP1T/4IcftETeGfhlrXw7vbobbNy8Kseilf/r18hmVF1Gn5nfh3qfnR/wAFR/Elv4o/bQ8W3tiNyGRA0oPBbnivqslo8uHXqcGJ+M+dn3Fhk9BXvtWOXoJSEFAH7qw2CvG0xvXY5yUwMCvwRyairn2b2LnwN8fWvgn9pyz0q2v/ACVvvB+pO8qrnDhBhT+v5V62BpubVjlqSSR6B8FdYh8L/wDBEDxH8StJlP8AbMlnqM6Pn55J/tDgN+YX8M16uNwc3Rg13OeFRSdjuf8Ag2n1TVfiX+xvN42+IE0smtXXiG5+0+d1ADnZjJz93H5V7uIoUfYOnTd7dRNtrU/SS7u7e0uAUON3CjvXy9SXs/d6mS1kZvibx4fDtvE00i/OcgH05qFJsvlZQT4yW0pVIjGzN/DkZrSM3T1YuRs4b4reOZkspzd6ikBZSYgz+x/WlKXtNjRRaPmi/svDUl9Pc6hq9xPPO5bBGAPxrNUprU2i7EXwI0vTdX+OOnadbq3FxuQls8j19utb0pSUrESkj7+i0UWelxpnnaCR9Qa9ahCUnqcWIl7uhm3tsIh523O1gRj1zV4uHLSFhr85+Wn7Z3jrUNJ/4KbXPga/IFnceGLe5hRWwM7vmJz9a/PMfTlWqNI+wwO2hoX3iSxiQQJhcDLENnIPSvLcFTdmerGTQWXiK1uI1K5wrdW44rSE4xN43k7CXV7E0jSIybepw54rrgudXNkrFi1uYyFaIAg/xA5FVy2epqpJEWsaKl+jP5YbjjnHNZOHvXE3zHnGt+BRHqZuRBk78kBeK9DC1vZSJlSbidFpajSoY2uITsQZIx7V9NhcwglY8TFYWV7oi1/xJpkOkR38F2XuEk2vGVOMHJ/pXoPGQauecqTTsznte+IG21R7m6jiyPlPcn0rSNfS5apI5S88XRNG+pOsrlRyyycAfnVU8ZFzswqUkomfaeN7ZrgXM0pXep4aTnH4muuWNg4WSOT6u73PGvj94l0u+gna4uNxZvLWEdXYnA9sfjXh4jm5uZ7HXRap7ngnxH+EkB0K6uBpzS7ISxYS5CtxwB+NaYWvCElcyrxc1dHzp4l+HF9cXbNDLIdq7miZflzkf0NfUUMbScLHh4mm7WR0fwo+DZm8V299LbyNsuY3XI4XHb6VyY7HwdNxRlRw1Tmufpd8Uvi7bzfs16N4HsLkLKkMPm7D/dOe3NfEVG3WbZ66hKMNT1z9gDx/b6XbWOmhkYggsWY5PzZ/rW0LMwnsfoqnj7So/BazNJGji3YkB/at7RS1MD5q0H4tWV34gvofMBCXTDO/HOaykoPYC9rvxLubuApYgx8EqxfNFGn72gm7HknxJ0u88Twy3mpPuBGNw5I96zq0JU53ubppwPyw/b08NR6b8Y72CeyUSvHmO5Ynke/tX1GUwnbmb0OCtZPU8LluxbiNJrFSyoRuD8Nx1FetOlNo5m4nun7GHxjf4X6re3q3Yi8+1IAzhVYYAPvXlYqGiXmXRmoSuz5k/aO8TXXjH4w6z4qvZ/Ne7uOZDwTjPb0r6PK5xjSSOavabujgXBzmvYk09jlashtQSFAH7p2M0E0LpcIdrcqc4P4/rX4EnzWR9lJ2R1/wl+FcfiMeIfiJYWJebTdHuIrVljyw3xNx+levg6ns2c01zF39hnxzo95/wTxm+DHiSximu4FvIbm0uUBAbzWOCPckH6A161bFc9NIyhStK56V/wAEv/Gp+C0N54buLS202yuLsPFHbJtjZhkEjOPWuynif3VhziffXg3xpofi+dL1L9Xwx6kYH6142IX7y5io2ZxX7R/xA0PQ7i2MsiAD5SrtgHryPyqIDPHfE3x48NeHDBfyTwxq5Az5nrzx+Vb8nOrFR3OS8aeOvGXxV1eO18MwH7EcZu3GecdAM+/X2qlT5Shui/BG8in87WddupX3cxh8AUN6WGj0H9nP4RWnh341adryWjKvmEB5JSSc9sVMPjM5H2jqMWLcb1wwAX24Br2qL5Y3OapHmOa1xB9kZVk24dWbA6gEEioxNXmhYKCtM/Lf/gsN8ONW8P8Ax70D4+6Bphkmgtltrl4s7mi+YgdMddvftXxuOouD5j6rL6iT1PHtM+LD6jpMU11boJ9gjfZkgEetfNV+bmPcpuLOh8L6vqWrQeZA5KA8gAjFTTjOR0S5YRujqL+yuNP8Ot4huJdsQX15Pt/n0r0oRlGJl7YydK8f2txNHHHc7e2wkfnWSnLm1LhU5nY7rSdSN/b8Ju+XuavmN4l2w0Sz1KFi9oQw6Ec0nUcdjWTtEwfG2hy21qy2soUjgZ+hrpo4mUTgrR5jzPxbH4lj8IyXKX0SLHdDdwM42tXqUcY5aNnnug2zyTxPrpisLmfVtWAlRf3W3LZ79B7A16tHFKWhlKnyo891r433Efgi+1TRtKkulN0sFvcswWIvgkgknI6HtXp0KXNK5hN6WPPPHfx98cWCR/YoLZIplVJmlO7yyQTlcduOtdXsTI4Lwxqnifxx8Q7Ky17Wrm5WS5V4oUk+TAP3sH8vxrnxNO1McVdnvt14QePQL22uNR3B3JWEW4DewJz+leFUqShLQ1nD3DxzxR4BL3ssj2WAR0VRwB61tSxlWKPJlTvPU7b4UeBNLnh8+G3OVGWOMcD/AOvRPEznubQhCLOj1S2u1t3tjM2yMFQFfnHpXO7Nl1XFw0O1/Z4+LFz4C8SW03lOiiYDcz5wv0/KqUuU4Z7H1/F+09f634dkggvw26MoCh4GR9aHVurGB5x4U8cXGm6pcO8wd5JixwffrS5gPUPCPjS2vbsh/nWRMJuxgHj3o9q4vQmRqakkeorJFgiPo4FYYuvLQ3j8B+Yv/BVXTrPS/izaTpGWLWj4AIw2CBg/nX1OS1m6ep52KdkfJkMjcPKuQ4yBu5X257V9OneJxcwS60tlZSwWlxJHI5+XHGfaueNCM52ZMpO2hwHi77Rc6oZnbIx36g+9e1h6MYR0MJykY0gwMH1rZP3rGUZSb1GVRYUAfulYQX8tixeOJQRgZJ+npX4NQpSbufZzi2j6f/4J+6PZa18PvG2nXpz5m2JNoyR8pzivQjQmle5lbl3PBfC0Mfwp8b+L9PstNC2rXj7RKuACc5JH50SlKOjDmid74E1jR9W8KaXrVkdnkiQFk4Uc8k110arasRKzPoP9jXxrb6++pL/wkEckcM+3aZeQPxrd0ZVVoYzidX8ZfD/hrx/qSx6pqgEUHy/LICSfwrL2cqbsyOVnhXxA+DWheItaj0+ORp4bKVWj+cgAjIzx1611UVZ3YbHq/gH4eta2Vr9j0/KrIo3ZIwMH0p1JRHzI7w/Di8muWDQOfmHANcrmrji7ncfDr4WSaTrVrrExdfLbIye9VB+9cmSPZb1w9uhaQkhea9CNaPLYx2Zy2tXLwGTIBG05zWM5phGL5rnzl+2T8L7H4k+DvLvYQ7REMmR6A/41wYqKq07I9PD1HHY+APH3wT0nw88sbPNbbJWaRoT1J6AfhmvmsThuV6nuYWpJs2PhNp+l22nfZI55psHdtkPb3/Oueg6alZo9SpzSpm78b9RNh8HbubT1gj8uEk75MBRzzXb7WnJWSONzs7Hx78Ofjy8mufZLi6imZZ9oVmOTz1HbFc1ahOK5kjpoO0rs+mfCnxKhnsRLGy7QBkq3BrkvK9rHoQWlz0LwD42gmTmRRv4G49fatORpXY3JS0Oi1nSodViLMo3MMjcuauKMZRPLPin4c1BLSTSI7QeVIMsVQf41rFuOplypnz78VNGOjaTdajJaKrQRfuwCU3ZGOSAcjmvSwU5OornJXifG3jjx74o0q/uPh7Mw/stZvPe1x8spOf4uo6+lfb4WUeRHnSg2cxfa5c3MUdjNdnOwrDZ44UegJ6j612KzJ9nI6j9nOOS7+JNs+oIZPsoLqyt8qkEDb655P5Vx5haFFMunBpn0V4s8TfZN62pVQwLbW67v8OtfOS5JyKqTjGJ5n4h1qae53hmkb7zqDxXWqEVC55FWSTudX4L8dRw6fHpySQxs3JVVzge9Yyot7GLqM05JI5oHvZHY7uVKIAD+tZxw807sFN31Nz4fiG4uMTW0bHYSpY+4rnq3UrClZns3hKxjbT91sFViMFA3H1rNRlFXZlysreIbHU9N1JJrJzGMZfb/ABD0+lQ60U7Bys7b4b+J4H1WOGdlV4gN2G69K0Ukxezctj1m31iG7t5Ps2zBwDuGe4orUva7GnwRsz87P+CruhLJ400zUYdjApKp2jBzmveymaj7nU87Exc1ofEl4JI52juCodGwFLY49a+toy904XSkupBcnzLbPmA4bgY6H1FN8zl7oRjZ6nOeMmlKxyywBMED5f4uDya9TDOdrMJRgzm5GDLvzgZ7118jWphJJbDACV3YOKRAUAfuXYybo2ElxJsC/wBRX4BDEcjsfby2Pe/2CvH1v4T8X6toRu28u6kDAEDHYc5PvXtYap7SJzz2PXPFn7PHhvxVe6zr9mvmDUGLBVT+LFazo3OduyPMPAnwlsNJivvAz6q1lLBvKxugIbkdM1cIcpPMQ/BnwB478J69qFpoGso8M13hwq42jPU13UHrYOa561rfw28ahUaK+Yyuu47W6+9Y1fiEdJ8EfhBrtzaXt74hkBYy8GQ9v8auLtEUtj2zRPDdjo3hjzIkH7txnjmhx5iDftreG8kjZRw4BqPYjTsdTpVosUA4+76mtIUjOcy/58kqE4OFHeivBwp3RkpXZieIofMhbIPzDiuZSa3N4nmnxBis7+0ks7sZRY8tmqcoM6qe58VftD+DLGPV7t7Od18xt0ZAyOh4NebiacZHq4apys8v0iSLSrELd3artfDYXBI/CvHqYez0PV+sJxseN/t5/tGeHvAHwOuPD9mzNeahmGIMccYJJ657Cu/A4J1aiTRxyq+8fAvhP4s6wuoJPbzqoYrtG0gr6nOOtfUTyqDoam6re6rH1N8HPi/4i8TxPplqzJb26KsBH3m6ZJr5bHYONKWh6dGcpRPd/hN461EXKW8l15j5IKScYAI+Yf0rzYRvKxqlO9z6G0XxAtxpiPNk9BlzjmuqFKJE+Y5z4kNY3cihpXwy8hD0rb2cbE0lLm1PJPjT4Ti1jwk9nJukjyP9WvIGD1pU2oT0KnS5j43+KPwQfUdcuPl8mYOF3MOqYPt9K97C4txRyvDNHKj9n+/D/aJx5jIhWOZE3EfpXoQxqF9XOo+Anwnu/DHih9RkSUgKxYPDgdRz/n1rLG1XiKSimNUlDVnR/FGW4MxdTkHIHlr0+tcNLASlrc8jHSS2POJWuDIzgPwpDHaen416MKHs1qeApylUszM0DWHW9uHSUkgFVAPI5FacsTU9Hg8ViPR7S0+YKsf7xjj735/Wk4xsJuyOk8H69E8yOkmV24wvrkVy1MPF6k8x7h8MruVbXz8HBGMZOe1cteCULIady5481921BIo32hUyR3PtXkyj7xRxvhP4i3C+K1063c+eCd2SORke9dCjaBUHZnungPxneTwGOSQfP1A7YIrknilB2L5eY+Xf+CjXhW/8TaZBfW2mSTmCRjk5BGc8jGa9XKsZGNa8jlxNJqGh8DeL9Fura4kiRGUqAW3g5Ffb4bG0pRPNlCZnQiPykQEuwTJ2qetd1OvS5zJQk2Yvjq5drONp4GXnIBXHHIrvpVYPYxqqUTk3jLZVhgDGK6lNyOZSblZih28vyyBwc1RYlAH7rw3M6XBtDpyhdm4kjtmv5x9nOpUsj7WbsjoPhLfDQ/HcGozSrbxht7lW5fkDH+fSvpcDSnCKuzmnJH6C/s/X+ja1p8EvmJIsi5xkEdq9aLjN2Ry1JpI8/wD2ovgddReMh4s8Iztb3EsJUnHyE5B7fSm6djNSTMr9mf4b+P7Xxfd/27NFPDKNwHlHG7K+31qqMXGWo1NI921HwNqcHiiGMxI0UkBZcx/dORx9KKtGTdy1JMZNqUfhPR7gS7Ud5sAKuMDmslJfCU02jprK4Fz4HefP3kByehNdFNJmb0LXh+9aNI5WcEDAIFbSskRKSOttdYh8n513DrjNZ/WKcN0Q4ylsVrvxUISyxRhAVwOazni6NRcthKlKLuzB1/xl5EUTzTAB+gzz0NefWmpfCbwTPE/iJ8TGt3v4xcqflIwT0FccfaKWrOmnF3PkX44/EqRL13jnMmATtrKrOx10+ZHg3ivx/q97byQ2b7HmOMg4Kjr/AErKhVg6nvHVGTS1Pkb9uC01yfwlbeINSmuZWt5Gx5rfKQx4x7/0zXv5e6UqqSIkpN3PFfAWnnWNXs1dWXfIqyKOfx+lfQ4mqoYVNHdhacqsrH2/8J/gj/Z/h+xuVcJuO8sMruyCPT0Jr4nH1OeR9PhcM4x1PTdB+Ht9pM8NzA5+Vwp5/gH3fxrx7NO6Op0oo9c0m+l0+wi+0OxTg4Jq1UaMJQiNmnj1q4CKudz4H0qpVW1oZKC6FfxR4Ukbwzd2u3kqMEHoM0U273ZSgeK+LPBUUuqy+bYI37sAPIuTXoe2jy2QSgrHO2Xh9LRmSG3ACnkBAP1qo1WP6u7XO2+EPwgj8ba1PDZ6czSLENxDcHcRx0pzrVWvdPNx6cKasVvj9+yjd6Dbpc2tmY3eMhkVsdfwrqo4utFWZ8xXld6nzr4q+FWpaHfLp6wyMWIRwzjHPetqeJqSl7z0OP2DvzHFW3gE6f4juNHls1JjmPmsoPP0OPeuhVbkuDR0VppWkJd/2VJCyBhg7hROUrGc1dHcfCj4eTX16qRRHy0mAUoCePyqva+7Yz5WfVXgH4J3jWgWO3cqqgk4wDXK6cpyHHRnkn7VGr6f8Mb1Lq/aOPHC7yRk4PH1rnlhJt3uacyPFNI+IemaZ4o8P+M7WOJobq5MN2zycISep/KrlSahYqPvM+2ND8JMuj2ur2duPJuIxJlcEHIyCMV8vjKVRVLnTTi7nOfE/wCGg8Q2GyW38xthG0r1J+tRTrTgtDadNVI2PnL4nfsQWV/bfapNKiEj5dgOCTzjt0r2MNmsqSszCWDueIeMP2TL3Rt7w6eybF+RFTgmvVoZyqk7XsZrAtMxfix+yre678H/AO0tP0kNd2ib3ZFPYHjgV72Azuj7RRbOXE4CVj471DT7nTruS0u0dJIjtaNxgjFfbUasHTUk73PCq0JUnqQsjKAWGMjiulvljzGfKxKcPfV0S9D92JbH7XA1pdak20rncTg59OK/A501GN0fbSV0V7GS2s5EedWZYTtD5PNXTxUoaHNOB9G/srftBRaVdpoUkuBG45Zu3Fetl9fnq6mEqfMfRnxU8YnxB4etL3TPnBA6mvai4yMJQ5Tb+A15MmrD7UiKDDzgnOcj1rRxS2M29T17Wby0ttRsrl3XaUIOamfwmkTwv49eKlv/ABfB4Y05kKSSAyeX1614eJlKL0N1sek4ez8AR2yKRtgUD8q6MJOb3MpHO2Pij7LGVa4wSvAr1av8JGNryLdp48ni+WS447nPFebVOiECtrPxNsLd8vcB8fw574rlj8TLlDQ8/wDiV8Z7K3iguhNHFsUnDN160pDhA+bPG3xlvL+4vd95ETLKdhVjjGDxXLW5uXQ6qaSep4b4q1HXvEl7JEkBLM5CGMZz14rgnCrI6ochB4X+BXivVrc6nrNtIis/7tSCD/L0zXLKFWnqatxSOT/bM/Z3t9T+B2pwwWqiSGAPG8ycAjmvXy6rNTVzanGMj4y/ZS0CG98XSaZdzRvJDdbGPljpkdPyr6zE1L4RHp4amozufpL4A8OWZ0OCzvJ0lMSDYnljAHr9a+Nxk/ePpKHwnTTeHbXyAYokxn7pXFeepXLauw1LTbY6eQse0qvrTMZwMjwiHGqqs2Cobpn3pN2M4x1Os8UJDBZzKsQ/eRYBycf54qoTL5TyrXrdXvXna2AQLy2a3U7CcTjdVawiuJEMWQQW/p/Wumm+YcpcsT7D/wCCYvwdsvFdvdeJrmFpImKhQ0WemK7qdLmPms1xHLT+Z6X+078E9Pvdekb+zkMMETEqYsY4pyp8p8tOtzSPhjxt8J4L/wAZIsenIzeeSQIs8A/zrGU3HY6Iu8T5+bwm0vxX8QREFRHetsyeB7Y7dKqNSRnPYpPon2jxQquiDLEAlf8ACt1VfU55bH1j+zH8Dzd+CT4hlt1Ikf8Adkqf8KPakH0/4A+FyxaLFDdRt5gHzY6dOKmdeyA+I/8AgrD8MY7nwfcm009pngkWRSMDaQSN2foT+dEa0mB8n/AP4a2/j/wrr/w8HlNdxMLi0WWTLLtXdxj34/GnOUlG7NaXxH6J/sQa1bfEb4FadbasoW/06H7LPBIoDKVOBnBPYV4tdxlLU7Ybnpt/4AtZX8uS1HHB+XP41CjTaOiO5geJPhg7WrsYIpEQZUsnP0rkrJR2KPKfiT8L7KfTXbUNJTBHWOMBhXm1qlZL3QOP8O/DG31PSb7QrfTQBEh+Vv8Alpnjv9aeBrYmFZNsKlLmgfnb+3v+yjq3g3xne+ItN0PyYhzIsfqc88DpX6zkOaydqc2eDicJzO58nyI8b7JiwdSV2t7da/RJOFTDpo8SsuR2ErGm3ymajdH7vG60zHmDTpdwH93/AOvX4TGaXxH2ammUp9U1D7O8Fppq8uCNw7VyVHHmuTKzL+mazf8AhqVdSEkduzsDvHr6V1YXFQjKyJjCzPffh/8AG7Xr3wxFp17fxSmFQfvcHkdM17mHxHMc9aF9j1/4efHWJJ40PlRbWCliRknH1r14Pm6nD7OXMer618SbXUdBtbp7oKRyGJGDwaJtWNVFo8usL3/hLPilbS7Qw8zBdep5rznTUpamqeh7d4snWDw+bWOV14AGfoa6aUYR2IlG54/4p8ZR6EwEgGc7ef8APtW1SXu2JjBxdzkdc+J5VcfaHXJyCMY/nXPKhOaujogkczqfxRQRsZLsMQcja3Nc/wBWmpGkloee+MvFGr+LtatvD+luZZ5FOAuSAPWs50ZIcUhNF/Zz8V61Ksl3HIh8z5tqk5/MVFOmnKzHUdo6Hqfw2/ZHs11GK4uNOd2z8xdf1ro9nSXQzjOSPTfEP7P1v4b0JJILIMrdd46A/h1rGvSpTjZIp1ZNWPnX9qj4cxx+BtQsJI1EckD7gyggAA+tcdNwpzPQwzkz8rvgZaRaL8cr7RYRAijUipcgKM5znjnHFezKbq0LI9/CpuR97eFLmeBLcIgzJHwwOQQCK+Wx3uzsfQ0PhOxS+dcK/TbniuOEWtS+ZJ6kep3WbBpCp25xVilJM53SLqNNZeOJ+YnAb8aicXJaEJJM6/xTcSN4cea2bLbQGIHb/OKIxaNErnlfj26On2ZiiQFxDuZg3WtEmxVIWR5BJ4ik1K/Ma3JG9GAAHJ9q7MPNJ2Zy4hWhc/Wv/gk14TudG+AlvPqEYJdfMZgOTnkfpXu0XFK7PiM2q80eU7v476dbXemahcyuQ0mQmBzjnisa1WL0PAjGTlc+Trb4b2UniO4uRCn7tHdN/XofauKbUVdnfCajHU+FPEOhSad4817UHO3z9Rkf8iRWlOUJdCZTTMPwfp76j47itYrjazqy8jPJYV0SpOpHQxk7I/SP4D+DbXS/g7pVmIsSbNzEjqc1i8PUXUjmR6LpGqwW14bNmGQgXH4VlKnKOrBO58if8FHNIg1DwjqNvdwL5bQMSW+hrqoxQz82fgx4vb4efFPTNcS6TbJuhuSMhSCy9/wrTEuKpaI0ptKR92fBfXLv4N/FmHU7Btmg+JljcnOUEhGcjHGOtfJYupLn0PQpxb1PqyW7jurIXkM4kRgctnk55BHtWFP2sdWzVb2MqW7mltzBldu7jex6/lWnNfcs5XxHpw1KCaG4hXco4K5xj8RUzipLQL2OMsvDdza6rHdWZQJv/eq3U1xTVSLujoU4uNhvxS/Za8PfHrRNTnvdNjKy2rKTsw3Ck8YBr0cpxtenilzM56tDmTaPwW+Nfgh/h38WPEvgiYEPpWuXECh+oUN/+qv3vLKksVg4NdV/wD4vH0pRqs5LePQ123VP3Wc8JxUT95DFfLb7LqdVzyGUV/PdOpJysfYuNis9uyqC9w0gLdAOnvWnLzCKl9p1vc2rwXrOwc/KAelEabi7ibsT6Fc31nfIsDyyQoAAofAx/nFdVOtKmS48x3Ok/EO50OON/sABU5LNLnntXo4fHtS1M50rK56z4O+Oq6r4eiS7lT92uCN2R+FdTxakZch6D+z/AK8usfEOBLUqwBLdPpVUpupKyImuVXPdPH92wh+zhvmOGHpzmuyEJmfMeWfHvwe+m6Da6uY/nmIGecfdY/0rrpUnOVmJzPELnwvrWrnPziNuFPbNegqUYxNYTLXhP4EXWtaoIrqCZxjJYk7eorza9lsbc10erfC/9ni1t/HdjMLABVU4JXnqOOlcrjzESq8p9EaH8H7FHy1qFwTztrKdJxV0YSxCeh1mhfDjTNPlWURbsnBBHataNJt6k+2Knxi8O2tv4ZEUEG0Jgk/rWmKpRhSuioVeZnxT+1npi3Xhu5LEiPY5Ybckgg8V8+/4h6+Fmfirqay6P+1JfrDJsSPU/ljUYBHJ5/KvapfwT6DDTsz9BvgxHHf+H4b4FpC0AZOclQccV8xmH8Q+kwz5onY6lZzpB5zSBQozkZz9K5l8BtUhZXM17i5lg+zGXKueh7UGJmaTAIPEtwFjfbKQQTjtQB3E9glzpMlk4by2iOaDaG54v4ytreeLzmLM0ZeMLuPODitKaux1vhR5p4f0G+n8Ux2silG8/bsUZAB7110Y++cWJ/hH7TfsE6V/wjP7PVnEV+Z7RfmPU4GP617tOH7s+AzP4i18ZbR5LMQnq6nJ7Vx1Y+8eXE8B1PS2Goak8IAZbVlBHTPFNUueJt0Pzj+LGoG4+KGpaBp5JZLhw+emc1tCjGLEVPhhpsVv8RbCKRcTPOBlunUV0pRS0InsfpV8PryNfD9nZRJgRQAHGMdulYz2MjLuPEsWl+K7pJpfmDgJk8Vg48yKjueUft7+F4tZ+F1xqTqzN9kJKp/ECDRB2lYo/Gf4ia6/hDxfcNbyKsdpcqFiLAiTJ5/D3r16OEVeNiJy5NT9N/2YrWx+Nv7MFpeaTDGt3pkCNalX3EnHOO+Oa+TzXCxpVD1MLPmiexfC3x3L/ZTaLr7+XcW22PEnBryHKLjZHVbU19e1qOzmRSSVzuzC3+fWoGQRXSzuWyWUsAVLZPIpoTLHh7wU+qahvEDYMmQB/X2rmqmkT0LQtLg8H6ddNdFEDwSqE69Ubn9K4nVlSqRa7mz+Bn88n/BUXw/p/h79tzxqNMVhDeXEVyNy45dOf1Ffv/CVaVTLYX81+T/U+JzP+Kz542H1FfTTinI8uOx+813fPKVhCZBGRxX8/Qw0m9D7Z1FLREMktzbKGjgBJbGPat1RcN2IWWzvb+M7YVXI5JPSrcoQWomrlOxae2Z7RpUXb/HjIJrGTjLZFxaW5NMj3EI825LANk7Vxms1GUXcdSUZRsic3MWnQgxaoY8jPlxyEe9EcRaVjL2elz6A/wCCe2uS6t8SZRcXbyLCnR3znOMYr6TKI+0qu/Y4sTNKNj601t49T8Rvbk5WOREZT7V9PGgrHFzmt+0H4Ftr7S9KsoJGG+BWKkexp8qT0GpORw/hn4SWHlqi2SlV+8X6/hxWVaryxNoXO18NfDaz0+4Vbe2PzHkBe1eRJucja/Ludn4G8J2+n+L7MvGNpRj8w9xV07Xsc9VuWx6k+nWsaYWNRkk8CvQhh+dHIoT5jOu5VhkKJgEVEoRpuxXJIxviVGb/AMNPGVBITOfwNc2KUpUzWjCXMfG37Tnh9L/w3d24T/lkeV9ea8CVOSnc9jDOzsfht+0R4ZuvC/7TuoyRMwzdZ+XvnIr1KD5ocp9Fh4Sdj77/AGWZC/w70+STDeXbISR1LDjB9ua+ZzHSqfT4P3Y6npWquXuTsgwCP3igcfhXNDWJ1VZqSsjmdSshHM0juWAbKoBjFD0MLMzbAGLU1lMYXc+Ac0k7kt2O9uJ/K0zBKgsnHvVJXNISR4naS297pep3DuSbW/lSQqAerDpmtqS5ZXZVaS5TkdN0uS0+IQ2K5Bmj2yg/eyw4rrozTkcWKklSP2i/ZeshD8G9Ksgm0C2jLZ75WvoKbtTufn+Y1IznZEfxjjUxSgYxEmRXJVSvc86J4HevFFo+r6tIwVBC5LMegANZuvGKsbdD8wfBtlF49/aK8RSq/nxRXUrKyk4XDAf1qlUbV0I6Tw9o62fxPtGmUkLdHYpGAAD1zRTq+9ZkT2PuH4a+JbWLRA8siR/ufkO7uMcVpKVzIwNXF1qWonVWYfLJhmJ4Jzxiino3ca3Jf2kNPm1n4OXly24FdLYcoGHSsY61TS2h+Bv7Rmo2ml+N9Ts0LDyrhgzSJhuW6Hn/ADivr8tp3i/Q4MVWikkfcf8AwQ/+PdvdPefDbVLgsbOTECmTIdCVzxn1xXy/EWW13ecdj0cBWTVj7c/aT8Kx+BrCf4labNizRPMuWjHCjP3voK/PqPOsQ4SPYurXM/wf4jg8c+D7PW7GcSiWL74HbIwfx7fSvTqYedOHMxrU9E8IeGLKa3W4uVcFiCTjjFcs5+zhzCn7quddFc6T4YQyowLFe44X3Nc8pc+yNYJtXPMfjl8aLDRtIuL86l9nPkkk7sZXufpU0cNOvWSSHOooxdz8B/21fidafFz9ofX/ABfbSu4N48Cu7ZJVDgHjIwe1fvfDOHlhsFGMuup8VmM1Oq7HlFfRTvzaHHGjJo/eC0sZrm3SRLlVYDnB5xX4FObhG6PrIfEVdTjuIeP7QJ284rnnXkaDIZbggCa6bYR2NVhqqnUakBZsLWy+aJItxbkHPNdrjDoBHcpbWY3yI7Bwfl7CuTExnGF0JlWSGO5zPBppKqh+YHrXBQhOVXU1fwH0X/wTqiNp48u7p7QKIhGfxxX3mU0+XU8jE7H1jaytc6+0zbQ0l3ljnrzxX0kfhOI9F+M0LSXejRocD7KAc/SsvtMadmM8LafbQ4WRc57YrixBtCZ0SxxQXYe3QLlcV5l7SNnK6E0+eSLxDZTMxJDEHFOEvfM5HetPmHcT0OK9KVZwpXMepzeo3rLfnJ4715lTESlIY+4UXmjyxSjO8YH0xWjk5U9TSm7M+Yvjr4cjljvtPmVsFGK7OvQ15lT4juw81zn4lf8ABQXwqPA/xpk8RJFJIJ2O11XIHPU57DH6134Jc0mj6fD1VCKZ7l+xp8T7a78Cxwf2gr4QBsf3sj/69eZmGEbnc+kwlaMonu7eJRdOZEIIIHPFeWqfLod94Mo3l0krNJ5q5x93PNZzgHuGeqNdEouA24bcnpyBk+1ZKOomos3Pin4j07w14Qt7uHUIVkEJUs7YBYda6qdPmOepVhTPmHwP8SLf7F4iV7sylrt5GXPy5JBzmup4aTWhjDF05Ss2M8G+PU8Q/Gbw7YwTjZeXUa7UPBII4+tduGwjTuzzswxcFTaR+7fwH0ltM+HmnW7nDx2Sbweh4HSvWnyqmkj4HET56rZzvxdeW4lmWM8EEHPpXn1SInzl8fblvDfwd194FG77E7Ak4HQmvMry5bM26H5+fsQeH4dQ1bxF4tvXAFzdsAoHYnP55FdVB80RHT634fl07xcL0YzHMQhz2LCt6cUpXZMldH0P4GlFxpnkxyBnWJflJra8COU6bVrN5PDRSyUGQFSQOxzUzcVHQTVjb+L9sZfg7fWhwN2jknA5HArkpy/emr+E/no/bh0abT/irqd8gYx3c7GUYwNwJxivucnnF6M8fEq5yH7MX7RvjD9nT4r6R4/0HUPs8VtdIb4HJEsRYArgfgefSvTx+XRxNF2WvQrDYj2ckj91/DHxx8I/Hj4CTRfaEubPW9Ec7icDDRncOM9Dj8cV+QZnl/1avzJdT6OnWUoI8Q/4J0/F3+0fAmq/DTWfP8/w9qs1pA8pBMsQf5D1zwMipxlOSoqxvCZ9b6X41tbHTRB5ikqOcc15iXLT1RtdSVmcf8Vfi1pOgWc19e6qieWnyoHwXJB4/wA+lKn78rJGjqQhA/Nf/goj+36Vt7v4d+CNVWW6uoDDcMX4hRvvYI74/nX2nDuTSr1vaTj7p42Kx0dkz877+5a5uDKyEks26VurDPy59+tfrOFoqnA+bxElKVyGlUl7xEaiSsfu5aPBBbxosr5xyQOa/AudVVZH1kYtO5POmn3MbJLESdvBZSOaidB2uWZrSRxTeWloVUDAY9645KcX7u4FrSzfx38U0Nmrpv8AmBPbFdlCpNfEBrC0nu3YjS0Urn7xr1KcqVVWYpOxCLK7JYRiJMcMitxisI04e10LclyH0H+whp09vrGsXUhGTt24P90c19bl1Nnk4jU+ktMn3X8UnORIH/M17PNyqzOXlZ6t8R0+2yaTdsQStqM/SsuZXuLkbItFYlwUHauOvqXGMkbEhdJkckcHkd68yUXc1TsJFNHHdpIQcxAnI+oqIxadwlqdpb3BuLJHQ/eXPNdM6ilT5TPldzm9ZLi/KZxjnJrgvFT1Hys2dChFza7GI6d69CHLVhyxBKx4j+0VoP2K5mudowwwNvuCOa46mEqXOqho7n4zf8Fm/COk+GrGDUYZSoiB5VsFsk5H54/KuvAxcatmepUxC9kkj5l/ZV+Pkng+yj0yMmIGUISz7snr3/nXZjcFLk5j08DmEYaNn1N4B/aFg1rzbNp45JA3DI9fPSy+q/eR9BHGRte50cPxFRdQCSyISegEn6159alKDszeNfmV0yzZfE60m8RQWcciB2fDZfCgdefyrl5JN6If1hLdnJftdfG7Q4/hxa2ema7bSX8NwwmtMZwpDfMP0H416mGw9R62PGx2MUep8vaB8Rmtbe8SWN8ucttk4yR1Ar2aFJXtJHzks09nK53v7Bks/j79rbwjot6nmsuoeZ5mfuqCOorucI8tkcdbMHWP6Qfh7CLfwZbFCCv2dSCeoAHSuCdKpCXM3ocbkr3OH+JKGSWX5CM9yPwrjqlxkj5t/bGhFh8DtWLqT50LoNn0I/mRXkYx2ijZO6Phz9maOLw1oM1vbwAiScq4Y/xDqa6cHUTVhNpHYfFbSrF9Ph1S2iIJkUsVJ7Zr1JYedRe6yVOJ0Xwu8W3Vtct5d4ZB5a7Y8cjoK5pYerDdj54n0Do/h573S4pQGzMFaQDrWSUtUw0nog+Mt0NL+H2qW8xB3aeyrzyBtrljPlqjeiPwF/botIr3xpeXcLOYVeRsY6Hdj196+1yabqTSR51aD3PmIvMr+WJCQDgj19jX3K96jynkvmhUufXH7GP7fGu/CzQLXwVrt+DZ2reVGJpztVGIyK+GzrIq1efNBq1z26GOpwglI9K/Z/8A2g9I+H/7S2u63ba9JFZapcCVFRt0eGIJ4/rXz+NwE40lFrY7aeOpyPpjxT+3R4H8OaHLdp4hUyMGLSI3U+nWvLw2C9vL2bR1/WYW0PiL9qv/AIKH+IPiAsmjeEruVG3FZLkTEcc8jFfUZZw3HnU6i0POxeOSjZHybq+uanrl9LqGq3klzLI2WkmbJzX6DSwNChh0qasz52VWU6hULMerHHpW8eZKwa2EqXBtmbi2fvJJLPHteK0jHHd8fyr8BXLB3PuCKa512Y5gs1Vf75bI/lXWnCUQKbG+nm8me5UHrgCsIU4OeoGnYWU1sjTtqYJ2cITjHvVThBbATS3gk2hrtsAZIB71zupKnsTIghvtJiJW6fOW7E59arDVuaqrlP4D6R/Yin0o3OpzafGwO0Zznow96+/y3llHQ8nEOx9FaZF5c6buqhQce1elOBy856bqszXmn2krHcFhCj2rmlGxcJXZHo100UwxnnjpXHWNTeuZomjDKrbsd64JAU/P2wyOz87f61AHXaBetJo0UiOCQvIJpPYDH8STSC43FgM85rkl8YGx4Su1mgCq3PrXdQlykzdkcX+0FpqXGlvcRxBiyjAPtz/SnVrI1pTPx1/4LdeCX1L4X3OqJYb2gQuAvXqTTy+opYnU6ak/cPyF0fxLreh3g1C3uB8r7hHv6f8A16+wr0Yzoo8meMqUpaHo/wAGPj1q2neJUSWeUJLJlsY+9+fSvOxGCSw90dVDOK2zZ7dc/GK/ilttUELF+hYMeckf4V8/UwactT2KWb1OXcqeMP2gb6w16W/nm8sQ7WjVeBnFbU8FShrYSzefNqzzbxX8U9f+KOrmdboeSv8ABjBzn2r1KcaNOOxw4rMZTW4lzLfW9t12syYJJ4NYTqU5StE8d1nOWp9Nf8EiNKM/7XllqM8B/dwEoW7ZZP1qTaEz+ijwaDH4QgRWGGt0K47cVz4j4DZSucd48Ml1KbcAcMMn6V5VU2ifO/7dlpHbfBG5SSQLuBOR78/0rj9kqrszphsfnz8EtSQ6jLBBdMUS7k3ADryK2hQ5NiJHsfxC0z+0PD9oVxtbBKAex5rrpzlB6mRj/CG3kufG9tokVttD3qIS3cYJ/Liic7gfYFsI7IiK1dQUUDb3wBXLN21Lg7M8s/aR1Oex+H+t30z7mS0cRqT6gis6VB1J3FOZ+H37Tv2a60++e4hAuJLmXJznoTX2OTU3Cr8jlqyvE+V5UAkcsCMN8v1r7On8J5NT4hiTSRcqijJ5waiUPaSsKbahodHonxJ8R6FvezuSzvgCR+qjHQfpXNUyujV3CFeUSvqvjvxLq0AivdTnI3EsBMcE+lRTyehRlzJI0q4uajoYs0s0x3E4J/2s11xoKBz+2lPcagITDda6IyvoEVrcWqLCgD91dSj1mXas99EseeCBiv5xnGpJaM+1SuPiE1naFP7QZg3GM1casqasx8rKawWsbi4mupC5b8Kj20pS0Jl7qNJRpEy5luXLY5HYCt4ub3I50SSDT7uAjT7dtqDBkXv7VuqfOrCckyC2dbeMBNPZn3YJyBxg1zwpTjV0NH8B9J/sIRXd3r+pQ7SEVI8qWB9PSvusk5oy97sePir2PpqNPJupHZCF3cV9DKSZw2Z3Hhm8W+0wRTA5UfKSOK5a8lCNzWinzFmFBBdBcg89q46kHNXR0mtM7CP92R05zXnyi72Ar29qbjIPes3FoDU8M6gLe1ltWLEo3QelQ2gI/Et5DIP4s7K5pr3rgXvBVwkFkspJzvxitYVE9ERUTktCj8YImn0hQDjAOfxBrOpdlU4NH5af8FaPDz33wd15pcZitGwSuR0NXgVJYi50tXgfhHOyW8psldGYOxkIXHOa+9oOVWkkjx8QoqWo/wAK3NxZa9HLFJsCyZJrpcPa0+TqYJwWx9M+Bby18UeHAIHLSRw7RvUcvkHjHsDXzONi6c7HpUbOJzvxLiZ/Plmh+9EPlZeVxxz+dPAxU5+/sZV1yq5zngGwuEOyBVdi38I4A6121VQtZHOk5HWX8MFzEkV3GOGyAPXp/WvMdJRlzIqVLlVz6m/4I36Sl1+0w2oFW2xQooBPqygY/Kk2kVCLP6BvBpVfDEMZBDLAq8+wrlxFRcp0xTTOe1+xkk1LeQNrNgfWvNqPmOiJ80/8FG7tdJ+EtzbM3PkZ+XkdDWdKnJz0OiLsj83vgbqEsOpTxSSLuluHkUgdASOD712RiluTLU+mntbW78I2891J92LnHUn2oqqMo2juZtWKv7Pvhp9Q+K7alMGMNq2UZRxnj/69c/LLqI+jrN2nuWYAbpHOw98A96mdPmVkJy5Tx39tvUG0v4WapLCCN1mQR3z7flW+GqQhKzE4uSufhb+0H4lla6utMll+cXEjEt6MTivr8rXPUujiqzUNzwaSRZJGyR15r6iGisefJ8zGtGjDAI/OjkkndDumrEDBwcAin+8RDS6AA2eTR+9e4kktxaOWTB8ltApxjYI7hVlBQB+5oEDKI7lWbJ+Xk9a/nWWx9tHcbd3cNkQr2RwDnk1VNRe5RQvte0+dgkVvs2nJ55NaVI04K6ImrotadrlwLlEiso3Vl5z6VMZxM+U1hezrbv5cccQJ+6hrZ1YxWgmrGfJqM8MbNLOFA7kZrGjPmqmj+A+o/wDgnIjXet61ffaQ6IsQJVepIr7jK9NTyq6ufUz2qF2LbjuYkfnXs8xzcjOi8JyoAbRgflNYV3zQKhGzNq5tQp8xAcg9TXDKryqxoWrZJJITnrisL3dwNLRLAyYGBzUTAyYJZdP8QSwEjaz4wK53uBLrScNJ3B/SsZ7AS6FfrBEkZJwWzU0viEy18TQZ/D3mpg5AA/I1U9jSJ+fP/BTfwuNU+C/iGOGBSx0xy276U8PPkqXN/sn883iSx06LX7qAyeSI5WyW7kHpx/nivusvnzU0eLifiMOWC4jZ3hkcLnIYGvRg+WbZxt2R9Ffs06kl94VWKGVS8Mw3FjyTg18/mFPmlc9KhL3TT8c6TeT213F5TO5BLM2AMZ7V5tOs6cgq+/ocx4DMllcnZxhuRkZrtXNNXM0uU6n7QkpYzQAhRnJ+oP8AQ1z3fM0wc7qx9a/8EZbRY/jrd3WenlAc8Z3Z/rWcjSG5+8/gedbnw9FLOc7k+XbXJVjzI3W5FfWjTX3l4BAOQa4Ki5TaJ8V/8FT7+ZPBslrDLkogYqp6jBGP1rl9tys26H52fC6+Mfje4kTBUFQI4+2cfrVxqykI+mbfXZbvTrHRUC7yB8pNbw52FrntPwg8Bp4dsTcxRf6RcJvYjpnIrKpKURcp6HoulGK4V51wwBIFcqrSuJwueEft/wA8Vl8JtTubhCFFqQWA6ZyK7cDHnq6hJcsT+fX47a79s8falaRXBkVblvm9Mdv1r9Hy+iqdNM8bETu7HnwRWkKrnpmvXicw9UEZ3GtQI873IFAAVIGTQKWwlBAUFR3FAJOBQUGw+ooA/dB7y5iJlWyBCjjI71/OkpxS1PtkrGde6jd3U6m4jXLdh0rLnb+Eoy7y0S4u/lTA6Z96zlCtPqBrwWbQqjxSL8q8kGpVKrHqFkR3D3Kh3FyQCe5q057MicbrQoLDJcsYriQSo2QVDcj3rSk3SqJsbi1A+0P+CaemWOn+G9TlgQAyXCBiSc8Aj+tfoOWq9FTPKq/EfV39jyTKBEoJB5r0HUsZFa0u5tP1lsKQNwrOVRSVgOysbhb6Dse+K8qrfmA0bS2BgO1cfWtoK6E3Y0NLcwfdTn1xUzQcyMnXtOMWvJergA8kd65pe7qxrUTU4jKhYEYNc85qxXKzKuLpbVlPmABeOtZwqRjLUmSsbuqONU8Ldc/Jxn6Vs3zRui4nyH+3D4VGvfDTVLEIP31m6nPYbTWUPenZG17RP5rfjPpS+HPixreku2BFqDgKR7mvussuqUTxMTJKRz9zGsoMkaY+XBI7jIr1fidjk5XU0R6p+z5qjaVb3doZAqCVdhXOd3444xmvLxdNtHbS9xWZ7FdzWuqWTRyoHkaE8sOM14X1eftNWaKSvc82ffp+otCJ0QCXAVUwSa93DwgqdmTNp7Gzp4llV2mjYgqflc47da4cRFQd0YtuLuz7B/4I/X4034yXkq2oWNXi6nk8iuGTOinJM/df4damb3wvbhFxhMjNYy0OjzN1bc+RJM65IX/61ediFfY2jJHwN/wVGuraDRpmnmYFkZRx6Zrz40ZSkbJ30Pzb8D+ILHwt4xkmklkHz7pN68N/u8813U6Dirsh1EnY+qf2YtNuPih4uhv3JMAbMe7juK6Pa0qXxI0i1ufb3hjwla6bEkjp9xMe1c9SpTqbIvmiVrmeNbmeVuNrYTFcnKqbuxpxZ8k/8FRfHVvoHwE1CK6lEb3EZRC3GMZ616GBtKqrHPXmkrH8+/jK8a98Tahdkg772TDjuM1+j4OL9nH0PCqXcrmWgG7JOOK9COhmLKyhc5zz2rRO4Fcht2QetMBwV920kdKBS2EyM4oIFpN2GnYVSAcmlzIrmQu8eho5kHMj9zr5rucNsvSoK9CK/nKauj7koXGn7ZI3lvGZiPu4/WqhABLTTbe4hMshJBb+I/4VvGACXMVtAu23UsM8gNyKU4gRedYpCdxGSema55Rs0BDJcQ2jBls2k3dCvSlP40OXwn23/wAE4o5rj4eX0rwlR9tXHy+xr9Dyv/ckePV+M+rtFeQfu5D36iuqRkLqGgR+c0oOWbn2qYK4FvRvNswFPXp+FcdWPvAbq3UqJuTpjpWtOGgpbGjo7vMAXQjPrSnAgf4pswUW4THyjmuWrDQuG5iS3UZs/mBzXHOJqcfrl2wnxuGN/AJrBw1Jkdf4c1OK+0ZLI44HP5V1xh7o4nhX7UHh2LUvBuoWkhIZoX8sqOpweK5pP2c0za14n80H7d+gf8Ij+0t4jsPKG37SW24OevWvtsqmpUkeLioe8eXaRKJ3RW3nd2BwK9ed1qjnguXU67wJc3Wn3bW4u1DGUOwMpPA49PeuGtCUjTnR7PomvxXNuohm3sE5I6V5lWlOOoc6MGaO3m1CW9uEDMJeB6U4VZJWDnRZhu2UNlid3C7uP5VcoOaJlK59R/8ABNLxH/wjfxd3zW8ka3TxhWGDyCOvNclWHKb0j93/AIE6uNU8K2hWUHKjIINcj10Oz7J6RfW8QtHyxAC87fqDXJVgXE/M/wD4K8+LYtMsfs0cqqvmEs5HRTnrXJyPm0OiG5+ZN/4u/tXxA815cGGK2lTY4TiQYPT2rsjCfKc8viP0L/4J+2domgWniCWFQrDghuo45rjqwlfU6V8B9Y654z03SPD81x5iAgHBL0oQA8p1741aPDZuEuFMhOSAxBxnrTqwvFBex+bH/BZH9qa11Pw9B4J0jUDK53mdC5JUd/517mV4TmkmcWImflZdyNLK0jn70jMB7H+tfeUIckUeVKV2QkAjBroJGjax2rnPvTjuAMhGD71YAXCtuPSgUthgYbiaCBQ2eADUy2AUkAZJ/CpAbvHoaAP3P1DTrWFWuftb8DhRX88TSgrs+8KbXKi9QzwhlQc0QqRAtpLFHaFYLM5IOMV0RqRQGaq3/wAwe2YfQUpTgwIpGMaFGsl3E4JasKmoE0dld3MkSRqPLB5API7Vmv3lRJDl8J+gf/BNDw3NB8Grie7QMXvGAI55Fff5bPlwygzxqztI+hLJHsrl98Y4bvXbLUy5kdHGkFzbDfEMkZyKUGoPUOZFU2arIFRec1jOPMw5kTOxtXAYjHoKuDUSW9DWsLhBCHAwvb60Ssybkmp3KS6e4Y5OOKwnTcloXTepy/nrMDCh5IIHtXJOnY2OM1WG4l1KWORgFTpk965WrMTi5Gx4Ov8A7PdpbtJ144NbRqRUbFKLRzvx90xJ/D8siMAdhIwM561x4iLnaxvDU/nB/wCCxXg1PDf7Umoahaji7hMjcYGcivr8h/eR5Uebiqbvc+SRf3FoBIWKeWMkjv7V9V7FqVmeZOSSsWtJ8UwSuLiaUhy+Ac/zqJUorcz5kemeCPHwQxxC7yRwEUcA+ua48RSjKGiBO52Up+0EXVoGKk7pPc+1eS6PLIZZvZjYxq/2diWTK8DjkV2JRUCoq7PcP2O/EqaN8V9Kui2wzEciTAHK9a8nE1I3sddNWP3U/ZD8cLqvhuzh88vlOCr59K5IU23c6b6WPoW9uEbSZJZG2qYycn2Fc9dKJrE/Gv8A4LUfEe5PiWPQbWRWhYliwPXG4YP51hhuWdWxspKO5+eUnxBvLhF0SO3j+eRBJL3A6YFe6sPFU7nPKSvc/SL9lXx5pXgL4RabDd3oRzag5PJA4OT7V4uJ5ZPlitTSNeFrFb44/tv+HNB0GdIdWgiABw0k20sQD0FKlhak9ivaxPjL4uf8FNJLW0lisdaSSVTmNfMwOPcHNd9PKMRXdlYzq4iEI3Z8OfHj48eJfjR4mutb1WdiJZG2AvkAE19RgMBLDxXMedVrxnscBI4ZyxIAwAM17kVocmt7iAqfusD9KfKxkW1i5wcfWnsJuwHKcsw/CjmQcyBhlchh1pp3E3caVI6c/SmSCu0Zztxnjmk1cBRLCG3HOTxU8rAVp4FOOv0o5WB+492Ve1dDKCx6AHpX8zudSTsfeFQxzuTOV+QAY9c1pDnAdHqdwsJYZVU6ZrScpRiBN/aFxLCJ/MBJHb0rL2sgKO/7ZcLHJIw3NgE+tb4eTnJpgaMOmpd27pDcMDEw3EH0rtw8Y+1Q5fCfoL/wTY1e0svhFHpZmDbrh3b5skZI619vhUlSVjxa/wAR9A6rjzHljIwWwMfzrpMDR0a7V7ZUbO4DFRN2QF5oBw+Kz5gKF6wklO5WwBkfWjmGldjYdTmWMRHKgHvRzFco9tYTaYpGY5HamncqKszlIr+ZdTljMhA35Uj0rlqllHxJE8V4Xjl5ZMnJrikVHcydH1Se31aImTgPzioKNz4iWg1Xw+8TYJ8kke5/yaibtE0p7n4Ef8F5vBVvpHxD03WxbgNI7QyOeOfmP9K+g4dxH72xxYrY/PO+s43jMMUQYsyjcp46GvvYSTqXZ4kznWMtlfSWwAUxPg4HetnGMjM6Pwnr0tvdRCaU5Em4ccHFc9aiuXQqO57t4F8Qw+I9HWZCEOcbR7V4denyyKN26XbD++bfjgADtWbfuFRdmbXw98QXPh3U7fXIJGDW0qsAPTI4rhrUb6m8Jn7Q/wDBNH4rDxR4XsbuS7CsyKAhP0/WvPqy9mtDphK7PuDxN4lhh8Fz3TyEeXbscdz/APWrza05SOmJ+Ff/AAVk8dJr3xdubVmDRxkqFB4HXmjL1L27uFaXLG58Ma3r9hol59uXbsVg3BJORX1NNc0LHDOqXPFv/BQL4rWthDpGh6mYLe3g8pFQEEjHQ+3+FPD5aqlZto55VmtjwPxj8a/HnjC7a51/xTdzB3JZDMSBnsBXs0cupR6E+3kcrfaybkktvbuGPOa7lho01oJ1HPRkEdyHTf5OD6g1pGBIC6ONwQn2xW/LZAK1xIq7lTGeKAGBrt25XiplsKWwkq3BUYA61JAKlw428D6047gL5E4+9IB9KsAETH78hIoAXyU5ye3FAAsCY+YnPtQB+51ysEEZBQlupYV/ONSVKK2PvBCziyX5kKs3HNbU4wkrgVJ3hVtk/KdwvWlVjGa5UJuw23iYhvs7AxjkKfvVzOg0HMhyNCk4dE3YGSP7tOMHBgncuWF+pdooGUGTrzXRQhOM73KeqsfRH7Hvx8s/BiyeG5LuNAZeUc4O3jP64r6zBY2FuVnl16ElqfXeifF7TPEOnxy2c6AE4B3c160akZq6ORxaO28Ia1DeKD52TUVHdWJO1gEUkAIYdKxtIdmRzadHKDsAJ60veKjoylLpXmHEqYIPbpVOMkrmnMitc6ChO9WI+lZ06qcmg5kc/P4eNvePIGOT61NR3DmRj+MJIorfzFVtyDDEjtXDWkqauyou7OUspZX1ICMEkEHis4TU9iztbxkv9LWN2IYIMH3960qUn7O5cHZn4nf8HCuiwWGo6Q7IM3F67IH7kK9dGR80cQceJ1Py6t5YjqdtNMFiiMirIrHAA9a/Q41NDxpwdzB+IFvptr4wul026jki+UlozkZrqw8pVVoZOLRWsZUA3q65HTOfWuiT5XysSep7L8AL9VuJLSWUAN90D8K8fFxuzRanrGp2yTqjRXagMcY2815VSqoLUbTSK4W6sP3KhnyP7vHr/ShVYTjYcZWP0a/4JHfFPNidMnn+e3mUFWP3QfSvNxVFpczOqhO8rH6P+P8A4kpH8MLtFuY1zbsCznnoTXk1KlOLtY9GMHa5+FX7aPi//hMfilrN9ZSLNGlwybmzzjOcYzXRhJQdTRHPiXzRsj5c8UFJYJS1vtVQcknBzX0OFd2eZOMjynxcYZ4yrIQqtnrk96+gw6T2MbNbnJTWltGd+Cc9BXWlJD0IpRGyhCgAzwatXejGrXHRwxKmzIJx2rSKSKFCLGvAGc1TaaE3YjkDH72MVIcyJQ8gQAgYqZbCbuIzMRgYqSRuSPvYpx3AR2BHBqwG0AFAADkZoA/clXM7G2mBBPGCOa/nSFG794+8LcWmQXKC3DMEX25zVSkoKyAztY0SC2kIiuQzY6ZrmVWVJ8zFLYo2N39juliIw5OFQsvP61qsTzdCB4imgncxujGWTDhWzt9qqblUVkio7kp0qe1mE8SMABliynj36VCjViUWLbXY/DuNQ/tVYm3DDMQvP1OK2pVqlKV2Z1Y80T1H4UftVWfhu8/s3xH4qtoUDBo1kuowSOBx83vX0uCxd46nHOkfUPwl/ae8Mu7RTeKbN1LDY0c4YHPOODXdWxEeXQwdOx714R+Onh7V7NDbX6Nkeo/xp0a0XuTynXad49s7qPekq+nUV01JwcVYTViwniizuAT5nQ9OM1ajzRJJE1q1fHOc9sjiueNK07gQai1qyNckqUA5IpTgBwPjwI1nI6SKAwypJ4NctWmpLUuG5ymisDJJIVBIwMk8VySioLQ1NhdTWDTLmcMqhIjuctxj2qIVZSbTKjufi7/wcDa1b6z4l8MM98XKeYQgIxzuxXs5HSvWuclc/NPR47e/8T6faXVvvha7jVwygggtj+tfYTlyXPMteR1n7XHw10bwLr0Go6Bp0UMdwiBljj/2SSTU5bib1uW5E4HkcbSzWvyoCRgjjFe5V1lcwcbHonwVvZE1n9+QrbgNqnmvKxQ4nvrx3D6ZCUkBZJAWSQY4weRivDqx5mav4Se2hSYLeTOFzGdgPY9OfzrNLlMz6P8A+CeXjO+8LfEGWwtXjCXDISc9wRWWImnTszeg7TPtL9tH9rKD4YfBAQ6TextquowGGCEEEqSrZJ546ds14s4xlI9aM/dPyx8ZPq+ofaNWkusPOxaRCMnLZJ/WvQwlKKlc46srs8U8bWktmZ98qlmQtgMen5V9FhYxOWex5R4q8xLXcykZPX8692ikkc8tjmJn3bRntW5BE+eMLn5qcdyo7j5iwA+TbVlDFYk8mgUthWBIwKCBxYBQDUy2AaGB6GpAHUOMGnHcBvlAcirAci7TlvSgBX2lcKKAGLGwGMigD9XrH9sTw4k2LjwR4hkcPgomns2PfIPSvw2rg24e60fcQqqbsjqbD9o2TUrcPpHwx11nc/IZ7RkX8ya8ueDqRldtGhn+JvG37QOpTRXfgz4QxyxSj5xdXZVl/wBrGD/k1rCNB+7MTVyhb6R+1/qt2k0OlaLYKx584bnQe3FdEHgae6Fysup8L/2l9buGa5+JtnYujfMsFoOfxrf6zgErRiwSsWB+zb8SdSlE3jP42avJCf8AWJaXGwfhWM6+GeyKEuv2avDEgxf+J9Zv44iCiXN+SM+pArjrypyXuhoTD9mv4Oi4XULnRJp5SQQ8127bQOwFXSxCgiZRTPT/AIe6n4d+G0Sy2enboY/+WaqSfbvW6xV3qYyoOR7X4K/an07TrS3ElnJGO+FxgfnW8cRfYh4eSPQ9I/a40dlWS01R4xuwSSMfzrsw9WfPrqYVabUTbtv2soLeUyw65HIo5YM+OP8AGvocPLmjsckpKJ23hf8Aah0nVolukvouFyU8wZP61U4ta2IjVjJ2OoX9oXSNRtjbvdLCHGGCnPH51zzv2L5kcT8QvjCfsjWS6kq7WBjDHBK/5NclWMpRsi4SVza8LeITe6LDeq5VZVBy3U8VxzpyW5stSp8YvGkfgn4R6zrM77QLb5dxwck44rBpRZduXVn4k/8ABXnxp/wmPiTQmQKzLbseW6df8a+lyRxpyuzhryPibw/IkfivS7h9/wC71GHKDHzfOBjrX0mIi3ByRwQ1mfQf7ftjHeeGrC9t7NImdFUEDphec14uWzccXZlzhZXPlO2UyxyQRHCgAc9Qa+1k04HDKak7I634WXyxaqLaEb5RIGD9+CB/WvNxNOTVwjofSlnLBfWCCbesscYDkD5TXhy0nqW5aFnTrOKWOdQWZVYCPPasZyQkmz0X4K+K4/Bfia31KOXywrguVPOO9edilKUbI2pwknc0Pjj8R9R+Jfi59Yn1CV4IGCW0DdlwcnGcdcfnXB9Vrb3O1TsrHEatZodNDSOnmP8AeZTkn2x6V00KjUuUxabdzxX4ywopkxINojwSBzmvbwlf3rGM4ux4l4qErWSqJQRnjP0NfT4ZStdnPKLscwVYMCWBwMV1k8rEZd2OcYNNOwbBMwCg7mP1p8yHzIRF75pp3E3ccxCjrn6UyRJFBTJ6ZpNXAagRDkZqeVgKZB2Un6U0rALvXHX8KoA3rQABgehoAaZlBwQaAP3Mg0eARvPa6WiuOD8oI/AcV/OMa9em7tn3SpxjsTWJ1GFBK4+VGyVXjjHvW8a057lFrTL28lgJeWLG8gEp2rR6K4FO+ULfFy69ONoxzmsZSAYoXzXjFwoK/e+XvWcJXkAk8yOBbkk7mweMVqBVubRrJjFa27YcYJz2qKibWgEP9m6i9yqW1u4QLyxArmk5RAnaz1GC4G8FkIwwHFZqtK9io7l5ra5WIT+WdnRVJzzXXSqyZMyG3ea5sZcNsZX+4n4162ExKpTvI5Kqujmdc17V7SN7YXcqqTwe+a+pw2Y0uXY8+rAraL8SPE+jsrWerS/KMEbjXX9fpS0ONLklc6OH9qPxtodwjTTbl24Y7z0rKWMp9i+c1NY/ah/4S+7svtBkimSVdzrJkMvQjr6kflXNPEQq6IuE9T7S+CPiOLxJ4GtIHuV3FV2knofWuSqdMJnOf8FDvFNn4Z/Zwms45yZriZETPXIzn8K5FHmmauV0fit+3TrD+JvF1pHLGJBbW5GUPGeOK+hy9crRw1z5ilRtK1+1u4bcq0d5E4yfR1NfUX5qLR50Zcsz6q/ak0m58W/CC01NZEykCzsR1wVwB9ea8DBrlxZ1N80D471jTW0/BM7AM3YdSK+zpyT0Z5zhyzNn4Wr5fiK3YxAln6E4JqcRycgz6q0bSbi68PwzOrbTHuBVeNwIwpP0z+VfNVpRUxpXZoxaVJKBP5bRDAJjCnntXJOcDaEDfs/DUxChgiqQMksc1w4mS5dDqpw1LN9plvaWzyKA0gTG4dMVlTrxSszXkZxHiTVbi1iOwncPu+ldlCNJzuRKLSPE/ijqtxJJLDKSd/zEjpXrUKML3Rzz2PJfEtyZAqJkgV7uGld2OeWxgLuMpQ12EAXAOKBS2Gv+8G1f1oIHBRjDU47gOREzx6VYCNG5OMigBjKUbaaABd2flx75oAR1VPnPXpQAgKvwc0ABUD7nWgCVYsjJxQB+7kETQXcm2U4bjbX830JOrUtI+4hJtkkttGD82SD1X1rtUIo0KzWVv9qDQpsH90HipqaIB2paLbyqG3sCGByK5JNgVVghju5Y9gOCOT3pUfjAld40T/UKcHiukDP1OZwVZjkM+3GenX/CtaSTlqBGk09jOPInYB1wQTWVaEQEu767tHysxbdxzXDGK5io7lzTEnZo5pLlmDttKnoK7KUUTMfb6ZHBfzMkrfN1Fd8KcZ7nPJXOZ8b2awyExv8Axen1r3MLQhY46qOWuLdmgYGU8egr0KWHhzHnVdDI1aFltzJ5pJ245FaTw1MxuzMj3xJHdiQllcEce9YSoxpu6Lg3c+6P2TvFGqX3huwWSUgCSPoetctU6YM5j/gqb431htN0zw1GwSDa0px3IIH9awoq9U6In5Y/tEyzTXzCaTcZXbLEcivfwe5y1z528UI1nfrGshby3WQE9/mHH619Hh9YP0PKl8R9X30j+KfgVLLfHHl6cgVV/CvFof74zshrE+VvEul20NnaTEbi0soOfqK+lUmrHNV3LPw88P2134vs381kzIMBe3IrDEVJchkfYuh2ofRXtLd/KWFkQbVznIJz9eK+YxE5Jl0/iN3S9IaC0IlvDKfLzlkHqK4JVJHXBIfpcEV7LczOuGiIxg9R6VjzuWjOmG5HqcEc2nSXm3ac7do6f54rzK1SUZ6Gp5l42jUW7kCurD16l9zOr8J4V8SWLSMT34r7HLpuUdTinseXaygVjH2Ck172F/iHPLYxYwCC3fNd5BE/3jQKWwJ1/CggfTjuBJbAGQg+lWBJOoCjA70AQYBn5/u0APVV547UAQdZSD0xQArqAOBQAsIBYg+lACMxBwDQB//Z;imageBorder=#FFB570;strokeWidth=2;container=0;" vertex="1" parent="ix9Jyrw6C9A1fynfYH4--88">
          <mxGeometry x="59.999999999999986" y="10" width="40" height="100" as="geometry" />
        </mxCell>
        <mxCell id="ix9Jyrw6C9A1fynfYH4--23" value="" style="rounded=1;whiteSpace=wrap;html=1;fillColor=none;dashed=1;strokeColor=#b85450;container=0;" vertex="1" parent="ix9Jyrw6C9A1fynfYH4--88">
          <mxGeometry width="110.3" height="120" as="geometry" />
        </mxCell>
        <mxCell id="ix9Jyrw6C9A1fynfYH4--98" value="" style="group" vertex="1" connectable="0" parent="1">
          <mxGeometry x="210" y="245.01" width="110" height="220" as="geometry" />
        </mxCell>
        <mxCell id="ix9Jyrw6C9A1fynfYH4--17" value="" style="rounded=1;whiteSpace=wrap;html=1;fillColor=#f8cecc;strokeColor=#b85450;dashed=1;strokeWidth=2;aspect=fixed;container=0;" vertex="1" parent="ix9Jyrw6C9A1fynfYH4--98">
          <mxGeometry y="17.60846153846157" width="109.99999999999999" height="184.78307692307686" as="geometry" />
        </mxCell>
        <mxCell id="ix9Jyrw6C9A1fynfYH4--18" value="Self Attention" style="rounded=1;whiteSpace=wrap;html=1;textDirection=vertical-lr;fontSize=18;fillColor=#dae8fc;strokeColor=#6c8ebf;aspect=fixed;container=0;" vertex="1" parent="ix9Jyrw6C9A1fynfYH4--98">
          <mxGeometry x="8.461927796449686" y="46.53846153846156" width="42.3076923076923" height="126.92307692307688" as="geometry" />
        </mxCell>
        <mxCell id="ix9Jyrw6C9A1fynfYH4--19" value="feedforward" style="rounded=1;whiteSpace=wrap;html=1;textDirection=vertical-lr;fontSize=18;fillColor=#fff2cc;strokeColor=#d6b656;aspect=fixed;container=0;" vertex="1" parent="ix9Jyrw6C9A1fynfYH4--98">
          <mxGeometry x="59.23349457514794" y="46.53846153846156" width="42.3076923076923" height="126.92307692307688" as="geometry" />
        </mxCell>
        <mxCell id="ix9Jyrw6C9A1fynfYH4--99" value="" style="group;rotation=-180;" vertex="1" connectable="0" parent="1">
          <mxGeometry x="1000" y="262.51" width="110" height="185" as="geometry" />
        </mxCell>
        <mxCell id="ix9Jyrw6C9A1fynfYH4--100" value="" style="rounded=1;whiteSpace=wrap;html=1;fillColor=#f5f5f5;strokeColor=#666666;dashed=1;strokeWidth=2;direction=west;fontColor=#333333;rotation=-180;" vertex="1" parent="ix9Jyrw6C9A1fynfYH4--99">
          <mxGeometry width="110" height="185" as="geometry" />
        </mxCell>
        <mxCell id="ix9Jyrw6C9A1fynfYH4--101" value="Self Attention" style="rounded=1;whiteSpace=wrap;html=1;textDirection=vertical-lr;fontSize=18;fillColor=#d5e8d4;strokeColor=#82b366;rotation=-180;" vertex="1" parent="ix9Jyrw6C9A1fynfYH4--99">
          <mxGeometry x="8" y="28.96396190127301" width="42.30769230769231" height="127.07207619745398" as="geometry" />
        </mxCell>
        <mxCell id="ix9Jyrw6C9A1fynfYH4--102" value="feedforward" style="rounded=1;whiteSpace=wrap;html=1;textDirection=vertical-rl;fontSize=18;fillColor=#f8cecc;strokeColor=#b85450;rotation=-180;" vertex="1" parent="ix9Jyrw6C9A1fynfYH4--99">
          <mxGeometry x="59" y="28.96396190127301" width="42.30769230769231" height="127.07207619745398" as="geometry" />
        </mxCell>
        <mxCell id="ix9Jyrw6C9A1fynfYH4--14" value="This is a young woman with long hair,wearing a white hoodie,gray jeans below,black sneakers on her feet." style="text;html=1;align=center;verticalAlign=middle;whiteSpace=wrap;rounded=0;strokeColor=#9AC7BF;fontSize=12;direction=south;container=0;" vertex="1" parent="1">
          <mxGeometry x="1170" y="270" width="130" height="77.22" as="geometry" />
        </mxCell>
        <mxCell id="ix9Jyrw6C9A1fynfYH4--60" value="The slim girl has long hair over her shoulders.She wears a white sports jacket,blue jeans,white casual shoes" style="text;html=1;align=center;verticalAlign=middle;whiteSpace=wrap;rounded=0;strokeColor=#F19C99;fontSize=11;direction=south;container=0;" vertex="1" parent="1">
          <mxGeometry x="1170" y="360" width="130" height="80" as="geometry" />
        </mxCell>
        <mxCell id="ix9Jyrw6C9A1fynfYH4--123" style="edgeStyle=orthogonalEdgeStyle;rounded=0;orthogonalLoop=1;jettySize=auto;html=1;exitX=1;exitY=0.5;exitDx=0;exitDy=0;entryX=-0.021;entryY=0.496;entryDx=0;entryDy=0;entryPerimeter=0;" edge="1" parent="1" source="ix9Jyrw6C9A1fynfYH4--23" target="ix9Jyrw6C9A1fynfYH4--17">
          <mxGeometry relative="1" as="geometry" />
        </mxCell>
        <mxCell id="ix9Jyrw6C9A1fynfYH4--39" value="" style="whiteSpace=wrap;html=1;aspect=fixed;direction=west;fillColor=#dae8fc;strokeColor=#7EA6E0;container=0;movable=1;resizable=1;rotatable=1;deletable=1;editable=1;locked=0;connectable=1;" vertex="1" parent="1">
          <mxGeometry x="406.28" y="337.515" width="13.749999999999995" height="13.749999999999995" as="geometry" />
        </mxCell>
        <mxCell id="ix9Jyrw6C9A1fynfYH4--40" value="" style="whiteSpace=wrap;html=1;aspect=fixed;direction=west;fillColor=#dae8fc;strokeColor=#7EA6E0;container=0;movable=1;resizable=1;rotatable=1;deletable=1;editable=1;locked=0;connectable=1;" vertex="1" parent="1">
          <mxGeometry x="383.28" y="337.515" width="13.749999999999995" height="13.749999999999995" as="geometry" />
        </mxCell>
        <mxCell id="ix9Jyrw6C9A1fynfYH4--41" value="" style="whiteSpace=wrap;html=1;aspect=fixed;direction=west;fillColor=#dae8fc;strokeColor=#7EA6E0;container=0;movable=1;resizable=1;rotatable=1;deletable=1;editable=1;locked=0;connectable=1;" vertex="1" parent="1">
          <mxGeometry x="430.28" y="337.515" width="13.749999999999995" height="13.749999999999995" as="geometry" />
        </mxCell>
        <mxCell id="ix9Jyrw6C9A1fynfYH4--42" value="" style="whiteSpace=wrap;html=1;aspect=fixed;direction=west;fillColor=#dae8fc;strokeColor=#7EA6E0;container=0;movable=1;resizable=1;rotatable=1;deletable=1;editable=1;locked=0;connectable=1;" vertex="1" parent="1">
          <mxGeometry x="453.28" y="337.515" width="13.749999999999995" height="13.749999999999995" as="geometry" />
        </mxCell>
        <mxCell id="ix9Jyrw6C9A1fynfYH4--43" value="" style="whiteSpace=wrap;html=1;aspect=fixed;direction=west;fillColor=#FFCE9F;strokeColor=#FFB570;container=0;movable=1;resizable=1;rotatable=1;deletable=1;editable=1;locked=0;connectable=1;" vertex="1" parent="1">
          <mxGeometry x="383.40999999999997" y="337.515" width="13.749999999999995" height="13.749999999999995" as="geometry" />
        </mxCell>
        <mxCell id="ix9Jyrw6C9A1fynfYH4--44" value="" style="whiteSpace=wrap;html=1;aspect=fixed;direction=west;fillColor=#FFCE9F;strokeColor=#FFB570;container=0;movable=1;resizable=1;rotatable=1;deletable=1;editable=1;locked=0;connectable=1;" vertex="1" parent="1">
          <mxGeometry x="430.40999999999997" y="337.515" width="13.749999999999995" height="13.749999999999995" as="geometry" />
        </mxCell>
        <mxCell id="ix9Jyrw6C9A1fynfYH4--45" value="" style="whiteSpace=wrap;html=1;aspect=fixed;direction=west;fillColor=#FFCE9F;strokeColor=#FFB570;container=0;movable=1;resizable=1;rotatable=1;deletable=1;editable=1;locked=0;connectable=1;" vertex="1" parent="1">
          <mxGeometry x="406.40999999999997" y="337.515" width="13.749999999999995" height="13.749999999999995" as="geometry" />
        </mxCell>
        <mxCell id="ix9Jyrw6C9A1fynfYH4--46" value="" style="whiteSpace=wrap;html=1;aspect=fixed;direction=west;fillColor=#FFCE9F;strokeColor=#FFB570;container=0;movable=1;resizable=1;rotatable=1;deletable=1;editable=1;locked=0;connectable=1;" vertex="1" parent="1">
          <mxGeometry x="453.40999999999997" y="337.515" width="13.749999999999995" height="13.749999999999995" as="geometry" />
        </mxCell>
        <mxCell id="ix9Jyrw6C9A1fynfYH4--131" value="" style="whiteSpace=wrap;html=1;aspect=fixed;direction=west;fillColor=#7EA6E0;strokeColor=#A9C4EB;container=0;movable=1;resizable=1;rotatable=1;deletable=1;editable=1;locked=0;connectable=1;" vertex="1" parent="1">
          <mxGeometry x="406.15" y="362.505" width="13.749999999999995" height="13.749999999999995" as="geometry" />
        </mxCell>
        <mxCell id="ix9Jyrw6C9A1fynfYH4--132" value="" style="whiteSpace=wrap;html=1;aspect=fixed;direction=west;fillColor=#7EA6E0;strokeColor=#A9C4EB;container=0;movable=1;resizable=1;rotatable=1;deletable=1;editable=1;locked=0;connectable=1;" vertex="1" parent="1">
          <mxGeometry x="383.15" y="362.505" width="13.749999999999995" height="13.749999999999995" as="geometry" />
        </mxCell>
        <mxCell id="ix9Jyrw6C9A1fynfYH4--133" value="" style="whiteSpace=wrap;html=1;aspect=fixed;direction=west;fillColor=#7EA6E0;strokeColor=#A9C4EB;container=0;movable=1;resizable=1;rotatable=1;deletable=1;editable=1;locked=0;connectable=1;" vertex="1" parent="1">
          <mxGeometry x="430.15" y="362.505" width="13.749999999999995" height="13.749999999999995" as="geometry" />
        </mxCell>
        <mxCell id="ix9Jyrw6C9A1fynfYH4--134" value="" style="whiteSpace=wrap;html=1;aspect=fixed;direction=west;fillColor=#7EA6E0;strokeColor=#A9C4EB;container=0;movable=1;resizable=1;rotatable=1;deletable=1;editable=1;locked=0;connectable=1;" vertex="1" parent="1">
          <mxGeometry x="453.15" y="362.505" width="13.749999999999995" height="13.749999999999995" as="geometry" />
        </mxCell>
        <mxCell id="ix9Jyrw6C9A1fynfYH4--135" value="" style="whiteSpace=wrap;html=1;aspect=fixed;direction=west;fillColor=#7EA6E0;strokeColor=#A9C4EB;container=0;movable=1;resizable=1;rotatable=1;deletable=1;editable=1;locked=0;connectable=1;" vertex="1" parent="1">
          <mxGeometry x="383.28" y="362.505" width="13.749999999999995" height="13.749999999999995" as="geometry" />
        </mxCell>
        <mxCell id="ix9Jyrw6C9A1fynfYH4--136" value="" style="whiteSpace=wrap;html=1;aspect=fixed;direction=west;fillColor=#7EA6E0;strokeColor=#A9C4EB;container=0;movable=1;resizable=1;rotatable=1;deletable=1;editable=1;locked=0;connectable=1;" vertex="1" parent="1">
          <mxGeometry x="430.28" y="362.505" width="13.749999999999995" height="13.749999999999995" as="geometry" />
        </mxCell>
        <mxCell id="ix9Jyrw6C9A1fynfYH4--137" value="" style="whiteSpace=wrap;html=1;aspect=fixed;direction=west;fillColor=#7EA6E0;strokeColor=#A9C4EB;container=0;movable=1;resizable=1;rotatable=1;deletable=1;editable=1;locked=0;connectable=1;" vertex="1" parent="1">
          <mxGeometry x="406.28" y="362.505" width="13.749999999999995" height="13.749999999999995" as="geometry" />
        </mxCell>
        <mxCell id="ix9Jyrw6C9A1fynfYH4--138" value="" style="whiteSpace=wrap;html=1;aspect=fixed;direction=west;fillColor=#7EA6E0;strokeColor=#A9C4EB;container=0;movable=1;resizable=1;rotatable=1;deletable=1;editable=1;locked=0;connectable=1;" vertex="1" parent="1">
          <mxGeometry x="453.28" y="362.505" width="13.749999999999995" height="13.749999999999995" as="geometry" />
        </mxCell>
        <mxCell id="ix9Jyrw6C9A1fynfYH4--175" style="edgeStyle=orthogonalEdgeStyle;rounded=0;orthogonalLoop=1;jettySize=auto;html=1;exitX=0;exitY=0.5;exitDx=0;exitDy=0;entryX=0;entryY=0.5;entryDx=0;entryDy=0;" edge="1" parent="1" source="ix9Jyrw6C9A1fynfYH4--140" target="ix9Jyrw6C9A1fynfYH4--13">
          <mxGeometry relative="1" as="geometry" />
        </mxCell>
        <mxCell id="ix9Jyrw6C9A1fynfYH4--140" value="" style="rounded=1;whiteSpace=wrap;html=1;fillColor=none;movable=1;resizable=1;rotatable=1;deletable=1;editable=1;locked=0;connectable=1;strokeColor=#666666;dashed=1;dashPattern=8 8;" vertex="1" parent="1">
          <mxGeometry x="850" y="326.26" width="108.34" height="57.51" as="geometry" />
        </mxCell>
        <mxCell id="ix9Jyrw6C9A1fynfYH4--68" value="" style="whiteSpace=wrap;html=1;aspect=fixed;direction=west;fillColor=#f8cecc;strokeColor=#b85450;container=0;movable=1;resizable=1;rotatable=1;deletable=1;editable=1;locked=0;connectable=1;" vertex="1" parent="1">
          <mxGeometry x="886.8799999999999" y="337.045" width="13.749999999999995" height="13.749999999999995" as="geometry" />
        </mxCell>
        <mxCell id="ix9Jyrw6C9A1fynfYH4--69" value="" style="whiteSpace=wrap;html=1;aspect=fixed;direction=west;fillColor=#f8cecc;strokeColor=#b85450;container=0;movable=1;resizable=1;rotatable=1;deletable=1;editable=1;locked=0;connectable=1;" vertex="1" parent="1">
          <mxGeometry x="863.8800000000001" y="337.045" width="13.749999999999995" height="13.749999999999995" as="geometry" />
        </mxCell>
        <mxCell id="ix9Jyrw6C9A1fynfYH4--70" value="" style="whiteSpace=wrap;html=1;aspect=fixed;direction=west;fillColor=#f8cecc;strokeColor=#b85450;container=0;movable=1;resizable=1;rotatable=1;deletable=1;editable=1;locked=0;connectable=1;" vertex="1" parent="1">
          <mxGeometry x="910.8799999999999" y="337.045" width="13.749999999999995" height="13.749999999999995" as="geometry" />
        </mxCell>
        <mxCell id="ix9Jyrw6C9A1fynfYH4--71" value="" style="whiteSpace=wrap;html=1;aspect=fixed;direction=west;fillColor=#f8cecc;strokeColor=#b85450;container=0;movable=1;resizable=1;rotatable=1;deletable=1;editable=1;locked=0;connectable=1;" vertex="1" parent="1">
          <mxGeometry x="933.8799999999999" y="337.045" width="13.749999999999995" height="13.749999999999995" as="geometry" />
        </mxCell>
        <mxCell id="ix9Jyrw6C9A1fynfYH4--72" value="" style="whiteSpace=wrap;html=1;aspect=fixed;direction=west;fillColor=#f8cecc;strokeColor=#b85450;container=0;movable=1;resizable=1;rotatable=1;deletable=1;editable=1;locked=0;connectable=1;" vertex="1" parent="1">
          <mxGeometry x="863.8800000000001" y="337.045" width="13.749999999999995" height="13.749999999999995" as="geometry" />
        </mxCell>
        <mxCell id="ix9Jyrw6C9A1fynfYH4--73" value="" style="whiteSpace=wrap;html=1;aspect=fixed;direction=west;fillColor=#f8cecc;strokeColor=#b85450;container=0;movable=1;resizable=1;rotatable=1;deletable=1;editable=1;locked=0;connectable=1;" vertex="1" parent="1">
          <mxGeometry x="910.8800000000001" y="337.045" width="13.749999999999995" height="13.749999999999995" as="geometry" />
        </mxCell>
        <mxCell id="ix9Jyrw6C9A1fynfYH4--74" value="" style="whiteSpace=wrap;html=1;aspect=fixed;direction=west;fillColor=#f8cecc;strokeColor=#b85450;container=0;movable=1;resizable=1;rotatable=1;deletable=1;editable=1;locked=0;connectable=1;" vertex="1" parent="1">
          <mxGeometry x="886.8800000000001" y="337.045" width="13.749999999999995" height="13.749999999999995" as="geometry" />
        </mxCell>
        <mxCell id="ix9Jyrw6C9A1fynfYH4--75" value="" style="whiteSpace=wrap;html=1;aspect=fixed;direction=west;fillColor=#f8cecc;strokeColor=#b85450;container=0;movable=1;resizable=1;rotatable=1;deletable=1;editable=1;locked=0;connectable=1;" vertex="1" parent="1">
          <mxGeometry x="933.8800000000001" y="337.045" width="13.749999999999995" height="13.749999999999995" as="geometry" />
        </mxCell>
        <mxCell id="ix9Jyrw6C9A1fynfYH4--149" value="" style="whiteSpace=wrap;html=1;aspect=fixed;direction=west;fillColor=#d5e8d4;strokeColor=#82b366;container=0;movable=1;resizable=1;rotatable=1;deletable=1;editable=1;locked=0;connectable=1;" vertex="1" parent="1">
          <mxGeometry x="886.75" y="359.235" width="13.749999999999995" height="13.749999999999995" as="geometry" />
        </mxCell>
        <mxCell id="ix9Jyrw6C9A1fynfYH4--150" value="" style="whiteSpace=wrap;html=1;aspect=fixed;direction=west;fillColor=#d5e8d4;strokeColor=#82b366;container=0;movable=1;resizable=1;rotatable=1;deletable=1;editable=1;locked=0;connectable=1;" vertex="1" parent="1">
          <mxGeometry x="863.75" y="359.235" width="13.749999999999995" height="13.749999999999995" as="geometry" />
        </mxCell>
        <mxCell id="ix9Jyrw6C9A1fynfYH4--151" value="" style="whiteSpace=wrap;html=1;aspect=fixed;direction=west;fillColor=#d5e8d4;strokeColor=#82b366;container=0;movable=1;resizable=1;rotatable=1;deletable=1;editable=1;locked=0;connectable=1;" vertex="1" parent="1">
          <mxGeometry x="910.75" y="359.235" width="13.749999999999995" height="13.749999999999995" as="geometry" />
        </mxCell>
        <mxCell id="ix9Jyrw6C9A1fynfYH4--152" value="" style="whiteSpace=wrap;html=1;aspect=fixed;direction=west;fillColor=#d5e8d4;strokeColor=#82b366;container=0;movable=1;resizable=1;rotatable=1;deletable=1;editable=1;locked=0;connectable=1;" vertex="1" parent="1">
          <mxGeometry x="933.75" y="359.235" width="13.749999999999995" height="13.749999999999995" as="geometry" />
        </mxCell>
        <mxCell id="ix9Jyrw6C9A1fynfYH4--153" value="" style="whiteSpace=wrap;html=1;aspect=fixed;direction=west;fillColor=#d5e8d4;strokeColor=#82b366;container=0;movable=1;resizable=1;rotatable=1;deletable=1;editable=1;locked=0;connectable=1;" vertex="1" parent="1">
          <mxGeometry x="863.8800000000001" y="359.235" width="13.749999999999995" height="13.749999999999995" as="geometry" />
        </mxCell>
        <mxCell id="ix9Jyrw6C9A1fynfYH4--154" value="" style="whiteSpace=wrap;html=1;aspect=fixed;direction=west;fillColor=#d5e8d4;strokeColor=#82b366;container=0;movable=1;resizable=1;rotatable=1;deletable=1;editable=1;locked=0;connectable=1;" vertex="1" parent="1">
          <mxGeometry x="910.8800000000001" y="359.235" width="13.749999999999995" height="13.749999999999995" as="geometry" />
        </mxCell>
        <mxCell id="ix9Jyrw6C9A1fynfYH4--155" value="" style="whiteSpace=wrap;html=1;aspect=fixed;direction=west;fillColor=#d5e8d4;strokeColor=#82b366;container=0;movable=1;resizable=1;rotatable=1;deletable=1;editable=1;locked=0;connectable=1;" vertex="1" parent="1">
          <mxGeometry x="886.8800000000001" y="359.235" width="13.749999999999995" height="13.749999999999995" as="geometry" />
        </mxCell>
        <mxCell id="ix9Jyrw6C9A1fynfYH4--156" value="" style="whiteSpace=wrap;html=1;aspect=fixed;direction=west;fillColor=#d5e8d4;strokeColor=#82b366;container=0;movable=1;resizable=1;rotatable=1;deletable=1;editable=1;locked=0;connectable=1;" vertex="1" parent="1">
          <mxGeometry x="933.8800000000001" y="359.235" width="13.749999999999995" height="13.749999999999995" as="geometry" />
        </mxCell>
        <mxCell id="ix9Jyrw6C9A1fynfYH4--174" style="edgeStyle=orthogonalEdgeStyle;rounded=0;orthogonalLoop=1;jettySize=auto;html=1;exitX=0;exitY=0.5;exitDx=0;exitDy=0;entryX=1;entryY=0.5;entryDx=0;entryDy=0;" edge="1" parent="1" source="ix9Jyrw6C9A1fynfYH4--100" target="ix9Jyrw6C9A1fynfYH4--140">
          <mxGeometry relative="1" as="geometry" />
        </mxCell>
        <mxCell id="ix9Jyrw6C9A1fynfYH4--177" style="edgeStyle=orthogonalEdgeStyle;rounded=0;orthogonalLoop=1;jettySize=auto;html=1;exitX=1;exitY=0.5;exitDx=0;exitDy=0;entryX=0;entryY=0.5;entryDx=0;entryDy=0;" edge="1" parent="1" source="ix9Jyrw6C9A1fynfYH4--17" target="ix9Jyrw6C9A1fynfYH4--47">
          <mxGeometry relative="1" as="geometry" />
        </mxCell>
      </root>
    </mxGraphModel>
  </diagram>
</mxfile>
